<?xml version="1.0" encoding="UTF-8" standalone="no"?>
<svg
   xmlns:dc="http://purl.org/dc/elements/1.1/"
   xmlns:cc="http://creativecommons.org/ns#"
   xmlns:rdf="http://www.w3.org/1999/02/22-rdf-syntax-ns#"
   xmlns:svg="http://www.w3.org/2000/svg"
   xmlns="http://www.w3.org/2000/svg"
   xmlns:sodipodi="http://sodipodi.sourceforge.net/DTD/sodipodi-0.dtd"
   xmlns:inkscape="http://www.inkscape.org/namespaces/inkscape"
   width="150mm"
   height="156mm"
   viewBox="0 0 150 156"
   version="1.1"
   id="svg8"
   sodipodi:docname="top-outline.svg"
   inkscape:version="1.0.1 (3bc2e813f5, 2020-09-07)">
  <defs
     id="defs2">
    <clipPath
       clipPathUnits="userSpaceOnUse"
       id="clipPath846">
      <rect
         style="fill:#000000;fill-opacity:0.431452;stroke-width:0.939337;stroke-linejoin:miter;stroke-miterlimit:4;stroke-dasharray:none"
         id="rect848"
         width="29.999998"
         height="11.999999"
         x="60"
         y="134"
         ry="0" />
    </clipPath>
  </defs>
  <sodipodi:namedview
     id="base"
     pagecolor="#ffffff"
     bordercolor="#666666"
     borderopacity="1.0"
     inkscape:pageopacity="0.0"
     inkscape:pageshadow="2"
     inkscape:zoom="1.4"
     inkscape:cx="293.56749"
     inkscape:cy="376.24683"
     inkscape:document-units="mm"
     inkscape:current-layer="layer1"
     inkscape:document-rotation="0"
     showgrid="true"
     inkscape:window-width="2560"
     inkscape:window-height="1387"
     inkscape:window-x="-8"
     inkscape:window-y="-8"
     inkscape:window-maximized="1">
    <inkscape:grid
       type="xygrid"
       id="grid10"
       empspacing="5"
       spacingx="0.99999998"
       spacingy="0.99999998" />
  </sodipodi:namedview>
  <metadata
     id="metadata5">
    <rdf:RDF>
      <cc:Work
         rdf:about="">
        <dc:format>image/svg+xml</dc:format>
        <dc:type
           rdf:resource="http://purl.org/dc/dcmitype/StillImage" />
        <dc:title></dc:title>
      </cc:Work>
    </rdf:RDF>
  </metadata>
  <g
     inkscape:label="Shell"
     inkscape:groupmode="layer"
     id="layer1"
     style="display:inline">
    <path
       id="path873"
       style="color:#000000;font-style:normal;font-variant:normal;font-weight:normal;font-stretch:normal;font-size:medium;line-height:normal;font-family:sans-serif;font-variant-ligatures:normal;font-variant-position:normal;font-variant-caps:normal;font-variant-numeric:normal;font-variant-alternates:normal;font-variant-east-asian:normal;font-feature-settings:normal;font-variation-settings:normal;text-indent:0;text-align:start;text-decoration:none;text-decoration-line:none;text-decoration-style:solid;text-decoration-color:#000000;letter-spacing:normal;word-spacing:normal;text-transform:none;writing-mode:lr-tb;direction:ltr;text-orientation:mixed;dominant-baseline:auto;baseline-shift:baseline;text-anchor:start;white-space:normal;shape-padding:0;shape-margin:0;inline-size:0;clip-rule:nonzero;display:inline;overflow:visible;visibility:visible;opacity:1;isolation:auto;mix-blend-mode:normal;color-interpolation:sRGB;color-interpolation-filters:linearRGB;solid-color:#000000;solid-opacity:1;vector-effect:none;fill:#000000;fill-opacity:1;fill-rule:nonzero;stroke:none;stroke-width:0.377953;stroke-linecap:butt;stroke-linejoin:round;stroke-miterlimit:4;stroke-dasharray:none;stroke-dashoffset:0;stroke-opacity:1;color-rendering:auto;image-rendering:auto;shape-rendering:auto;text-rendering:auto;enable-background:accumulate;stop-color:#000000;stop-opacity:1"
       d="m 62.361328,0 v 98.267578 3.779302 c 1.06e-4,1.04364 0.84698,1.89051 1.890625,1.89062 10.918636,0 19.834026,3.60746 26.066406,9.83984 6.232385,6.23238 9.839841,15.14582 9.839841,26.06446 0,10.91863 -3.607456,19.83402 -9.839841,26.0664 -6.23238,6.23239 -15.14777,9.83985 -26.066406,9.83985 -1.043645,1e-4 -1.890519,0.84698 -1.890625,1.89062 v 275.9043 3.7793 c 1.06e-4,1.04364 0.84698,1.89051 1.890625,1.89062 11.023623,0 19.948178,2.74624 26.117188,8.47461 6.169013,5.72837 9.789059,14.5613 9.789059,27.42969 9.8e-4,0.95731 0.71726,1.76275 1.66797,1.875 162.56977,18.90346 219.61301,18.90603 363.29883,0 0.94193,-0.12246 1.6469,-0.92513 1.64648,-1.875 0,-10.91864 3.60744,-19.83209 9.83985,-26.06446 6.23236,-6.2324 15.14777,-9.83984 26.0664,-9.83984 1.04365,-1.1e-4 1.88856,-0.84698 1.88868,-1.89062 V 0 h -3.7793 v 455.76562 c -10.87128,0.43231 -20.26089,4.02851 -26.84766,10.61524 -6.62192,6.62196 -10.24707,16.06282 -10.64453,27.00976 -141.95872,18.62605 -198.97893,18.63048 -359.63867,-0.008 -0.3645,-12.59561 -4.004657,-22.23618 -10.71875,-28.4707 -6.64416,-6.16936 -16.016647,-8.88664 -26.794922,-9.21289 v -2.15625 -274.34766 c 10.871286,-0.43228 20.260919,-4.0285 26.847656,-10.61523 6.995963,-6.99596 10.947266,-16.97975 10.947266,-28.73828 0,-11.75854 -3.951303,-21.74037 -10.947266,-28.73633 -6.586737,-6.58674 -15.97637,-10.18294 -26.847656,-10.61524 V 98.267578 0 Z"
       transform="scale(0.26458333)" />
  </g>
</svg>
