solid OpenSCAD_Model
  facet normal 0.671559 0.740951 -0
    outer loop
      vertex 2.91681 2.91681 1
      vertex 2.61687 3.18867 4
      vertex 2.91681 2.91681 4
    endloop
  endfacet
  facet normal 0.671559 0.740951 0
    outer loop
      vertex 2.61687 3.18867 4
      vertex 2.91681 2.91681 1
      vertex 2.61687 3.18867 1
    endloop
  endfacet
  facet normal -0.336889 0.941544 0
    outer loop
      vertex -1.19742 3.94738 1
      vertex -1.57857 3.811 4
      vertex -1.19742 3.94738 4
    endloop
  endfacet
  facet normal -0.336889 0.941544 0
    outer loop
      vertex -1.57857 3.811 4
      vertex -1.19742 3.94738 1
      vertex -1.57857 3.811 1
    endloop
  endfacet
  facet normal -0.90399 0.427554 0
    outer loop
      vertex -3.811 1.57857 1
      vertex -3.63793 1.94451 4
      vertex -3.63793 1.94451 1
    endloop
  endfacet
  facet normal -0.90399 0.427554 0
    outer loop
      vertex -3.63793 1.94451 4
      vertex -3.811 1.57857 1
      vertex -3.811 1.57857 4
    endloop
  endfacet
  facet normal 0.90399 0.427554 0
    outer loop
      vertex 3.811 1.57857 4
      vertex 3.63793 1.94451 1
      vertex 3.63793 1.94451 4
    endloop
  endfacet
  facet normal 0.90399 0.427554 0
    outer loop
      vertex 3.63793 1.94451 1
      vertex 3.811 1.57857 4
      vertex 3.811 1.57857 1
    endloop
  endfacet
  facet normal 0.857728 0.514104 0
    outer loop
      vertex 3.63793 1.94451 4
      vertex 3.42981 2.29173 1
      vertex 3.42981 2.29173 4
    endloop
  endfacet
  facet normal 0.857728 0.514104 0
    outer loop
      vertex 3.42981 2.29173 1
      vertex 3.63793 1.94451 4
      vertex 3.63793 1.94451 1
    endloop
  endfacet
  facet normal 0.427554 0.90399 -0
    outer loop
      vertex 1.94451 3.63793 1
      vertex 1.57857 3.811 4
      vertex 1.94451 3.63793 4
    endloop
  endfacet
  facet normal 0.427554 0.90399 0
    outer loop
      vertex 1.57857 3.811 4
      vertex 1.94451 3.63793 1
      vertex 1.57857 3.811 1
    endloop
  endfacet
  facet normal 0.14673 0.989177 -0
    outer loop
      vertex 0.804747 4.04574 1
      vertex 0.40432 4.10514 4
      vertex 0.804747 4.04574 4
    endloop
  endfacet
  facet normal 0.14673 0.989177 0
    outer loop
      vertex 0.40432 4.10514 4
      vertex 0.804747 4.04574 1
      vertex 0.40432 4.10514 1
    endloop
  endfacet
  facet normal -0.740951 0.671559 0
    outer loop
      vertex -3.18867 2.61687 1
      vertex -2.91681 2.91681 4
      vertex -2.91681 2.91681 1
    endloop
  endfacet
  facet normal -0.740951 0.671559 0
    outer loop
      vertex -2.91681 2.91681 4
      vertex -3.18867 2.61687 1
      vertex -3.18867 2.61687 4
    endloop
  endfacet
  facet normal -0.14673 0.989177 0
    outer loop
      vertex -0.40432 4.10514 1
      vertex -0.804747 4.04574 4
      vertex -0.40432 4.10514 4
    endloop
  endfacet
  facet normal -0.14673 0.989177 0
    outer loop
      vertex -0.804747 4.04574 4
      vertex -0.40432 4.10514 1
      vertex -0.804747 4.04574 1
    endloop
  endfacet
  facet normal 0.989177 -0.14673 0
    outer loop
      vertex 4.04574 -0.804747 4
      vertex 4.10514 -0.40432 1
      vertex 4.10514 -0.40432 4
    endloop
  endfacet
  facet normal 0.989177 -0.14673 0
    outer loop
      vertex 4.10514 -0.40432 1
      vertex 4.04574 -0.804747 4
      vertex 4.04574 -0.804747 1
    endloop
  endfacet
  facet normal 0.740951 -0.671559 0
    outer loop
      vertex 2.91681 -2.91681 4
      vertex 3.18867 -2.61687 1
      vertex 3.18867 -2.61687 4
    endloop
  endfacet
  facet normal 0.740951 -0.671559 0
    outer loop
      vertex 3.18867 -2.61687 1
      vertex 2.91681 -2.91681 4
      vertex 2.91681 -2.91681 1
    endloop
  endfacet
  facet normal -0.14673 -0.989177 0
    outer loop
      vertex -0.804747 -4.04574 1
      vertex -0.40432 -4.10514 4
      vertex -0.804747 -4.04574 4
    endloop
  endfacet
  facet normal -0.14673 -0.989177 -0
    outer loop
      vertex -0.40432 -4.10514 4
      vertex -0.804747 -4.04574 1
      vertex -0.40432 -4.10514 1
    endloop
  endfacet
  facet normal -0.671559 -0.740951 0
    outer loop
      vertex -2.91681 -2.91681 1
      vertex -2.61687 -3.18867 4
      vertex -2.91681 -2.91681 4
    endloop
  endfacet
  facet normal -0.671559 -0.740951 -0
    outer loop
      vertex -2.61687 -3.18867 4
      vertex -2.91681 -2.91681 1
      vertex -2.61687 -3.18867 1
    endloop
  endfacet
  facet normal -0.989177 -0.14673 0
    outer loop
      vertex -4.04574 -0.804747 1
      vertex -4.10514 -0.40432 4
      vertex -4.10514 -0.40432 1
    endloop
  endfacet
  facet normal -0.989177 -0.14673 0
    outer loop
      vertex -4.10514 -0.40432 4
      vertex -4.04574 -0.804747 1
      vertex -4.04574 -0.804747 4
    endloop
  endfacet
  facet normal 0.989177 0.14673 0
    outer loop
      vertex 4.10514 0.40432 4
      vertex 4.04574 0.804747 1
      vertex 4.04574 0.804747 4
    endloop
  endfacet
  facet normal 0.989177 0.14673 0
    outer loop
      vertex 4.04574 0.804747 1
      vertex 4.10514 0.40432 4
      vertex 4.10514 0.40432 1
    endloop
  endfacet
  facet normal 0.970031 0.242981 0
    outer loop
      vertex 4.04574 0.804747 4
      vertex 3.94738 1.19742 1
      vertex 3.94738 1.19742 4
    endloop
  endfacet
  facet normal 0.970031 0.242981 0
    outer loop
      vertex 3.94738 1.19742 1
      vertex 4.04574 0.804747 4
      vertex 4.04574 0.804747 1
    endloop
  endfacet
  facet normal 0.941544 0.336889 0
    outer loop
      vertex 3.94738 1.19742 4
      vertex 3.811 1.57857 1
      vertex 3.811 1.57857 4
    endloop
  endfacet
  facet normal 0.941544 0.336889 0
    outer loop
      vertex 3.811 1.57857 1
      vertex 3.94738 1.19742 4
      vertex 3.94738 1.19742 1
    endloop
  endfacet
  facet normal 0.803207 0.5957 0
    outer loop
      vertex 3.42981 2.29173 4
      vertex 3.18867 2.61687 1
      vertex 3.18867 2.61687 4
    endloop
  endfacet
  facet normal 0.803207 0.5957 0
    outer loop
      vertex 3.18867 2.61687 1
      vertex 3.42981 2.29173 4
      vertex 3.42981 2.29173 1
    endloop
  endfacet
  facet normal 0.740951 0.671559 0
    outer loop
      vertex 3.18867 2.61687 4
      vertex 2.91681 2.91681 1
      vertex 2.91681 2.91681 4
    endloop
  endfacet
  facet normal 0.740951 0.671559 0
    outer loop
      vertex 2.91681 2.91681 1
      vertex 3.18867 2.61687 4
      vertex 3.18867 2.61687 1
    endloop
  endfacet
  facet normal 0.5957 0.803207 -0
    outer loop
      vertex 2.61687 3.18867 1
      vertex 2.29173 3.42981 4
      vertex 2.61687 3.18867 4
    endloop
  endfacet
  facet normal 0.5957 0.803207 0
    outer loop
      vertex 2.29173 3.42981 4
      vertex 2.61687 3.18867 1
      vertex 2.29173 3.42981 1
    endloop
  endfacet
  facet normal 0.0490681 0.998795 -0
    outer loop
      vertex 0.40432 4.10514 1
      vertex 0 4.125 4
      vertex 0.40432 4.10514 4
    endloop
  endfacet
  facet normal 0.0490681 0.998795 0
    outer loop
      vertex 0 4.125 4
      vertex 0.40432 4.10514 1
      vertex 0 4.125 1
    endloop
  endfacet
  facet normal 0.514104 0.857728 -0
    outer loop
      vertex 2.29173 3.42981 1
      vertex 1.94451 3.63793 4
      vertex 2.29173 3.42981 4
    endloop
  endfacet
  facet normal 0.514104 0.857728 0
    outer loop
      vertex 1.94451 3.63793 4
      vertex 2.29173 3.42981 1
      vertex 1.94451 3.63793 1
    endloop
  endfacet
  facet normal 0.336889 0.941544 -0
    outer loop
      vertex 1.57857 3.811 1
      vertex 1.19742 3.94738 4
      vertex 1.57857 3.811 4
    endloop
  endfacet
  facet normal 0.336889 0.941544 0
    outer loop
      vertex 1.19742 3.94738 4
      vertex 1.57857 3.811 1
      vertex 1.19742 3.94738 1
    endloop
  endfacet
  facet normal 0.242981 0.970031 -0
    outer loop
      vertex 1.19742 3.94738 1
      vertex 0.804747 4.04574 4
      vertex 1.19742 3.94738 4
    endloop
  endfacet
  facet normal 0.242981 0.970031 0
    outer loop
      vertex 0.804747 4.04574 4
      vertex 1.19742 3.94738 1
      vertex 0.804747 4.04574 1
    endloop
  endfacet
  facet normal -0.998795 0.0490681 0
    outer loop
      vertex -4.125 0 1
      vertex -4.10514 0.40432 4
      vertex -4.10514 0.40432 1
    endloop
  endfacet
  facet normal -0.998795 0.0490681 0
    outer loop
      vertex -4.10514 0.40432 4
      vertex -4.125 0 1
      vertex -4.125 0 4
    endloop
  endfacet
  facet normal -0.941544 0.336889 0
    outer loop
      vertex -3.94738 1.19742 1
      vertex -3.811 1.57857 4
      vertex -3.811 1.57857 1
    endloop
  endfacet
  facet normal -0.941544 0.336889 0
    outer loop
      vertex -3.811 1.57857 4
      vertex -3.94738 1.19742 1
      vertex -3.94738 1.19742 4
    endloop
  endfacet
  facet normal -0.970031 0.242981 0
    outer loop
      vertex -4.04574 0.804747 1
      vertex -3.94738 1.19742 4
      vertex -3.94738 1.19742 1
    endloop
  endfacet
  facet normal -0.970031 0.242981 0
    outer loop
      vertex -3.94738 1.19742 4
      vertex -4.04574 0.804747 1
      vertex -4.04574 0.804747 4
    endloop
  endfacet
  facet normal -0.857728 0.514104 0
    outer loop
      vertex -3.63793 1.94451 1
      vertex -3.42981 2.29173 4
      vertex -3.42981 2.29173 1
    endloop
  endfacet
  facet normal -0.857728 0.514104 0
    outer loop
      vertex -3.42981 2.29173 4
      vertex -3.63793 1.94451 1
      vertex -3.63793 1.94451 4
    endloop
  endfacet
  facet normal -0.803207 0.5957 0
    outer loop
      vertex -3.42981 2.29173 1
      vertex -3.18867 2.61687 4
      vertex -3.18867 2.61687 1
    endloop
  endfacet
  facet normal -0.803207 0.5957 0
    outer loop
      vertex -3.18867 2.61687 4
      vertex -3.42981 2.29173 1
      vertex -3.42981 2.29173 4
    endloop
  endfacet
  facet normal -0.242981 0.970031 0
    outer loop
      vertex -0.804747 4.04574 1
      vertex -1.19742 3.94738 4
      vertex -0.804747 4.04574 4
    endloop
  endfacet
  facet normal -0.242981 0.970031 0
    outer loop
      vertex -1.19742 3.94738 4
      vertex -0.804747 4.04574 1
      vertex -1.19742 3.94738 1
    endloop
  endfacet
  facet normal -0.0490681 0.998795 0
    outer loop
      vertex 0 4.125 1
      vertex -0.40432 4.10514 4
      vertex 0 4.125 4
    endloop
  endfacet
  facet normal -0.0490681 0.998795 0
    outer loop
      vertex -0.40432 4.10514 4
      vertex 0 4.125 1
      vertex -0.40432 4.10514 1
    endloop
  endfacet
  facet normal -0.514104 0.857728 0
    outer loop
      vertex -1.94451 3.63793 1
      vertex -2.29173 3.42981 4
      vertex -1.94451 3.63793 4
    endloop
  endfacet
  facet normal -0.514104 0.857728 0
    outer loop
      vertex -2.29173 3.42981 4
      vertex -1.94451 3.63793 1
      vertex -2.29173 3.42981 1
    endloop
  endfacet
  facet normal -0.5957 0.803207 0
    outer loop
      vertex -2.29173 3.42981 1
      vertex -2.61687 3.18867 4
      vertex -2.29173 3.42981 4
    endloop
  endfacet
  facet normal -0.5957 0.803207 0
    outer loop
      vertex -2.61687 3.18867 4
      vertex -2.29173 3.42981 1
      vertex -2.61687 3.18867 1
    endloop
  endfacet
  facet normal -0.427554 0.90399 0
    outer loop
      vertex -1.57857 3.811 1
      vertex -1.94451 3.63793 4
      vertex -1.57857 3.811 4
    endloop
  endfacet
  facet normal -0.427554 0.90399 0
    outer loop
      vertex -1.94451 3.63793 4
      vertex -1.57857 3.811 1
      vertex -1.94451 3.63793 1
    endloop
  endfacet
  facet normal -0.671559 0.740951 0
    outer loop
      vertex -2.61687 3.18867 1
      vertex -2.91681 2.91681 4
      vertex -2.61687 3.18867 4
    endloop
  endfacet
  facet normal -0.671559 0.740951 0
    outer loop
      vertex -2.91681 2.91681 4
      vertex -2.61687 3.18867 1
      vertex -2.91681 2.91681 1
    endloop
  endfacet
  facet normal 0.998795 0.0490681 0
    outer loop
      vertex 4.125 0 4
      vertex 4.10514 0.40432 1
      vertex 4.10514 0.40432 4
    endloop
  endfacet
  facet normal 0.998795 0.0490681 0
    outer loop
      vertex 4.10514 0.40432 1
      vertex 4.125 0 4
      vertex 4.125 0 1
    endloop
  endfacet
  facet normal 0.0490681 -0.998795 0
    outer loop
      vertex 0 -4.125 1
      vertex 0.40432 -4.10514 4
      vertex 0 -4.125 4
    endloop
  endfacet
  facet normal 0.0490681 -0.998795 0
    outer loop
      vertex 0.40432 -4.10514 4
      vertex 0 -4.125 1
      vertex 0.40432 -4.10514 1
    endloop
  endfacet
  facet normal 0.941544 -0.336889 0
    outer loop
      vertex 3.811 -1.57857 4
      vertex 3.94738 -1.19742 1
      vertex 3.94738 -1.19742 4
    endloop
  endfacet
  facet normal 0.941544 -0.336889 0
    outer loop
      vertex 3.94738 -1.19742 1
      vertex 3.811 -1.57857 4
      vertex 3.811 -1.57857 1
    endloop
  endfacet
  facet normal 0.14673 -0.989177 0
    outer loop
      vertex 0.40432 -4.10514 1
      vertex 0.804747 -4.04574 4
      vertex 0.40432 -4.10514 4
    endloop
  endfacet
  facet normal 0.14673 -0.989177 0
    outer loop
      vertex 0.804747 -4.04574 4
      vertex 0.40432 -4.10514 1
      vertex 0.804747 -4.04574 1
    endloop
  endfacet
  facet normal 0.242981 -0.970031 0
    outer loop
      vertex 0.804747 -4.04574 1
      vertex 1.19742 -3.94738 4
      vertex 0.804747 -4.04574 4
    endloop
  endfacet
  facet normal 0.242981 -0.970031 0
    outer loop
      vertex 1.19742 -3.94738 4
      vertex 0.804747 -4.04574 1
      vertex 1.19742 -3.94738 1
    endloop
  endfacet
  facet normal 0.5957 -0.803207 0
    outer loop
      vertex 2.29173 -3.42981 1
      vertex 2.61687 -3.18867 4
      vertex 2.29173 -3.42981 4
    endloop
  endfacet
  facet normal 0.5957 -0.803207 0
    outer loop
      vertex 2.61687 -3.18867 4
      vertex 2.29173 -3.42981 1
      vertex 2.61687 -3.18867 1
    endloop
  endfacet
  facet normal 0.427554 -0.90399 0
    outer loop
      vertex 1.57857 -3.811 1
      vertex 1.94451 -3.63793 4
      vertex 1.57857 -3.811 4
    endloop
  endfacet
  facet normal 0.427554 -0.90399 0
    outer loop
      vertex 1.94451 -3.63793 4
      vertex 1.57857 -3.811 1
      vertex 1.94451 -3.63793 1
    endloop
  endfacet
  facet normal 0.857728 -0.514104 0
    outer loop
      vertex 3.42981 -2.29173 4
      vertex 3.63793 -1.94451 1
      vertex 3.63793 -1.94451 4
    endloop
  endfacet
  facet normal 0.857728 -0.514104 0
    outer loop
      vertex 3.63793 -1.94451 1
      vertex 3.42981 -2.29173 4
      vertex 3.42981 -2.29173 1
    endloop
  endfacet
  facet normal -0.0490681 -0.998795 0
    outer loop
      vertex -0.40432 -4.10514 1
      vertex 0 -4.125 4
      vertex -0.40432 -4.10514 4
    endloop
  endfacet
  facet normal -0.0490681 -0.998795 -0
    outer loop
      vertex 0 -4.125 4
      vertex -0.40432 -4.10514 1
      vertex 0 -4.125 1
    endloop
  endfacet
  facet normal -0.336889 -0.941544 0
    outer loop
      vertex -1.57857 -3.811 1
      vertex -1.19742 -3.94738 4
      vertex -1.57857 -3.811 4
    endloop
  endfacet
  facet normal -0.336889 -0.941544 -0
    outer loop
      vertex -1.19742 -3.94738 4
      vertex -1.57857 -3.811 1
      vertex -1.19742 -3.94738 1
    endloop
  endfacet
  facet normal -0.514104 -0.857728 0
    outer loop
      vertex -2.29173 -3.42981 1
      vertex -1.94451 -3.63793 4
      vertex -2.29173 -3.42981 4
    endloop
  endfacet
  facet normal -0.514104 -0.857728 -0
    outer loop
      vertex -1.94451 -3.63793 4
      vertex -2.29173 -3.42981 1
      vertex -1.94451 -3.63793 1
    endloop
  endfacet
  facet normal -0.970031 -0.242981 0
    outer loop
      vertex -3.94738 -1.19742 1
      vertex -4.04574 -0.804747 4
      vertex -4.04574 -0.804747 1
    endloop
  endfacet
  facet normal -0.970031 -0.242981 0
    outer loop
      vertex -4.04574 -0.804747 4
      vertex -3.94738 -1.19742 1
      vertex -3.94738 -1.19742 4
    endloop
  endfacet
  facet normal -0.998795 -0.0490681 0
    outer loop
      vertex -4.10514 -0.40432 1
      vertex -4.125 0 4
      vertex -4.125 0 1
    endloop
  endfacet
  facet normal -0.998795 -0.0490681 0
    outer loop
      vertex -4.125 0 4
      vertex -4.10514 -0.40432 1
      vertex -4.10514 -0.40432 4
    endloop
  endfacet
  facet normal 0 0 -1
    outer loop
      vertex 1 -1.5 0
      vertex 4.875 0 0
      vertex 4.85153 -0.477833 0
    endloop
  endfacet
  facet normal 0 0 -1
    outer loop
      vertex 1 -1.5 0
      vertex 4.85153 -0.477833 0
      vertex 4.78133 -0.951065 0
    endloop
  endfacet
  facet normal 0 0 -1
    outer loop
      vertex 1 1.5 0
      vertex 4.875 0 0
      vertex 1 -1.5 0
    endloop
  endfacet
  facet normal 0 0 -1
    outer loop
      vertex 1 -1.5 0
      vertex 4.78133 -0.951065 0
      vertex 4.66508 -1.41514 0
    endloop
  endfacet
  facet normal 0 0 -1
    outer loop
      vertex 4.875 0 0
      vertex 1 1.5 0
      vertex 4.85153 0.477833 0
    endloop
  endfacet
  facet normal 0 0 -1
    outer loop
      vertex 1 -1.5 0
      vertex 4.66508 -1.41514 0
      vertex 4.50391 -1.86558 0
    endloop
  endfacet
  facet normal 0 0 -1
    outer loop
      vertex 4.85153 0.477833 0
      vertex 1 1.5 0
      vertex 4.78133 0.951065 0
    endloop
  endfacet
  facet normal 0 0 -1
    outer loop
      vertex 1 -1.5 0
      vertex 4.50391 -1.86558 0
      vertex 4.29937 -2.29806 0
    endloop
  endfacet
  facet normal 0 0 -1
    outer loop
      vertex 4.78133 0.951065 0
      vertex 1 1.5 0
      vertex 4.66508 1.41514 0
    endloop
  endfacet
  facet normal 0 0 -1
    outer loop
      vertex 1 -1.5 0
      vertex 4.29937 -2.29806 0
      vertex 4.05341 -2.7084 0
    endloop
  endfacet
  facet normal 0 0 -1
    outer loop
      vertex 4.66508 1.41514 0
      vertex 1 1.5 0
      vertex 4.50391 1.86558 0
    endloop
  endfacet
  facet normal 0 0 -1
    outer loop
      vertex 1 -1.5 0
      vertex 4.05341 -2.7084 0
      vertex 3.76843 -3.09267 0
    endloop
  endfacet
  facet normal -0 0 -1
    outer loop
      vertex 4.50391 1.86558 0
      vertex 1 1.5 0
      vertex 4.29937 2.29806 0
    endloop
  endfacet
  facet normal 0 0 -1
    outer loop
      vertex 1 -1.5 0
      vertex 3.76843 -3.09267 0
      vertex 3.44715 -3.44715 0
    endloop
  endfacet
  facet normal -0 0 -1
    outer loop
      vertex 4.29937 2.29806 0
      vertex 1 1.5 0
      vertex 4.05341 2.7084 0
    endloop
  endfacet
  facet normal 0 0 -1
    outer loop
      vertex 1 -1.5 0
      vertex 3.44715 -3.44715 0
      vertex 3.09267 -3.76843 0
    endloop
  endfacet
  facet normal -0 0 -1
    outer loop
      vertex 4.05341 2.7084 0
      vertex 1 1.5 0
      vertex 3.76843 3.09267 0
    endloop
  endfacet
  facet normal 0 0 -1
    outer loop
      vertex 1 -1.5 0
      vertex 3.09267 -3.76843 0
      vertex 2.7084 -4.05341 0
    endloop
  endfacet
  facet normal -0 0 -1
    outer loop
      vertex 3.76843 3.09267 0
      vertex 1 1.5 0
      vertex 3.44715 3.44715 0
    endloop
  endfacet
  facet normal 0 0 -1
    outer loop
      vertex 1 -1.5 0
      vertex 2.7084 -4.05341 0
      vertex 2.29806 -4.29937 0
    endloop
  endfacet
  facet normal -0 0 -1
    outer loop
      vertex 3.44715 3.44715 0
      vertex 1 1.5 0
      vertex 3.09267 3.76843 0
    endloop
  endfacet
  facet normal 0 0 -1
    outer loop
      vertex 1 -1.5 0
      vertex 2.29806 -4.29937 0
      vertex 1.86558 -4.50391 0
    endloop
  endfacet
  facet normal -0 0 -1
    outer loop
      vertex 3.09267 3.76843 0
      vertex 1 1.5 0
      vertex 2.7084 4.05341 0
    endloop
  endfacet
  facet normal 0 0 -1
    outer loop
      vertex 1 -1.5 0
      vertex 1.86558 -4.50391 0
      vertex 1.41514 -4.66508 0
    endloop
  endfacet
  facet normal -0 0 -1
    outer loop
      vertex 2.7084 4.05341 0
      vertex 1 1.5 0
      vertex 2.29806 4.29937 0
    endloop
  endfacet
  facet normal -0 0 -1
    outer loop
      vertex 2.29806 4.29937 0
      vertex 1 1.5 0
      vertex 1.86558 4.50391 0
    endloop
  endfacet
  facet normal 0 0 -1
    outer loop
      vertex 0.951065 -4.78133 0
      vertex 1 -1.5 0
      vertex 1.41514 -4.66508 0
    endloop
  endfacet
  facet normal 0 0 -1
    outer loop
      vertex 0.477833 -4.85153 0
      vertex 1 -1.5 0
      vertex 0.951065 -4.78133 0
    endloop
  endfacet
  facet normal 0 0 -1
    outer loop
      vertex 0 -4.875 0
      vertex 1 -1.5 0
      vertex 0.477833 -4.85153 0
    endloop
  endfacet
  facet normal 0 0 -1
    outer loop
      vertex -1 -1.5 0
      vertex 0 -4.875 0
      vertex -0.477833 -4.85153 0
    endloop
  endfacet
  facet normal 0 0 -1
    outer loop
      vertex -1 -1.5 0
      vertex -0.477833 -4.85153 0
      vertex -0.951065 -4.78133 0
    endloop
  endfacet
  facet normal 0 0 -1
    outer loop
      vertex 0 -4.875 0
      vertex -1 -1.5 0
      vertex 1 -1.5 0
    endloop
  endfacet
  facet normal 0 0 -1
    outer loop
      vertex -1.86558 -4.50391 0
      vertex -1 -1.5 0
      vertex -1.41514 -4.66508 0
    endloop
  endfacet
  facet normal 0 0 -1
    outer loop
      vertex -1.41514 -4.66508 0
      vertex -1 -1.5 0
      vertex -0.951065 -4.78133 0
    endloop
  endfacet
  facet normal -0 0 -1
    outer loop
      vertex 1.86558 4.50391 0
      vertex 1 1.5 0
      vertex 1.41514 4.66508 0
    endloop
  endfacet
  facet normal 0 0 -1
    outer loop
      vertex 1 1.5 0
      vertex 0.951065 4.78133 0
      vertex 1.41514 4.66508 0
    endloop
  endfacet
  facet normal 0 0 -1
    outer loop
      vertex 1 1.5 0
      vertex 0.477833 4.85153 0
      vertex 0.951065 4.78133 0
    endloop
  endfacet
  facet normal 0 0 -1
    outer loop
      vertex 1 1.5 0
      vertex 0 4.875 0
      vertex 0.477833 4.85153 0
    endloop
  endfacet
  facet normal 0 0 -1
    outer loop
      vertex -1 1.5 0
      vertex 0 4.875 0
      vertex 1 1.5 0
    endloop
  endfacet
  facet normal 0 0 -1
    outer loop
      vertex 0 4.875 0
      vertex -1 1.5 0
      vertex -0.477833 4.85153 0
    endloop
  endfacet
  facet normal 0 0 -1
    outer loop
      vertex -0.477833 4.85153 0
      vertex -1 1.5 0
      vertex -0.951065 4.78133 0
    endloop
  endfacet
  facet normal 0 0 -1
    outer loop
      vertex -2.29806 -4.29937 0
      vertex -1 -1.5 0
      vertex -1.86558 -4.50391 0
    endloop
  endfacet
  facet normal 0 0 -1
    outer loop
      vertex -1 1.5 0
      vertex -1.41514 4.66508 0
      vertex -0.951065 4.78133 0
    endloop
  endfacet
  facet normal 0 0 -1
    outer loop
      vertex -2.7084 -4.05341 0
      vertex -1 -1.5 0
      vertex -2.29806 -4.29937 0
    endloop
  endfacet
  facet normal 0 0 -1
    outer loop
      vertex -1 1.5 0
      vertex -1.86558 4.50391 0
      vertex -1.41514 4.66508 0
    endloop
  endfacet
  facet normal 0 0 -1
    outer loop
      vertex -3.09267 -3.76843 0
      vertex -1 -1.5 0
      vertex -2.7084 -4.05341 0
    endloop
  endfacet
  facet normal 0 0 -1
    outer loop
      vertex -1 1.5 0
      vertex -2.29806 4.29937 0
      vertex -1.86558 4.50391 0
    endloop
  endfacet
  facet normal 0 0 -1
    outer loop
      vertex -3.44715 -3.44715 0
      vertex -1 -1.5 0
      vertex -3.09267 -3.76843 0
    endloop
  endfacet
  facet normal 0 0 -1
    outer loop
      vertex -1 1.5 0
      vertex -2.7084 4.05341 0
      vertex -2.29806 4.29937 0
    endloop
  endfacet
  facet normal 0 0 -1
    outer loop
      vertex -3.76843 -3.09267 0
      vertex -1 -1.5 0
      vertex -3.44715 -3.44715 0
    endloop
  endfacet
  facet normal 0 0 -1
    outer loop
      vertex -1 1.5 0
      vertex -3.09267 3.76843 0
      vertex -2.7084 4.05341 0
    endloop
  endfacet
  facet normal 0 0 -1
    outer loop
      vertex -4.05341 -2.7084 0
      vertex -1 -1.5 0
      vertex -3.76843 -3.09267 0
    endloop
  endfacet
  facet normal 0 0 -1
    outer loop
      vertex -1 1.5 0
      vertex -3.44715 3.44715 0
      vertex -3.09267 3.76843 0
    endloop
  endfacet
  facet normal 0 0 -1
    outer loop
      vertex -4.29937 -2.29806 0
      vertex -1 -1.5 0
      vertex -4.05341 -2.7084 0
    endloop
  endfacet
  facet normal 0 0 -1
    outer loop
      vertex -1 1.5 0
      vertex -3.76843 3.09267 0
      vertex -3.44715 3.44715 0
    endloop
  endfacet
  facet normal 0 0 -1
    outer loop
      vertex -4.50391 -1.86558 0
      vertex -1 -1.5 0
      vertex -4.29937 -2.29806 0
    endloop
  endfacet
  facet normal 0 0 -1
    outer loop
      vertex -1 1.5 0
      vertex -4.05341 2.7084 0
      vertex -3.76843 3.09267 0
    endloop
  endfacet
  facet normal 0 0 -1
    outer loop
      vertex -4.66508 -1.41514 0
      vertex -1 -1.5 0
      vertex -4.50391 -1.86558 0
    endloop
  endfacet
  facet normal 0 0 -1
    outer loop
      vertex -1 1.5 0
      vertex -4.29937 2.29806 0
      vertex -4.05341 2.7084 0
    endloop
  endfacet
  facet normal 0 0 -1
    outer loop
      vertex -4.78133 -0.951065 0
      vertex -1 -1.5 0
      vertex -4.66508 -1.41514 0
    endloop
  endfacet
  facet normal 0 0 -1
    outer loop
      vertex -1 1.5 0
      vertex -4.50391 1.86558 0
      vertex -4.29937 2.29806 0
    endloop
  endfacet
  facet normal 0 0 -1
    outer loop
      vertex -4.85153 -0.477833 0
      vertex -1 -1.5 0
      vertex -4.78133 -0.951065 0
    endloop
  endfacet
  facet normal -0 0 -1
    outer loop
      vertex -1 1.5 0
      vertex -4.66508 1.41514 0
      vertex -4.50391 1.86558 0
    endloop
  endfacet
  facet normal 0 0 -1
    outer loop
      vertex -4.875 0 0
      vertex -1 -1.5 0
      vertex -4.85153 -0.477833 0
    endloop
  endfacet
  facet normal 0 0 -1
    outer loop
      vertex -1 1.5 0
      vertex -4.78133 0.951065 0
      vertex -4.66508 1.41514 0
    endloop
  endfacet
  facet normal 0 0 -1
    outer loop
      vertex -1 -1.5 0
      vertex -4.875 0 0
      vertex -1 1.5 0
    endloop
  endfacet
  facet normal 0 0 -1
    outer loop
      vertex -1 1.5 0
      vertex -4.85153 0.477833 0
      vertex -4.78133 0.951065 0
    endloop
  endfacet
  facet normal 0 0 -1
    outer loop
      vertex -1 1.5 0
      vertex -4.875 0 0
      vertex -4.85153 0.477833 0
    endloop
  endfacet
  facet normal -0.803207 -0.5957 0
    outer loop
      vertex -3.18867 -2.61687 1
      vertex -3.42981 -2.29173 4
      vertex -3.42981 -2.29173 1
    endloop
  endfacet
  facet normal -0.803207 -0.5957 0
    outer loop
      vertex -3.42981 -2.29173 4
      vertex -3.18867 -2.61687 1
      vertex -3.18867 -2.61687 4
    endloop
  endfacet
  facet normal -0.90399 -0.427554 0
    outer loop
      vertex -3.63793 -1.94451 1
      vertex -3.811 -1.57857 4
      vertex -3.811 -1.57857 1
    endloop
  endfacet
  facet normal -0.90399 -0.427554 0
    outer loop
      vertex -3.811 -1.57857 4
      vertex -3.63793 -1.94451 1
      vertex -3.63793 -1.94451 4
    endloop
  endfacet
  facet normal 0 0 1
    outer loop
      vertex 4.10514 0.40432 4
      vertex 4.10514 -0.40432 4
      vertex 4.125 0 4
    endloop
  endfacet
  facet normal 0 0 1
    outer loop
      vertex 4.04574 0.804747 4
      vertex 4.10514 -0.40432 4
      vertex 4.10514 0.40432 4
    endloop
  endfacet
  facet normal 0 0 1
    outer loop
      vertex 4.04574 0.804747 4
      vertex 4.04574 -0.804747 4
      vertex 4.10514 -0.40432 4
    endloop
  endfacet
  facet normal 0 0 1
    outer loop
      vertex 3.94738 1.19742 4
      vertex 4.04574 -0.804747 4
      vertex 4.04574 0.804747 4
    endloop
  endfacet
  facet normal 0 0 1
    outer loop
      vertex 3.94738 1.19742 4
      vertex 3.94738 -1.19742 4
      vertex 4.04574 -0.804747 4
    endloop
  endfacet
  facet normal 0 0 1
    outer loop
      vertex 3.811 1.57857 4
      vertex 3.94738 -1.19742 4
      vertex 3.94738 1.19742 4
    endloop
  endfacet
  facet normal 0 0 1
    outer loop
      vertex 3.811 1.57857 4
      vertex 3.811 -1.57857 4
      vertex 3.94738 -1.19742 4
    endloop
  endfacet
  facet normal 0 0 1
    outer loop
      vertex 3.63793 1.94451 4
      vertex 3.811 -1.57857 4
      vertex 3.811 1.57857 4
    endloop
  endfacet
  facet normal 0 0 1
    outer loop
      vertex 3.63793 1.94451 4
      vertex 3.63793 -1.94451 4
      vertex 3.811 -1.57857 4
    endloop
  endfacet
  facet normal 0 0 1
    outer loop
      vertex 3.42981 2.29173 4
      vertex 3.63793 -1.94451 4
      vertex 3.63793 1.94451 4
    endloop
  endfacet
  facet normal 0 0 1
    outer loop
      vertex 3.42981 2.29173 4
      vertex 3.42981 -2.29173 4
      vertex 3.63793 -1.94451 4
    endloop
  endfacet
  facet normal 0 0 1
    outer loop
      vertex 3.18867 2.61687 4
      vertex 3.42981 -2.29173 4
      vertex 3.42981 2.29173 4
    endloop
  endfacet
  facet normal 0 0 1
    outer loop
      vertex 3.18867 2.61687 4
      vertex 3.18867 -2.61687 4
      vertex 3.42981 -2.29173 4
    endloop
  endfacet
  facet normal 0 0 1
    outer loop
      vertex 2.91681 2.91681 4
      vertex 3.18867 -2.61687 4
      vertex 3.18867 2.61687 4
    endloop
  endfacet
  facet normal 0 0 1
    outer loop
      vertex 2.91681 2.91681 4
      vertex 2.91681 -2.91681 4
      vertex 3.18867 -2.61687 4
    endloop
  endfacet
  facet normal 0 0 1
    outer loop
      vertex 2.61687 3.18867 4
      vertex 2.91681 -2.91681 4
      vertex 2.91681 2.91681 4
    endloop
  endfacet
  facet normal 0 0 1
    outer loop
      vertex 2.61687 3.18867 4
      vertex 2.61687 -3.18867 4
      vertex 2.91681 -2.91681 4
    endloop
  endfacet
  facet normal 0 0 1
    outer loop
      vertex 2.29173 3.42981 4
      vertex 2.61687 -3.18867 4
      vertex 2.61687 3.18867 4
    endloop
  endfacet
  facet normal 0 0 1
    outer loop
      vertex 2.29173 3.42981 4
      vertex 2.29173 -3.42981 4
      vertex 2.61687 -3.18867 4
    endloop
  endfacet
  facet normal 0 0 1
    outer loop
      vertex 1.94451 3.63793 4
      vertex 2.29173 -3.42981 4
      vertex 2.29173 3.42981 4
    endloop
  endfacet
  facet normal 0 0 1
    outer loop
      vertex 1.94451 3.63793 4
      vertex 1.94451 -3.63793 4
      vertex 2.29173 -3.42981 4
    endloop
  endfacet
  facet normal 0 0 1
    outer loop
      vertex 1.57857 3.811 4
      vertex 1.94451 -3.63793 4
      vertex 1.94451 3.63793 4
    endloop
  endfacet
  facet normal 0 0 1
    outer loop
      vertex 1.57857 3.811 4
      vertex 1.57857 -3.811 4
      vertex 1.94451 -3.63793 4
    endloop
  endfacet
  facet normal 0 0 1
    outer loop
      vertex 1.19742 3.94738 4
      vertex 1.57857 -3.811 4
      vertex 1.57857 3.811 4
    endloop
  endfacet
  facet normal 0 0 1
    outer loop
      vertex 1.19742 3.94738 4
      vertex 1.19742 -3.94738 4
      vertex 1.57857 -3.811 4
    endloop
  endfacet
  facet normal 0 0 1
    outer loop
      vertex 0.804747 4.04574 4
      vertex 1.19742 -3.94738 4
      vertex 1.19742 3.94738 4
    endloop
  endfacet
  facet normal 0 0 1
    outer loop
      vertex 0.804747 4.04574 4
      vertex 0.804747 -4.04574 4
      vertex 1.19742 -3.94738 4
    endloop
  endfacet
  facet normal 0 0 1
    outer loop
      vertex 0.40432 4.10514 4
      vertex 0.804747 -4.04574 4
      vertex 0.804747 4.04574 4
    endloop
  endfacet
  facet normal 0 0 1
    outer loop
      vertex 0.40432 4.10514 4
      vertex 0.40432 -4.10514 4
      vertex 0.804747 -4.04574 4
    endloop
  endfacet
  facet normal 0 0 1
    outer loop
      vertex 0 4.125 4
      vertex 0.40432 -4.10514 4
      vertex 0.40432 4.10514 4
    endloop
  endfacet
  facet normal 0 0 1
    outer loop
      vertex 0 4.125 4
      vertex 0 -4.125 4
      vertex 0.40432 -4.10514 4
    endloop
  endfacet
  facet normal -0 0 1
    outer loop
      vertex -0.40432 4.10514 4
      vertex 0 -4.125 4
      vertex 0 4.125 4
    endloop
  endfacet
  facet normal 0 0 1
    outer loop
      vertex -0.40432 4.10514 4
      vertex -0.40432 -4.10514 4
      vertex 0 -4.125 4
    endloop
  endfacet
  facet normal -0 0 1
    outer loop
      vertex -0.804747 4.04574 4
      vertex -0.40432 -4.10514 4
      vertex -0.40432 4.10514 4
    endloop
  endfacet
  facet normal 0 0 1
    outer loop
      vertex -0.804747 4.04574 4
      vertex -0.804747 -4.04574 4
      vertex -0.40432 -4.10514 4
    endloop
  endfacet
  facet normal -0 0 1
    outer loop
      vertex -1.19742 3.94738 4
      vertex -0.804747 -4.04574 4
      vertex -0.804747 4.04574 4
    endloop
  endfacet
  facet normal 0 0 1
    outer loop
      vertex -1.19742 3.94738 4
      vertex -1.19742 -3.94738 4
      vertex -0.804747 -4.04574 4
    endloop
  endfacet
  facet normal -0 0 1
    outer loop
      vertex -1.57857 3.811 4
      vertex -1.19742 -3.94738 4
      vertex -1.19742 3.94738 4
    endloop
  endfacet
  facet normal 0 0 1
    outer loop
      vertex -1.57857 3.811 4
      vertex -1.57857 -3.811 4
      vertex -1.19742 -3.94738 4
    endloop
  endfacet
  facet normal -0 0 1
    outer loop
      vertex -1.94451 3.63793 4
      vertex -1.57857 -3.811 4
      vertex -1.57857 3.811 4
    endloop
  endfacet
  facet normal 0 0 1
    outer loop
      vertex -1.94451 3.63793 4
      vertex -1.94451 -3.63793 4
      vertex -1.57857 -3.811 4
    endloop
  endfacet
  facet normal -0 0 1
    outer loop
      vertex -2.29173 3.42981 4
      vertex -1.94451 -3.63793 4
      vertex -1.94451 3.63793 4
    endloop
  endfacet
  facet normal 0 0 1
    outer loop
      vertex -2.29173 3.42981 4
      vertex -2.29173 -3.42981 4
      vertex -1.94451 -3.63793 4
    endloop
  endfacet
  facet normal -0 0 1
    outer loop
      vertex -2.61687 3.18867 4
      vertex -2.29173 -3.42981 4
      vertex -2.29173 3.42981 4
    endloop
  endfacet
  facet normal 0 0 1
    outer loop
      vertex -2.61687 3.18867 4
      vertex -2.61687 -3.18867 4
      vertex -2.29173 -3.42981 4
    endloop
  endfacet
  facet normal -0 0 1
    outer loop
      vertex -2.91681 2.91681 4
      vertex -2.61687 -3.18867 4
      vertex -2.61687 3.18867 4
    endloop
  endfacet
  facet normal 0 0 1
    outer loop
      vertex -2.91681 2.91681 4
      vertex -2.91681 -2.91681 4
      vertex -2.61687 -3.18867 4
    endloop
  endfacet
  facet normal -0 0 1
    outer loop
      vertex -3.18867 2.61687 4
      vertex -2.91681 -2.91681 4
      vertex -2.91681 2.91681 4
    endloop
  endfacet
  facet normal 0 0 1
    outer loop
      vertex -3.18867 2.61687 4
      vertex -3.18867 -2.61687 4
      vertex -2.91681 -2.91681 4
    endloop
  endfacet
  facet normal -0 0 1
    outer loop
      vertex -3.42981 2.29173 4
      vertex -3.18867 -2.61687 4
      vertex -3.18867 2.61687 4
    endloop
  endfacet
  facet normal 0 0 1
    outer loop
      vertex -3.42981 2.29173 4
      vertex -3.42981 -2.29173 4
      vertex -3.18867 -2.61687 4
    endloop
  endfacet
  facet normal -0 0 1
    outer loop
      vertex -3.63793 1.94451 4
      vertex -3.42981 -2.29173 4
      vertex -3.42981 2.29173 4
    endloop
  endfacet
  facet normal 0 0 1
    outer loop
      vertex -3.63793 1.94451 4
      vertex -3.63793 -1.94451 4
      vertex -3.42981 -2.29173 4
    endloop
  endfacet
  facet normal -0 0 1
    outer loop
      vertex -3.811 1.57857 4
      vertex -3.63793 -1.94451 4
      vertex -3.63793 1.94451 4
    endloop
  endfacet
  facet normal 0 0 1
    outer loop
      vertex -3.811 1.57857 4
      vertex -3.811 -1.57857 4
      vertex -3.63793 -1.94451 4
    endloop
  endfacet
  facet normal -0 0 1
    outer loop
      vertex -3.94738 1.19742 4
      vertex -3.811 -1.57857 4
      vertex -3.811 1.57857 4
    endloop
  endfacet
  facet normal 0 0 1
    outer loop
      vertex -3.94738 1.19742 4
      vertex -3.94738 -1.19742 4
      vertex -3.811 -1.57857 4
    endloop
  endfacet
  facet normal -0 0 1
    outer loop
      vertex -4.04574 0.804747 4
      vertex -3.94738 -1.19742 4
      vertex -3.94738 1.19742 4
    endloop
  endfacet
  facet normal 0 0 1
    outer loop
      vertex -4.04574 0.804747 4
      vertex -4.04574 -0.804747 4
      vertex -3.94738 -1.19742 4
    endloop
  endfacet
  facet normal -0 0 1
    outer loop
      vertex -4.10514 0.40432 4
      vertex -4.04574 -0.804747 4
      vertex -4.04574 0.804747 4
    endloop
  endfacet
  facet normal 0 0 1
    outer loop
      vertex -4.10514 0.40432 4
      vertex -4.10514 -0.40432 4
      vertex -4.04574 -0.804747 4
    endloop
  endfacet
  facet normal 0 -0 1
    outer loop
      vertex -4.10514 -0.40432 4
      vertex -4.10514 0.40432 4
      vertex -4.125 0 4
    endloop
  endfacet
  facet normal -0.989177 0.14673 0
    outer loop
      vertex -4.10514 0.40432 1
      vertex -4.04574 0.804747 4
      vertex -4.04574 0.804747 1
    endloop
  endfacet
  facet normal -0.989177 0.14673 0
    outer loop
      vertex -4.04574 0.804747 4
      vertex -4.10514 0.40432 1
      vertex -4.10514 0.40432 4
    endloop
  endfacet
  facet normal 0.998795 -0.0490681 0
    outer loop
      vertex 4.10514 -0.40432 4
      vertex 4.125 0 1
      vertex 4.125 0 4
    endloop
  endfacet
  facet normal 0.998795 -0.0490681 0
    outer loop
      vertex 4.125 0 1
      vertex 4.10514 -0.40432 4
      vertex 4.10514 -0.40432 1
    endloop
  endfacet
  facet normal 0.970031 -0.242981 0
    outer loop
      vertex 3.94738 -1.19742 4
      vertex 4.04574 -0.804747 1
      vertex 4.04574 -0.804747 4
    endloop
  endfacet
  facet normal 0.970031 -0.242981 0
    outer loop
      vertex 4.04574 -0.804747 1
      vertex 3.94738 -1.19742 4
      vertex 3.94738 -1.19742 1
    endloop
  endfacet
  facet normal 0.336889 -0.941544 0
    outer loop
      vertex 1.19742 -3.94738 1
      vertex 1.57857 -3.811 4
      vertex 1.19742 -3.94738 4
    endloop
  endfacet
  facet normal 0.336889 -0.941544 0
    outer loop
      vertex 1.57857 -3.811 4
      vertex 1.19742 -3.94738 1
      vertex 1.57857 -3.811 1
    endloop
  endfacet
  facet normal 0.671559 -0.740951 0
    outer loop
      vertex 2.61687 -3.18867 1
      vertex 2.91681 -2.91681 4
      vertex 2.61687 -3.18867 4
    endloop
  endfacet
  facet normal 0.671559 -0.740951 0
    outer loop
      vertex 2.91681 -2.91681 4
      vertex 2.61687 -3.18867 1
      vertex 2.91681 -2.91681 1
    endloop
  endfacet
  facet normal 0.514104 -0.857728 0
    outer loop
      vertex 1.94451 -3.63793 1
      vertex 2.29173 -3.42981 4
      vertex 1.94451 -3.63793 4
    endloop
  endfacet
  facet normal 0.514104 -0.857728 0
    outer loop
      vertex 2.29173 -3.42981 4
      vertex 1.94451 -3.63793 1
      vertex 2.29173 -3.42981 1
    endloop
  endfacet
  facet normal 0.90399 -0.427554 0
    outer loop
      vertex 3.63793 -1.94451 4
      vertex 3.811 -1.57857 1
      vertex 3.811 -1.57857 4
    endloop
  endfacet
  facet normal 0.90399 -0.427554 0
    outer loop
      vertex 3.811 -1.57857 1
      vertex 3.63793 -1.94451 4
      vertex 3.63793 -1.94451 1
    endloop
  endfacet
  facet normal 0.803207 -0.5957 0
    outer loop
      vertex 3.18867 -2.61687 4
      vertex 3.42981 -2.29173 1
      vertex 3.42981 -2.29173 4
    endloop
  endfacet
  facet normal 0.803207 -0.5957 0
    outer loop
      vertex 3.42981 -2.29173 1
      vertex 3.18867 -2.61687 4
      vertex 3.18867 -2.61687 1
    endloop
  endfacet
  facet normal -0.242981 -0.970031 0
    outer loop
      vertex -1.19742 -3.94738 1
      vertex -0.804747 -4.04574 4
      vertex -1.19742 -3.94738 4
    endloop
  endfacet
  facet normal -0.242981 -0.970031 -0
    outer loop
      vertex -0.804747 -4.04574 4
      vertex -1.19742 -3.94738 1
      vertex -0.804747 -4.04574 1
    endloop
  endfacet
  facet normal -0.427554 -0.90399 0
    outer loop
      vertex -1.94451 -3.63793 1
      vertex -1.57857 -3.811 4
      vertex -1.94451 -3.63793 4
    endloop
  endfacet
  facet normal -0.427554 -0.90399 -0
    outer loop
      vertex -1.57857 -3.811 4
      vertex -1.94451 -3.63793 1
      vertex -1.57857 -3.811 1
    endloop
  endfacet
  facet normal -0.5957 -0.803207 0
    outer loop
      vertex -2.61687 -3.18867 1
      vertex -2.29173 -3.42981 4
      vertex -2.61687 -3.18867 4
    endloop
  endfacet
  facet normal -0.5957 -0.803207 -0
    outer loop
      vertex -2.29173 -3.42981 4
      vertex -2.61687 -3.18867 1
      vertex -2.29173 -3.42981 1
    endloop
  endfacet
  facet normal -0.941544 -0.336889 0
    outer loop
      vertex -3.811 -1.57857 1
      vertex -3.94738 -1.19742 4
      vertex -3.94738 -1.19742 1
    endloop
  endfacet
  facet normal -0.941544 -0.336889 0
    outer loop
      vertex -3.94738 -1.19742 4
      vertex -3.811 -1.57857 1
      vertex -3.811 -1.57857 4
    endloop
  endfacet
  facet normal -0.857728 -0.514104 0
    outer loop
      vertex -3.42981 -2.29173 1
      vertex -3.63793 -1.94451 4
      vertex -3.63793 -1.94451 1
    endloop
  endfacet
  facet normal -0.857728 -0.514104 0
    outer loop
      vertex -3.63793 -1.94451 4
      vertex -3.42981 -2.29173 1
      vertex -3.42981 -2.29173 4
    endloop
  endfacet
  facet normal -0.740951 -0.671559 0
    outer loop
      vertex -2.91681 -2.91681 1
      vertex -3.18867 -2.61687 4
      vertex -3.18867 -2.61687 1
    endloop
  endfacet
  facet normal -0.740951 -0.671559 0
    outer loop
      vertex -3.18867 -2.61687 4
      vertex -2.91681 -2.91681 1
      vertex -2.91681 -2.91681 4
    endloop
  endfacet
  facet normal 0.671558 0.740952 -0
    outer loop
      vertex 3.44715 3.44715 0
      vertex 3.09267 3.76843 1
      vertex 3.44715 3.44715 1
    endloop
  endfacet
  facet normal 0.671558 0.740952 0
    outer loop
      vertex 3.09267 3.76843 1
      vertex 3.44715 3.44715 0
      vertex 3.09267 3.76843 0
    endloop
  endfacet
  facet normal 0.5957 0.803207 -0
    outer loop
      vertex 3.09267 3.76843 0
      vertex 2.7084 4.05341 1
      vertex 3.09267 3.76843 1
    endloop
  endfacet
  facet normal 0.5957 0.803207 0
    outer loop
      vertex 2.7084 4.05341 1
      vertex 3.09267 3.76843 0
      vertex 2.7084 4.05341 0
    endloop
  endfacet
  facet normal -0.336891 0.941544 0
    outer loop
      vertex -1.41514 4.66508 0
      vertex -1.86558 4.50391 1
      vertex -1.41514 4.66508 1
    endloop
  endfacet
  facet normal -0.336891 0.941544 0
    outer loop
      vertex -1.86558 4.50391 1
      vertex -1.41514 4.66508 0
      vertex -1.86558 4.50391 0
    endloop
  endfacet
  facet normal -0.90399 0.427554 0
    outer loop
      vertex -4.50391 1.86558 0
      vertex -4.29937 2.29806 1
      vertex -4.29937 2.29806 0
    endloop
  endfacet
  facet normal -0.90399 0.427554 0
    outer loop
      vertex -4.29937 2.29806 1
      vertex -4.50391 1.86558 0
      vertex -4.50391 1.86558 1
    endloop
  endfacet
  facet normal -0.90399 -0.427554 0
    outer loop
      vertex -4.29937 -2.29806 0
      vertex -4.50391 -1.86558 1
      vertex -4.50391 -1.86558 0
    endloop
  endfacet
  facet normal -0.90399 -0.427554 0
    outer loop
      vertex -4.50391 -1.86558 1
      vertex -4.29937 -2.29806 0
      vertex -4.29937 -2.29806 1
    endloop
  endfacet
  facet normal 0.970031 0.242981 0
    outer loop
      vertex 4.78133 0.951065 1
      vertex 4.66508 1.41514 0
      vertex 4.66508 1.41514 1
    endloop
  endfacet
  facet normal 0.970031 0.242981 0
    outer loop
      vertex 4.66508 1.41514 0
      vertex 4.78133 0.951065 1
      vertex 4.78133 0.951065 0
    endloop
  endfacet
  facet normal 0.941544 0.336891 0
    outer loop
      vertex 4.66508 1.41514 1
      vertex 4.50391 1.86558 0
      vertex 4.50391 1.86558 1
    endloop
  endfacet
  facet normal 0.941544 0.336891 0
    outer loop
      vertex 4.50391 1.86558 0
      vertex 4.66508 1.41514 1
      vertex 4.66508 1.41514 0
    endloop
  endfacet
  facet normal 0.857729 0.514102 0
    outer loop
      vertex 4.29937 2.29806 1
      vertex 4.05341 2.7084 0
      vertex 4.05341 2.7084 1
    endloop
  endfacet
  facet normal 0.857729 0.514102 0
    outer loop
      vertex 4.05341 2.7084 0
      vertex 4.29937 2.29806 1
      vertex 4.29937 2.29806 0
    endloop
  endfacet
  facet normal 0.803207 0.5957 0
    outer loop
      vertex 4.05341 2.7084 1
      vertex 3.76843 3.09267 0
      vertex 3.76843 3.09267 1
    endloop
  endfacet
  facet normal 0.803207 0.5957 0
    outer loop
      vertex 3.76843 3.09267 0
      vertex 4.05341 2.7084 1
      vertex 4.05341 2.7084 0
    endloop
  endfacet
  facet normal 0.514102 0.857729 -0
    outer loop
      vertex 2.7084 4.05341 0
      vertex 2.29806 4.29937 1
      vertex 2.7084 4.05341 1
    endloop
  endfacet
  facet normal 0.514102 0.857729 0
    outer loop
      vertex 2.29806 4.29937 1
      vertex 2.7084 4.05341 0
      vertex 2.29806 4.29937 0
    endloop
  endfacet
  facet normal -0.5957 0.803207 0
    outer loop
      vertex -2.7084 4.05341 0
      vertex -3.09267 3.76843 1
      vertex -2.7084 4.05341 1
    endloop
  endfacet
  facet normal -0.5957 0.803207 0
    outer loop
      vertex -3.09267 3.76843 1
      vertex -2.7084 4.05341 0
      vertex -3.09267 3.76843 0
    endloop
  endfacet
  facet normal 0.970031 -0.242981 0
    outer loop
      vertex 4.66508 -1.41514 1
      vertex 4.78133 -0.951065 0
      vertex 4.78133 -0.951065 1
    endloop
  endfacet
  facet normal 0.970031 -0.242981 0
    outer loop
      vertex 4.78133 -0.951065 0
      vertex 4.66508 -1.41514 1
      vertex 4.66508 -1.41514 0
    endloop
  endfacet
  facet normal 0.242981 -0.970031 0
    outer loop
      vertex 0.951065 -4.78133 0
      vertex 1.41514 -4.66508 1
      vertex 0.951065 -4.78133 1
    endloop
  endfacet
  facet normal 0.242981 -0.970031 0
    outer loop
      vertex 1.41514 -4.66508 1
      vertex 0.951065 -4.78133 0
      vertex 1.41514 -4.66508 0
    endloop
  endfacet
  facet normal 0.671558 -0.740952 0
    outer loop
      vertex 3.09267 -3.76843 0
      vertex 3.44715 -3.44715 1
      vertex 3.09267 -3.76843 1
    endloop
  endfacet
  facet normal 0.671558 -0.740952 0
    outer loop
      vertex 3.44715 -3.44715 1
      vertex 3.09267 -3.76843 0
      vertex 3.44715 -3.44715 0
    endloop
  endfacet
  facet normal -0.0490682 -0.998795 0
    outer loop
      vertex -0.477833 -4.85153 0
      vertex 0 -4.875 1
      vertex -0.477833 -4.85153 1
    endloop
  endfacet
  facet normal -0.0490682 -0.998795 -0
    outer loop
      vertex 0 -4.875 1
      vertex -0.477833 -4.85153 0
      vertex 0 -4.875 0
    endloop
  endfacet
  facet normal -0.514102 -0.857729 0
    outer loop
      vertex -2.7084 -4.05341 0
      vertex -2.29806 -4.29937 1
      vertex -2.7084 -4.05341 1
    endloop
  endfacet
  facet normal -0.514102 -0.857729 -0
    outer loop
      vertex -2.29806 -4.29937 1
      vertex -2.7084 -4.05341 0
      vertex -2.29806 -4.29937 0
    endloop
  endfacet
  facet normal -0.5957 -0.803207 0
    outer loop
      vertex -3.09267 -3.76843 0
      vertex -2.7084 -4.05341 1
      vertex -3.09267 -3.76843 1
    endloop
  endfacet
  facet normal -0.5957 -0.803207 -0
    outer loop
      vertex -2.7084 -4.05341 1
      vertex -3.09267 -3.76843 0
      vertex -2.7084 -4.05341 0
    endloop
  endfacet
  facet normal 0.989177 0.14673 0
    outer loop
      vertex 4.85153 0.477833 1
      vertex 4.78133 0.951065 0
      vertex 4.78133 0.951065 1
    endloop
  endfacet
  facet normal 0.989177 0.14673 0
    outer loop
      vertex 4.78133 0.951065 0
      vertex 4.85153 0.477833 1
      vertex 4.85153 0.477833 0
    endloop
  endfacet
  facet normal 0.90399 0.427554 0
    outer loop
      vertex 4.50391 1.86558 1
      vertex 4.29937 2.29806 0
      vertex 4.29937 2.29806 1
    endloop
  endfacet
  facet normal 0.90399 0.427554 0
    outer loop
      vertex 4.29937 2.29806 0
      vertex 4.50391 1.86558 1
      vertex 4.50391 1.86558 0
    endloop
  endfacet
  facet normal 0.740952 0.671558 0
    outer loop
      vertex 3.76843 3.09267 1
      vertex 3.44715 3.44715 0
      vertex 3.44715 3.44715 1
    endloop
  endfacet
  facet normal 0.740952 0.671558 0
    outer loop
      vertex 3.44715 3.44715 0
      vertex 3.76843 3.09267 1
      vertex 3.76843 3.09267 0
    endloop
  endfacet
  facet normal 0.0490682 0.998795 -0
    outer loop
      vertex 0.477833 4.85153 0
      vertex 0 4.875 1
      vertex 0.477833 4.85153 1
    endloop
  endfacet
  facet normal 0.0490682 0.998795 0
    outer loop
      vertex 0 4.875 1
      vertex 0.477833 4.85153 0
      vertex 0 4.875 0
    endloop
  endfacet
  facet normal 0.427554 0.90399 -0
    outer loop
      vertex 2.29806 4.29937 0
      vertex 1.86558 4.50391 1
      vertex 2.29806 4.29937 1
    endloop
  endfacet
  facet normal 0.427554 0.90399 0
    outer loop
      vertex 1.86558 4.50391 1
      vertex 2.29806 4.29937 0
      vertex 1.86558 4.50391 0
    endloop
  endfacet
  facet normal 0.336891 0.941544 -0
    outer loop
      vertex 1.86558 4.50391 0
      vertex 1.41514 4.66508 1
      vertex 1.86558 4.50391 1
    endloop
  endfacet
  facet normal 0.336891 0.941544 0
    outer loop
      vertex 1.41514 4.66508 1
      vertex 1.86558 4.50391 0
      vertex 1.41514 4.66508 0
    endloop
  endfacet
  facet normal 0.242981 0.970031 -0
    outer loop
      vertex 1.41514 4.66508 0
      vertex 0.951065 4.78133 1
      vertex 1.41514 4.66508 1
    endloop
  endfacet
  facet normal 0.242981 0.970031 0
    outer loop
      vertex 0.951065 4.78133 1
      vertex 1.41514 4.66508 0
      vertex 0.951065 4.78133 0
    endloop
  endfacet
  facet normal 0.14673 0.989177 -0
    outer loop
      vertex 0.951065 4.78133 0
      vertex 0.477833 4.85153 1
      vertex 0.951065 4.78133 1
    endloop
  endfacet
  facet normal 0.14673 0.989177 0
    outer loop
      vertex 0.477833 4.85153 1
      vertex 0.951065 4.78133 0
      vertex 0.477833 4.85153 0
    endloop
  endfacet
  facet normal -0.998795 0.0490682 0
    outer loop
      vertex -4.875 0 0
      vertex -4.85153 0.477833 1
      vertex -4.85153 0.477833 0
    endloop
  endfacet
  facet normal -0.998795 0.0490682 0
    outer loop
      vertex -4.85153 0.477833 1
      vertex -4.875 0 0
      vertex -4.875 0 1
    endloop
  endfacet
  facet normal -0.970031 0.242981 0
    outer loop
      vertex -4.78133 0.951065 0
      vertex -4.66508 1.41514 1
      vertex -4.66508 1.41514 0
    endloop
  endfacet
  facet normal -0.970031 0.242981 0
    outer loop
      vertex -4.66508 1.41514 1
      vertex -4.78133 0.951065 0
      vertex -4.78133 0.951065 1
    endloop
  endfacet
  facet normal -0.989177 0.14673 0
    outer loop
      vertex -4.85153 0.477833 0
      vertex -4.78133 0.951065 1
      vertex -4.78133 0.951065 0
    endloop
  endfacet
  facet normal -0.989177 0.14673 0
    outer loop
      vertex -4.78133 0.951065 1
      vertex -4.85153 0.477833 0
      vertex -4.85153 0.477833 1
    endloop
  endfacet
  facet normal -0.740952 0.671558 0
    outer loop
      vertex -3.76843 3.09267 0
      vertex -3.44715 3.44715 1
      vertex -3.44715 3.44715 0
    endloop
  endfacet
  facet normal -0.740952 0.671558 0
    outer loop
      vertex -3.44715 3.44715 1
      vertex -3.76843 3.09267 0
      vertex -3.76843 3.09267 1
    endloop
  endfacet
  facet normal -0.857729 0.514102 0
    outer loop
      vertex -4.29937 2.29806 0
      vertex -4.05341 2.7084 1
      vertex -4.05341 2.7084 0
    endloop
  endfacet
  facet normal -0.857729 0.514102 0
    outer loop
      vertex -4.05341 2.7084 1
      vertex -4.29937 2.29806 0
      vertex -4.29937 2.29806 1
    endloop
  endfacet
  facet normal -0.803207 0.5957 0
    outer loop
      vertex -4.05341 2.7084 0
      vertex -3.76843 3.09267 1
      vertex -3.76843 3.09267 0
    endloop
  endfacet
  facet normal -0.803207 0.5957 0
    outer loop
      vertex -3.76843 3.09267 1
      vertex -4.05341 2.7084 0
      vertex -4.05341 2.7084 1
    endloop
  endfacet
  facet normal -0.0490682 0.998795 0
    outer loop
      vertex 0 4.875 0
      vertex -0.477833 4.85153 1
      vertex 0 4.875 1
    endloop
  endfacet
  facet normal -0.0490682 0.998795 0
    outer loop
      vertex -0.477833 4.85153 1
      vertex 0 4.875 0
      vertex -0.477833 4.85153 0
    endloop
  endfacet
  facet normal -0.242981 0.970031 0
    outer loop
      vertex -0.951065 4.78133 0
      vertex -1.41514 4.66508 1
      vertex -0.951065 4.78133 1
    endloop
  endfacet
  facet normal -0.242981 0.970031 0
    outer loop
      vertex -1.41514 4.66508 1
      vertex -0.951065 4.78133 0
      vertex -1.41514 4.66508 0
    endloop
  endfacet
  facet normal -0.14673 0.989177 0
    outer loop
      vertex -0.477833 4.85153 0
      vertex -0.951065 4.78133 1
      vertex -0.477833 4.85153 1
    endloop
  endfacet
  facet normal -0.14673 0.989177 0
    outer loop
      vertex -0.951065 4.78133 1
      vertex -0.477833 4.85153 0
      vertex -0.951065 4.78133 0
    endloop
  endfacet
  facet normal -0.427554 0.90399 0
    outer loop
      vertex -1.86558 4.50391 0
      vertex -2.29806 4.29937 1
      vertex -1.86558 4.50391 1
    endloop
  endfacet
  facet normal -0.427554 0.90399 0
    outer loop
      vertex -2.29806 4.29937 1
      vertex -1.86558 4.50391 0
      vertex -2.29806 4.29937 0
    endloop
  endfacet
  facet normal -0.514102 0.857729 0
    outer loop
      vertex -2.29806 4.29937 0
      vertex -2.7084 4.05341 1
      vertex -2.29806 4.29937 1
    endloop
  endfacet
  facet normal -0.514102 0.857729 0
    outer loop
      vertex -2.7084 4.05341 1
      vertex -2.29806 4.29937 0
      vertex -2.7084 4.05341 0
    endloop
  endfacet
  facet normal -0.671558 0.740952 0
    outer loop
      vertex -3.09267 3.76843 0
      vertex -3.44715 3.44715 1
      vertex -3.09267 3.76843 1
    endloop
  endfacet
  facet normal -0.671558 0.740952 0
    outer loop
      vertex -3.44715 3.44715 1
      vertex -3.09267 3.76843 0
      vertex -3.44715 3.44715 0
    endloop
  endfacet
  facet normal 0.998795 0.0490682 0
    outer loop
      vertex 4.875 0 1
      vertex 4.85153 0.477833 0
      vertex 4.85153 0.477833 1
    endloop
  endfacet
  facet normal 0.998795 0.0490682 0
    outer loop
      vertex 4.85153 0.477833 0
      vertex 4.875 0 1
      vertex 4.875 0 0
    endloop
  endfacet
  facet normal 0.0490682 -0.998795 0
    outer loop
      vertex 0 -4.875 0
      vertex 0.477833 -4.85153 1
      vertex 0 -4.875 1
    endloop
  endfacet
  facet normal 0.0490682 -0.998795 0
    outer loop
      vertex 0.477833 -4.85153 1
      vertex 0 -4.875 0
      vertex 0.477833 -4.85153 0
    endloop
  endfacet
  facet normal 0.14673 -0.989177 0
    outer loop
      vertex 0.477833 -4.85153 0
      vertex 0.951065 -4.78133 1
      vertex 0.477833 -4.85153 1
    endloop
  endfacet
  facet normal 0.14673 -0.989177 0
    outer loop
      vertex 0.951065 -4.78133 1
      vertex 0.477833 -4.85153 0
      vertex 0.951065 -4.78133 0
    endloop
  endfacet
  facet normal 0.427554 -0.90399 0
    outer loop
      vertex 1.86558 -4.50391 0
      vertex 2.29806 -4.29937 1
      vertex 1.86558 -4.50391 1
    endloop
  endfacet
  facet normal 0.427554 -0.90399 0
    outer loop
      vertex 2.29806 -4.29937 1
      vertex 1.86558 -4.50391 0
      vertex 2.29806 -4.29937 0
    endloop
  endfacet
  facet normal 0.5957 -0.803207 0
    outer loop
      vertex 2.7084 -4.05341 0
      vertex 3.09267 -3.76843 1
      vertex 2.7084 -4.05341 1
    endloop
  endfacet
  facet normal 0.5957 -0.803207 0
    outer loop
      vertex 3.09267 -3.76843 1
      vertex 2.7084 -4.05341 0
      vertex 3.09267 -3.76843 0
    endloop
  endfacet
  facet normal -0.242981 -0.970031 0
    outer loop
      vertex -1.41514 -4.66508 0
      vertex -0.951065 -4.78133 1
      vertex -1.41514 -4.66508 1
    endloop
  endfacet
  facet normal -0.242981 -0.970031 -0
    outer loop
      vertex -0.951065 -4.78133 1
      vertex -1.41514 -4.66508 0
      vertex -0.951065 -4.78133 0
    endloop
  endfacet
  facet normal -0.336891 -0.941544 0
    outer loop
      vertex -1.86558 -4.50391 0
      vertex -1.41514 -4.66508 1
      vertex -1.86558 -4.50391 1
    endloop
  endfacet
  facet normal -0.336891 -0.941544 -0
    outer loop
      vertex -1.41514 -4.66508 1
      vertex -1.86558 -4.50391 0
      vertex -1.41514 -4.66508 0
    endloop
  endfacet
  facet normal -0.14673 -0.989177 0
    outer loop
      vertex -0.951065 -4.78133 0
      vertex -0.477833 -4.85153 1
      vertex -0.951065 -4.78133 1
    endloop
  endfacet
  facet normal -0.14673 -0.989177 -0
    outer loop
      vertex -0.477833 -4.85153 1
      vertex -0.951065 -4.78133 0
      vertex -0.477833 -4.85153 0
    endloop
  endfacet
  facet normal -0.427554 -0.90399 0
    outer loop
      vertex -2.29806 -4.29937 0
      vertex -1.86558 -4.50391 1
      vertex -2.29806 -4.29937 1
    endloop
  endfacet
  facet normal -0.427554 -0.90399 -0
    outer loop
      vertex -1.86558 -4.50391 1
      vertex -2.29806 -4.29937 0
      vertex -1.86558 -4.50391 0
    endloop
  endfacet
  facet normal -0.671558 -0.740952 0
    outer loop
      vertex -3.44715 -3.44715 0
      vertex -3.09267 -3.76843 1
      vertex -3.44715 -3.44715 1
    endloop
  endfacet
  facet normal -0.671558 -0.740952 -0
    outer loop
      vertex -3.09267 -3.76843 1
      vertex -3.44715 -3.44715 0
      vertex -3.09267 -3.76843 0
    endloop
  endfacet
  facet normal -0.970031 -0.242981 0
    outer loop
      vertex -4.66508 -1.41514 0
      vertex -4.78133 -0.951065 1
      vertex -4.78133 -0.951065 0
    endloop
  endfacet
  facet normal -0.970031 -0.242981 0
    outer loop
      vertex -4.78133 -0.951065 1
      vertex -4.66508 -1.41514 0
      vertex -4.66508 -1.41514 1
    endloop
  endfacet
  facet normal -0.998795 -0.0490682 0
    outer loop
      vertex -4.85153 -0.477833 0
      vertex -4.875 0 1
      vertex -4.875 0 0
    endloop
  endfacet
  facet normal -0.998795 -0.0490682 0
    outer loop
      vertex -4.875 0 1
      vertex -4.85153 -0.477833 0
      vertex -4.85153 -0.477833 1
    endloop
  endfacet
  facet normal -0.803207 -0.5957 0
    outer loop
      vertex -3.76843 -3.09267 0
      vertex -4.05341 -2.7084 1
      vertex -4.05341 -2.7084 0
    endloop
  endfacet
  facet normal -0.803207 -0.5957 0
    outer loop
      vertex -4.05341 -2.7084 1
      vertex -3.76843 -3.09267 0
      vertex -3.76843 -3.09267 1
    endloop
  endfacet
  facet normal -0.740952 -0.671558 0
    outer loop
      vertex -3.44715 -3.44715 0
      vertex -3.76843 -3.09267 1
      vertex -3.76843 -3.09267 0
    endloop
  endfacet
  facet normal -0.740952 -0.671558 0
    outer loop
      vertex -3.76843 -3.09267 1
      vertex -3.44715 -3.44715 0
      vertex -3.44715 -3.44715 1
    endloop
  endfacet
  facet normal 0 0 1
    outer loop
      vertex 4.125 0 1
      vertex 4.875 0 1
      vertex 4.85153 0.477833 1
    endloop
  endfacet
  facet normal 0 0 1
    outer loop
      vertex 4.10514 0.40432 1
      vertex 4.85153 0.477833 1
      vertex 4.78133 0.951065 1
    endloop
  endfacet
  facet normal 0 0 1
    outer loop
      vertex 4.875 0 1
      vertex 4.125 0 1
      vertex 4.85153 -0.477833 1
    endloop
  endfacet
  facet normal 0 0 1
    outer loop
      vertex 4.04574 0.804747 1
      vertex 4.78133 0.951065 1
      vertex 4.66508 1.41514 1
    endloop
  endfacet
  facet normal -0 0 1
    outer loop
      vertex 4.10514 -0.40432 1
      vertex 4.85153 -0.477833 1
      vertex 4.125 0 1
    endloop
  endfacet
  facet normal 0 0 1
    outer loop
      vertex 3.94738 1.19742 1
      vertex 4.66508 1.41514 1
      vertex 4.50391 1.86558 1
    endloop
  endfacet
  facet normal 0 0 1
    outer loop
      vertex 4.85153 -0.477833 1
      vertex 4.10514 -0.40432 1
      vertex 4.78133 -0.951065 1
    endloop
  endfacet
  facet normal 0 0 1
    outer loop
      vertex 3.811 1.57857 1
      vertex 4.50391 1.86558 1
      vertex 4.29937 2.29806 1
    endloop
  endfacet
  facet normal -0 0 1
    outer loop
      vertex 4.04574 -0.804747 1
      vertex 4.78133 -0.951065 1
      vertex 4.10514 -0.40432 1
    endloop
  endfacet
  facet normal 0 0 1
    outer loop
      vertex 4.78133 -0.951065 1
      vertex 4.04574 -0.804747 1
      vertex 4.66508 -1.41514 1
    endloop
  endfacet
  facet normal 0 0 1
    outer loop
      vertex 4.85153 0.477833 1
      vertex 4.10514 0.40432 1
      vertex 4.125 0 1
    endloop
  endfacet
  facet normal 0 0 1
    outer loop
      vertex 3.63793 1.94451 1
      vertex 4.29937 2.29806 1
      vertex 4.05341 2.7084 1
    endloop
  endfacet
  facet normal 0 0 1
    outer loop
      vertex 4.78133 0.951065 1
      vertex 4.04574 0.804747 1
      vertex 4.10514 0.40432 1
    endloop
  endfacet
  facet normal 0 0 1
    outer loop
      vertex 4.66508 1.41514 1
      vertex 3.94738 1.19742 1
      vertex 4.04574 0.804747 1
    endloop
  endfacet
  facet normal 0 0 1
    outer loop
      vertex 4.50391 1.86558 1
      vertex 3.811 1.57857 1
      vertex 3.94738 1.19742 1
    endloop
  endfacet
  facet normal 0 0 1
    outer loop
      vertex 3.42981 2.29173 1
      vertex 4.05341 2.7084 1
      vertex 3.76843 3.09267 1
    endloop
  endfacet
  facet normal 0 0 1
    outer loop
      vertex 4.29937 2.29806 1
      vertex 3.63793 1.94451 1
      vertex 3.811 1.57857 1
    endloop
  endfacet
  facet normal 0 0 1
    outer loop
      vertex 3.18867 2.61687 1
      vertex 3.76843 3.09267 1
      vertex 3.44715 3.44715 1
    endloop
  endfacet
  facet normal 0 0 1
    outer loop
      vertex 4.05341 2.7084 1
      vertex 3.42981 2.29173 1
      vertex 3.63793 1.94451 1
    endloop
  endfacet
  facet normal 0 0 1
    outer loop
      vertex 3.76843 3.09267 1
      vertex 3.18867 2.61687 1
      vertex 3.42981 2.29173 1
    endloop
  endfacet
  facet normal 0 0 1
    outer loop
      vertex 2.91681 2.91681 1
      vertex 3.44715 3.44715 1
      vertex 3.09267 3.76843 1
    endloop
  endfacet
  facet normal 0 0 1
    outer loop
      vertex 3.44715 3.44715 1
      vertex 2.91681 2.91681 1
      vertex 3.18867 2.61687 1
    endloop
  endfacet
  facet normal 0 0 1
    outer loop
      vertex 2.61687 3.18867 1
      vertex 3.09267 3.76843 1
      vertex 2.7084 4.05341 1
    endloop
  endfacet
  facet normal 0 0 1
    outer loop
      vertex 3.09267 3.76843 1
      vertex 2.61687 3.18867 1
      vertex 2.91681 2.91681 1
    endloop
  endfacet
  facet normal 0 0 1
    outer loop
      vertex 2.29173 3.42981 1
      vertex 2.7084 4.05341 1
      vertex 2.29806 4.29937 1
    endloop
  endfacet
  facet normal 0 0 1
    outer loop
      vertex 2.7084 4.05341 1
      vertex 2.29173 3.42981 1
      vertex 2.61687 3.18867 1
    endloop
  endfacet
  facet normal 0 0 1
    outer loop
      vertex 2.29806 4.29937 1
      vertex 1.94451 3.63793 1
      vertex 2.29173 3.42981 1
    endloop
  endfacet
  facet normal 0 0 1
    outer loop
      vertex 1.86558 4.50391 1
      vertex 1.94451 3.63793 1
      vertex 2.29806 4.29937 1
    endloop
  endfacet
  facet normal 0 0 1
    outer loop
      vertex 1.86558 4.50391 1
      vertex 1.57857 3.811 1
      vertex 1.94451 3.63793 1
    endloop
  endfacet
  facet normal 0 0 1
    outer loop
      vertex 1.41514 4.66508 1
      vertex 1.57857 3.811 1
      vertex 1.86558 4.50391 1
    endloop
  endfacet
  facet normal 0 0 1
    outer loop
      vertex 1.41514 4.66508 1
      vertex 1.19742 3.94738 1
      vertex 1.57857 3.811 1
    endloop
  endfacet
  facet normal 0 0 1
    outer loop
      vertex 0.951065 4.78133 1
      vertex 1.19742 3.94738 1
      vertex 1.41514 4.66508 1
    endloop
  endfacet
  facet normal 0 0 1
    outer loop
      vertex 0.951065 4.78133 1
      vertex 0.804747 4.04574 1
      vertex 1.19742 3.94738 1
    endloop
  endfacet
  facet normal 0 0 1
    outer loop
      vertex 0.477833 4.85153 1
      vertex 0.804747 4.04574 1
      vertex 0.951065 4.78133 1
    endloop
  endfacet
  facet normal 0 0 1
    outer loop
      vertex 0.477833 4.85153 1
      vertex 0.40432 4.10514 1
      vertex 0.804747 4.04574 1
    endloop
  endfacet
  facet normal 0 0 1
    outer loop
      vertex 0 4.875 1
      vertex 0.40432 4.10514 1
      vertex 0.477833 4.85153 1
    endloop
  endfacet
  facet normal 0 0 1
    outer loop
      vertex 0 4.875 1
      vertex 0 4.125 1
      vertex 0.40432 4.10514 1
    endloop
  endfacet
  facet normal 0 0 1
    outer loop
      vertex 0 4.875 1
      vertex -0.40432 4.10514 1
      vertex 0 4.125 1
    endloop
  endfacet
  facet normal -0 0 1
    outer loop
      vertex -0.477833 4.85153 1
      vertex -0.40432 4.10514 1
      vertex 0 4.875 1
    endloop
  endfacet
  facet normal 0 0 1
    outer loop
      vertex -0.477833 4.85153 1
      vertex -0.804747 4.04574 1
      vertex -0.40432 4.10514 1
    endloop
  endfacet
  facet normal -0 0 1
    outer loop
      vertex -0.951065 4.78133 1
      vertex -0.804747 4.04574 1
      vertex -0.477833 4.85153 1
    endloop
  endfacet
  facet normal 0 0 1
    outer loop
      vertex -0.951065 4.78133 1
      vertex -1.19742 3.94738 1
      vertex -0.804747 4.04574 1
    endloop
  endfacet
  facet normal -0 0 1
    outer loop
      vertex -1.41514 4.66508 1
      vertex -1.19742 3.94738 1
      vertex -0.951065 4.78133 1
    endloop
  endfacet
  facet normal 0 0 1
    outer loop
      vertex -1.41514 4.66508 1
      vertex -1.57857 3.811 1
      vertex -1.19742 3.94738 1
    endloop
  endfacet
  facet normal -0 0 1
    outer loop
      vertex -1.86558 4.50391 1
      vertex -1.57857 3.811 1
      vertex -1.41514 4.66508 1
    endloop
  endfacet
  facet normal 0 0 1
    outer loop
      vertex -1.86558 4.50391 1
      vertex -1.94451 3.63793 1
      vertex -1.57857 3.811 1
    endloop
  endfacet
  facet normal -0 0 1
    outer loop
      vertex -2.29806 4.29937 1
      vertex -1.94451 3.63793 1
      vertex -1.86558 4.50391 1
    endloop
  endfacet
  facet normal 0 0 1
    outer loop
      vertex -1.94451 3.63793 1
      vertex -2.29806 4.29937 1
      vertex -2.29173 3.42981 1
    endloop
  endfacet
  facet normal -0 0 1
    outer loop
      vertex -2.7084 4.05341 1
      vertex -2.29173 3.42981 1
      vertex -2.29806 4.29937 1
    endloop
  endfacet
  facet normal 0 0 1
    outer loop
      vertex -2.29173 3.42981 1
      vertex -2.7084 4.05341 1
      vertex -2.61687 3.18867 1
    endloop
  endfacet
  facet normal -0 0 1
    outer loop
      vertex -3.09267 3.76843 1
      vertex -2.61687 3.18867 1
      vertex -2.7084 4.05341 1
    endloop
  endfacet
  facet normal 0 0 1
    outer loop
      vertex -2.61687 3.18867 1
      vertex -3.09267 3.76843 1
      vertex -2.91681 2.91681 1
    endloop
  endfacet
  facet normal -0 0 1
    outer loop
      vertex -3.44715 3.44715 1
      vertex -2.91681 2.91681 1
      vertex -3.09267 3.76843 1
    endloop
  endfacet
  facet normal 0 0 1
    outer loop
      vertex -2.91681 2.91681 1
      vertex -3.44715 3.44715 1
      vertex -3.18867 2.61687 1
    endloop
  endfacet
  facet normal -0 0 1
    outer loop
      vertex -3.76843 3.09267 1
      vertex -3.18867 2.61687 1
      vertex -3.44715 3.44715 1
    endloop
  endfacet
  facet normal 0 0 1
    outer loop
      vertex -3.18867 2.61687 1
      vertex -3.76843 3.09267 1
      vertex -3.42981 2.29173 1
    endloop
  endfacet
  facet normal -0 0 1
    outer loop
      vertex -4.05341 2.7084 1
      vertex -3.42981 2.29173 1
      vertex -3.76843 3.09267 1
    endloop
  endfacet
  facet normal 0 0 1
    outer loop
      vertex -3.42981 2.29173 1
      vertex -4.05341 2.7084 1
      vertex -3.63793 1.94451 1
    endloop
  endfacet
  facet normal -0 0 1
    outer loop
      vertex -4.29937 2.29806 1
      vertex -3.63793 1.94451 1
      vertex -4.05341 2.7084 1
    endloop
  endfacet
  facet normal 0 0 1
    outer loop
      vertex -3.63793 1.94451 1
      vertex -4.29937 2.29806 1
      vertex -3.811 1.57857 1
    endloop
  endfacet
  facet normal -0 0 1
    outer loop
      vertex -4.50391 1.86558 1
      vertex -3.811 1.57857 1
      vertex -4.29937 2.29806 1
    endloop
  endfacet
  facet normal 0 0 1
    outer loop
      vertex -3.811 1.57857 1
      vertex -4.50391 1.86558 1
      vertex -3.94738 1.19742 1
    endloop
  endfacet
  facet normal -0 0 1
    outer loop
      vertex -4.66508 1.41514 1
      vertex -3.94738 1.19742 1
      vertex -4.50391 1.86558 1
    endloop
  endfacet
  facet normal 0 0 1
    outer loop
      vertex -3.94738 1.19742 1
      vertex -4.66508 1.41514 1
      vertex -4.04574 0.804747 1
    endloop
  endfacet
  facet normal -0 0 1
    outer loop
      vertex 3.94738 -1.19742 1
      vertex 4.66508 -1.41514 1
      vertex 4.04574 -0.804747 1
    endloop
  endfacet
  facet normal 0 0 1
    outer loop
      vertex 4.66508 -1.41514 1
      vertex 3.94738 -1.19742 1
      vertex 4.50391 -1.86558 1
    endloop
  endfacet
  facet normal -0 0 1
    outer loop
      vertex 3.811 -1.57857 1
      vertex 4.50391 -1.86558 1
      vertex 3.94738 -1.19742 1
    endloop
  endfacet
  facet normal 0 0 1
    outer loop
      vertex 4.50391 -1.86558 1
      vertex 3.811 -1.57857 1
      vertex 4.29937 -2.29806 1
    endloop
  endfacet
  facet normal -0 0 1
    outer loop
      vertex 3.63793 -1.94451 1
      vertex 4.29937 -2.29806 1
      vertex 3.811 -1.57857 1
    endloop
  endfacet
  facet normal 0 0 1
    outer loop
      vertex 4.29937 -2.29806 1
      vertex 3.63793 -1.94451 1
      vertex 4.05341 -2.7084 1
    endloop
  endfacet
  facet normal -0 0 1
    outer loop
      vertex 3.42981 -2.29173 1
      vertex 4.05341 -2.7084 1
      vertex 3.63793 -1.94451 1
    endloop
  endfacet
  facet normal 0 0 1
    outer loop
      vertex 4.05341 -2.7084 1
      vertex 3.42981 -2.29173 1
      vertex 3.76843 -3.09267 1
    endloop
  endfacet
  facet normal -0 0 1
    outer loop
      vertex 3.18867 -2.61687 1
      vertex 3.76843 -3.09267 1
      vertex 3.42981 -2.29173 1
    endloop
  endfacet
  facet normal 0 0 1
    outer loop
      vertex 3.76843 -3.09267 1
      vertex 3.18867 -2.61687 1
      vertex 3.44715 -3.44715 1
    endloop
  endfacet
  facet normal -0 0 1
    outer loop
      vertex 2.91681 -2.91681 1
      vertex 3.44715 -3.44715 1
      vertex 3.18867 -2.61687 1
    endloop
  endfacet
  facet normal 0 0 1
    outer loop
      vertex 3.44715 -3.44715 1
      vertex 2.91681 -2.91681 1
      vertex 3.09267 -3.76843 1
    endloop
  endfacet
  facet normal -0 0 1
    outer loop
      vertex 2.61687 -3.18867 1
      vertex 3.09267 -3.76843 1
      vertex 2.91681 -2.91681 1
    endloop
  endfacet
  facet normal 0 0 1
    outer loop
      vertex 3.09267 -3.76843 1
      vertex 2.61687 -3.18867 1
      vertex 2.7084 -4.05341 1
    endloop
  endfacet
  facet normal -0 0 1
    outer loop
      vertex 2.29173 -3.42981 1
      vertex 2.7084 -4.05341 1
      vertex 2.61687 -3.18867 1
    endloop
  endfacet
  facet normal 0 0 1
    outer loop
      vertex 2.7084 -4.05341 1
      vertex 2.29173 -3.42981 1
      vertex 2.29806 -4.29937 1
    endloop
  endfacet
  facet normal -0 0 1
    outer loop
      vertex 1.94451 -3.63793 1
      vertex 2.29806 -4.29937 1
      vertex 2.29173 -3.42981 1
    endloop
  endfacet
  facet normal 0 0 1
    outer loop
      vertex 1.94451 -3.63793 1
      vertex 1.86558 -4.50391 1
      vertex 2.29806 -4.29937 1
    endloop
  endfacet
  facet normal -0 0 1
    outer loop
      vertex 1.57857 -3.811 1
      vertex 1.86558 -4.50391 1
      vertex 1.94451 -3.63793 1
    endloop
  endfacet
  facet normal 0 0 1
    outer loop
      vertex 1.57857 -3.811 1
      vertex 1.41514 -4.66508 1
      vertex 1.86558 -4.50391 1
    endloop
  endfacet
  facet normal -0 0 1
    outer loop
      vertex 1.19742 -3.94738 1
      vertex 1.41514 -4.66508 1
      vertex 1.57857 -3.811 1
    endloop
  endfacet
  facet normal 0 0 1
    outer loop
      vertex 1.19742 -3.94738 1
      vertex 0.951065 -4.78133 1
      vertex 1.41514 -4.66508 1
    endloop
  endfacet
  facet normal -0 0 1
    outer loop
      vertex 0.804747 -4.04574 1
      vertex 0.951065 -4.78133 1
      vertex 1.19742 -3.94738 1
    endloop
  endfacet
  facet normal 0 0 1
    outer loop
      vertex 0.804747 -4.04574 1
      vertex 0.477833 -4.85153 1
      vertex 0.951065 -4.78133 1
    endloop
  endfacet
  facet normal -0 0 1
    outer loop
      vertex 0.40432 -4.10514 1
      vertex 0.477833 -4.85153 1
      vertex 0.804747 -4.04574 1
    endloop
  endfacet
  facet normal -0 0 1
    outer loop
      vertex 0 -4.125 1
      vertex 0.477833 -4.85153 1
      vertex 0.40432 -4.10514 1
    endloop
  endfacet
  facet normal 0 0 1
    outer loop
      vertex 0 -4.125 1
      vertex 0 -4.875 1
      vertex 0.477833 -4.85153 1
    endloop
  endfacet
  facet normal 0 0 1
    outer loop
      vertex -0.40432 -4.10514 1
      vertex 0 -4.875 1
      vertex 0 -4.125 1
    endloop
  endfacet
  facet normal 0 0 1
    outer loop
      vertex -0.40432 -4.10514 1
      vertex -0.477833 -4.85153 1
      vertex 0 -4.875 1
    endloop
  endfacet
  facet normal 0 0 1
    outer loop
      vertex -0.804747 -4.04574 1
      vertex -0.477833 -4.85153 1
      vertex -0.40432 -4.10514 1
    endloop
  endfacet
  facet normal 0 0 1
    outer loop
      vertex -0.804747 -4.04574 1
      vertex -0.951065 -4.78133 1
      vertex -0.477833 -4.85153 1
    endloop
  endfacet
  facet normal 0 0 1
    outer loop
      vertex -1.19742 -3.94738 1
      vertex -0.951065 -4.78133 1
      vertex -0.804747 -4.04574 1
    endloop
  endfacet
  facet normal 0 0 1
    outer loop
      vertex -1.19742 -3.94738 1
      vertex -1.41514 -4.66508 1
      vertex -0.951065 -4.78133 1
    endloop
  endfacet
  facet normal 0 0 1
    outer loop
      vertex -1.57857 -3.811 1
      vertex -1.41514 -4.66508 1
      vertex -1.19742 -3.94738 1
    endloop
  endfacet
  facet normal 0 0 1
    outer loop
      vertex -1.57857 -3.811 1
      vertex -1.86558 -4.50391 1
      vertex -1.41514 -4.66508 1
    endloop
  endfacet
  facet normal 0 0 1
    outer loop
      vertex -1.94451 -3.63793 1
      vertex -1.86558 -4.50391 1
      vertex -1.57857 -3.811 1
    endloop
  endfacet
  facet normal 0 0 1
    outer loop
      vertex -2.29806 -4.29937 1
      vertex -1.94451 -3.63793 1
      vertex -2.29173 -3.42981 1
    endloop
  endfacet
  facet normal 0 0 1
    outer loop
      vertex -1.94451 -3.63793 1
      vertex -2.29806 -4.29937 1
      vertex -1.86558 -4.50391 1
    endloop
  endfacet
  facet normal 0 0 1
    outer loop
      vertex -2.7084 -4.05341 1
      vertex -2.29173 -3.42981 1
      vertex -2.61687 -3.18867 1
    endloop
  endfacet
  facet normal 0 0 1
    outer loop
      vertex -2.29173 -3.42981 1
      vertex -2.7084 -4.05341 1
      vertex -2.29806 -4.29937 1
    endloop
  endfacet
  facet normal 0 0 1
    outer loop
      vertex -3.09267 -3.76843 1
      vertex -2.61687 -3.18867 1
      vertex -2.91681 -2.91681 1
    endloop
  endfacet
  facet normal 0 0 1
    outer loop
      vertex -2.61687 -3.18867 1
      vertex -3.09267 -3.76843 1
      vertex -2.7084 -4.05341 1
    endloop
  endfacet
  facet normal 0 0 1
    outer loop
      vertex -3.44715 -3.44715 1
      vertex -2.91681 -2.91681 1
      vertex -3.18867 -2.61687 1
    endloop
  endfacet
  facet normal 0 0 1
    outer loop
      vertex -3.76843 -3.09267 1
      vertex -3.18867 -2.61687 1
      vertex -3.42981 -2.29173 1
    endloop
  endfacet
  facet normal 0 0 1
    outer loop
      vertex -2.91681 -2.91681 1
      vertex -3.44715 -3.44715 1
      vertex -3.09267 -3.76843 1
    endloop
  endfacet
  facet normal 0 0 1
    outer loop
      vertex -4.05341 -2.7084 1
      vertex -3.42981 -2.29173 1
      vertex -3.63793 -1.94451 1
    endloop
  endfacet
  facet normal 0 0 1
    outer loop
      vertex -3.18867 -2.61687 1
      vertex -3.76843 -3.09267 1
      vertex -3.44715 -3.44715 1
    endloop
  endfacet
  facet normal 0 0 1
    outer loop
      vertex -4.29937 -2.29806 1
      vertex -3.63793 -1.94451 1
      vertex -3.811 -1.57857 1
    endloop
  endfacet
  facet normal 0 0 1
    outer loop
      vertex -4.50391 -1.86558 1
      vertex -3.811 -1.57857 1
      vertex -3.94738 -1.19742 1
    endloop
  endfacet
  facet normal 0 0 1
    outer loop
      vertex -4.66508 -1.41514 1
      vertex -3.94738 -1.19742 1
      vertex -4.04574 -0.804747 1
    endloop
  endfacet
  facet normal 0 0 1
    outer loop
      vertex -3.42981 -2.29173 1
      vertex -4.05341 -2.7084 1
      vertex -3.76843 -3.09267 1
    endloop
  endfacet
  facet normal 0 0 1
    outer loop
      vertex -4.78133 -0.951065 1
      vertex -4.04574 -0.804747 1
      vertex -4.10514 -0.40432 1
    endloop
  endfacet
  facet normal 0 0 1
    outer loop
      vertex -4.85153 -0.477833 1
      vertex -4.10514 -0.40432 1
      vertex -4.125 0 1
    endloop
  endfacet
  facet normal -0 0 1
    outer loop
      vertex -4.78133 0.951065 1
      vertex -4.04574 0.804747 1
      vertex -4.66508 1.41514 1
    endloop
  endfacet
  facet normal 0 0 1
    outer loop
      vertex -3.63793 -1.94451 1
      vertex -4.29937 -2.29806 1
      vertex -4.05341 -2.7084 1
    endloop
  endfacet
  facet normal 0 0 1
    outer loop
      vertex -4.04574 0.804747 1
      vertex -4.78133 0.951065 1
      vertex -4.10514 0.40432 1
    endloop
  endfacet
  facet normal 0 0 1
    outer loop
      vertex -3.811 -1.57857 1
      vertex -4.50391 -1.86558 1
      vertex -4.29937 -2.29806 1
    endloop
  endfacet
  facet normal -0 0 1
    outer loop
      vertex -4.85153 0.477833 1
      vertex -4.10514 0.40432 1
      vertex -4.78133 0.951065 1
    endloop
  endfacet
  facet normal 0 0 1
    outer loop
      vertex -3.94738 -1.19742 1
      vertex -4.66508 -1.41514 1
      vertex -4.50391 -1.86558 1
    endloop
  endfacet
  facet normal 0 0 1
    outer loop
      vertex -4.10514 0.40432 1
      vertex -4.85153 0.477833 1
      vertex -4.125 0 1
    endloop
  endfacet
  facet normal 0 0 1
    outer loop
      vertex -4.04574 -0.804747 1
      vertex -4.78133 -0.951065 1
      vertex -4.66508 -1.41514 1
    endloop
  endfacet
  facet normal 0 0 1
    outer loop
      vertex -4.875 0 1
      vertex -4.125 0 1
      vertex -4.85153 0.477833 1
    endloop
  endfacet
  facet normal 0 0 1
    outer loop
      vertex -4.10514 -0.40432 1
      vertex -4.85153 -0.477833 1
      vertex -4.78133 -0.951065 1
    endloop
  endfacet
  facet normal 0 0 1
    outer loop
      vertex -4.125 0 1
      vertex -4.875 0 1
      vertex -4.85153 -0.477833 1
    endloop
  endfacet
  facet normal -0.941544 0.336891 0
    outer loop
      vertex -4.66508 1.41514 0
      vertex -4.50391 1.86558 1
      vertex -4.50391 1.86558 0
    endloop
  endfacet
  facet normal -0.941544 0.336891 0
    outer loop
      vertex -4.50391 1.86558 1
      vertex -4.66508 1.41514 0
      vertex -4.66508 1.41514 1
    endloop
  endfacet
  facet normal 0.989177 -0.14673 0
    outer loop
      vertex 4.78133 -0.951065 1
      vertex 4.85153 -0.477833 0
      vertex 4.85153 -0.477833 1
    endloop
  endfacet
  facet normal 0.989177 -0.14673 0
    outer loop
      vertex 4.85153 -0.477833 0
      vertex 4.78133 -0.951065 1
      vertex 4.78133 -0.951065 0
    endloop
  endfacet
  facet normal 0.998795 -0.0490682 0
    outer loop
      vertex 4.85153 -0.477833 1
      vertex 4.875 0 0
      vertex 4.875 0 1
    endloop
  endfacet
  facet normal 0.998795 -0.0490682 0
    outer loop
      vertex 4.875 0 0
      vertex 4.85153 -0.477833 1
      vertex 4.85153 -0.477833 0
    endloop
  endfacet
  facet normal 0.740952 -0.671558 0
    outer loop
      vertex 3.44715 -3.44715 1
      vertex 3.76843 -3.09267 0
      vertex 3.76843 -3.09267 1
    endloop
  endfacet
  facet normal 0.740952 -0.671558 0
    outer loop
      vertex 3.76843 -3.09267 0
      vertex 3.44715 -3.44715 1
      vertex 3.44715 -3.44715 0
    endloop
  endfacet
  facet normal 0.336891 -0.941544 0
    outer loop
      vertex 1.41514 -4.66508 0
      vertex 1.86558 -4.50391 1
      vertex 1.41514 -4.66508 1
    endloop
  endfacet
  facet normal 0.336891 -0.941544 0
    outer loop
      vertex 1.86558 -4.50391 1
      vertex 1.41514 -4.66508 0
      vertex 1.86558 -4.50391 0
    endloop
  endfacet
  facet normal 0.514102 -0.857729 0
    outer loop
      vertex 2.29806 -4.29937 0
      vertex 2.7084 -4.05341 1
      vertex 2.29806 -4.29937 1
    endloop
  endfacet
  facet normal 0.514102 -0.857729 0
    outer loop
      vertex 2.7084 -4.05341 1
      vertex 2.29806 -4.29937 0
      vertex 2.7084 -4.05341 0
    endloop
  endfacet
  facet normal -0.989177 -0.14673 0
    outer loop
      vertex -4.78133 -0.951065 0
      vertex -4.85153 -0.477833 1
      vertex -4.85153 -0.477833 0
    endloop
  endfacet
  facet normal -0.989177 -0.14673 0
    outer loop
      vertex -4.85153 -0.477833 1
      vertex -4.78133 -0.951065 0
      vertex -4.78133 -0.951065 1
    endloop
  endfacet
  facet normal -0.941544 -0.336891 0
    outer loop
      vertex -4.50391 -1.86558 0
      vertex -4.66508 -1.41514 1
      vertex -4.66508 -1.41514 0
    endloop
  endfacet
  facet normal -0.941544 -0.336891 0
    outer loop
      vertex -4.66508 -1.41514 1
      vertex -4.50391 -1.86558 0
      vertex -4.50391 -1.86558 1
    endloop
  endfacet
  facet normal -0.857729 -0.514102 0
    outer loop
      vertex -4.05341 -2.7084 0
      vertex -4.29937 -2.29806 1
      vertex -4.29937 -2.29806 0
    endloop
  endfacet
  facet normal -0.857729 -0.514102 0
    outer loop
      vertex -4.29937 -2.29806 1
      vertex -4.05341 -2.7084 0
      vertex -4.05341 -2.7084 1
    endloop
  endfacet
  facet normal 0.857729 -0.514102 0
    outer loop
      vertex 4.05341 -2.7084 1
      vertex 4.29937 -2.29806 0
      vertex 4.29937 -2.29806 1
    endloop
  endfacet
  facet normal 0.857729 -0.514102 0
    outer loop
      vertex 4.29937 -2.29806 0
      vertex 4.05341 -2.7084 1
      vertex 4.05341 -2.7084 0
    endloop
  endfacet
  facet normal 0.941544 -0.336891 0
    outer loop
      vertex 4.50391 -1.86558 1
      vertex 4.66508 -1.41514 0
      vertex 4.66508 -1.41514 1
    endloop
  endfacet
  facet normal 0.941544 -0.336891 0
    outer loop
      vertex 4.66508 -1.41514 0
      vertex 4.50391 -1.86558 1
      vertex 4.50391 -1.86558 0
    endloop
  endfacet
  facet normal 0.90399 -0.427554 0
    outer loop
      vertex 4.29937 -2.29806 1
      vertex 4.50391 -1.86558 0
      vertex 4.50391 -1.86558 1
    endloop
  endfacet
  facet normal 0.90399 -0.427554 0
    outer loop
      vertex 4.50391 -1.86558 0
      vertex 4.29937 -2.29806 1
      vertex 4.29937 -2.29806 0
    endloop
  endfacet
  facet normal 0.803207 -0.5957 0
    outer loop
      vertex 3.76843 -3.09267 1
      vertex 4.05341 -2.7084 0
      vertex 4.05341 -2.7084 1
    endloop
  endfacet
  facet normal 0.803207 -0.5957 0
    outer loop
      vertex 4.05341 -2.7084 0
      vertex 3.76843 -3.09267 1
      vertex 3.76843 -3.09267 0
    endloop
  endfacet
  facet normal 1 -0 0
    outer loop
      vertex -1 -1.5 3
      vertex -1 1.5 0
      vertex -1 1.5 3
    endloop
  endfacet
  facet normal 1 0 0
    outer loop
      vertex -1 1.5 0
      vertex -1 -1.5 3
      vertex -1 -1.5 0
    endloop
  endfacet
  facet normal 0 0 -1
    outer loop
      vertex -1 -1.5 3
      vertex 1 1.5 3
      vertex 1 -1.5 3
    endloop
  endfacet
  facet normal -0 0 -1
    outer loop
      vertex 1 1.5 3
      vertex -1 -1.5 3
      vertex -1 1.5 3
    endloop
  endfacet
  facet normal -1 0 0
    outer loop
      vertex 1 -1.5 0
      vertex 1 1.5 3
      vertex 1 1.5 0
    endloop
  endfacet
  facet normal -1 -0 0
    outer loop
      vertex 1 1.5 3
      vertex 1 -1.5 0
      vertex 1 -1.5 3
    endloop
  endfacet
  facet normal 0 1 -0
    outer loop
      vertex 1 -1.5 0
      vertex -1 -1.5 3
      vertex 1 -1.5 3
    endloop
  endfacet
  facet normal 0 1 0
    outer loop
      vertex -1 -1.5 3
      vertex 1 -1.5 0
      vertex -1 -1.5 0
    endloop
  endfacet
  facet normal 0 -1 0
    outer loop
      vertex -1 1.5 0
      vertex 1 1.5 3
      vertex -1 1.5 3
    endloop
  endfacet
  facet normal 0 -1 -0
    outer loop
      vertex 1 1.5 3
      vertex -1 1.5 0
      vertex 1 1.5 0
    endloop
  endfacet
endsolid OpenSCAD_Model
