solid OpenSCAD_Model
  facet normal 0.97003 0.242984 0
    outer loop
      vertex 3.80054 0.755975 1.5
      vertex 3.70814 1.12485 0
      vertex 3.70814 1.12485 1.5
    endloop
  endfacet
  facet normal 0.97003 0.242984 0
    outer loop
      vertex 3.70814 1.12485 0
      vertex 3.80054 0.755975 1.5
      vertex 3.80054 0.755975 0
    endloop
  endfacet
  facet normal 0.998795 0.0490699 0
    outer loop
      vertex 3.875 0 1.5
      vertex 3.85634 0.379816 0
      vertex 3.85634 0.379816 1.5
    endloop
  endfacet
  facet normal 0.998795 0.0490699 0
    outer loop
      vertex 3.85634 0.379816 0
      vertex 3.875 0 1.5
      vertex 3.875 0 0
    endloop
  endfacet
  facet normal -0.998795 0.0490699 0
    outer loop
      vertex -3.875 0 0
      vertex -3.85634 0.379816 1.5
      vertex -3.85634 0.379816 0
    endloop
  endfacet
  facet normal -0.998795 0.0490699 0
    outer loop
      vertex -3.85634 0.379816 1.5
      vertex -3.875 0 0
      vertex -3.875 0 1.5
    endloop
  endfacet
  facet normal 0.0490699 0.998795 -0
    outer loop
      vertex 0.379816 3.85634 0
      vertex 0 3.875 1.5
      vertex 0.379816 3.85634 1.5
    endloop
  endfacet
  facet normal 0.0490699 0.998795 0
    outer loop
      vertex 0 3.875 1.5
      vertex 0.379816 3.85634 0
      vertex 0 3.875 0
    endloop
  endfacet
  facet normal 0.671542 0.740966 -0
    outer loop
      vertex 2.74004 2.74004 0
      vertex 2.45827 2.99541 1.5
      vertex 2.74004 2.74004 1.5
    endloop
  endfacet
  facet normal 0.671542 0.740966 0
    outer loop
      vertex 2.45827 2.99541 1.5
      vertex 2.74004 2.74004 0
      vertex 2.45827 2.99541 0
    endloop
  endfacet
  facet normal -0.671542 0.740966 0
    outer loop
      vertex -2.45827 2.99541 0
      vertex -2.74004 2.74004 1.5
      vertex -2.45827 2.99541 1.5
    endloop
  endfacet
  facet normal -0.671542 0.740966 0
    outer loop
      vertex -2.74004 2.74004 1.5
      vertex -2.45827 2.99541 0
      vertex -2.74004 2.74004 0
    endloop
  endfacet
  facet normal -0.336884 0.941546 0
    outer loop
      vertex -1.12485 3.70814 0
      vertex -1.4829 3.58003 1.5
      vertex -1.12485 3.70814 1.5
    endloop
  endfacet
  facet normal -0.336884 0.941546 0
    outer loop
      vertex -1.4829 3.58003 1.5
      vertex -1.12485 3.70814 0
      vertex -1.4829 3.58003 0
    endloop
  endfacet
  facet normal -0.803207 -0.5957 0
    outer loop
      vertex -2.99541 -2.45827 0
      vertex -3.22194 -2.15283 1.5
      vertex -3.22194 -2.15283 0
    endloop
  endfacet
  facet normal -0.803207 -0.5957 0
    outer loop
      vertex -3.22194 -2.15283 1.5
      vertex -2.99541 -2.45827 0
      vertex -2.99541 -2.45827 1.5
    endloop
  endfacet
  facet normal 0.941546 0.336884 0
    outer loop
      vertex 3.70814 1.12485 1.5
      vertex 3.58003 1.4829 0
      vertex 3.58003 1.4829 1.5
    endloop
  endfacet
  facet normal 0.941546 0.336884 0
    outer loop
      vertex 3.58003 1.4829 0
      vertex 3.70814 1.12485 1.5
      vertex 3.70814 1.12485 0
    endloop
  endfacet
  facet normal 0.336884 0.941546 -0
    outer loop
      vertex 1.4829 3.58003 0
      vertex 1.12485 3.70814 1.5
      vertex 1.4829 3.58003 1.5
    endloop
  endfacet
  facet normal 0.336884 0.941546 0
    outer loop
      vertex 1.12485 3.70814 1.5
      vertex 1.4829 3.58003 0
      vertex 1.12485 3.70814 0
    endloop
  endfacet
  facet normal 0.242984 0.97003 -0
    outer loop
      vertex 1.12485 3.70814 0
      vertex 0.755975 3.80054 1.5
      vertex 1.12485 3.70814 1.5
    endloop
  endfacet
  facet normal 0.242984 0.97003 0
    outer loop
      vertex 0.755975 3.80054 1.5
      vertex 1.12485 3.70814 0
      vertex 0.755975 3.80054 0
    endloop
  endfacet
  facet normal -0.857727 0.514105 0
    outer loop
      vertex -3.41744 1.82666 0
      vertex -3.22194 2.15283 1.5
      vertex -3.22194 2.15283 0
    endloop
  endfacet
  facet normal -0.857727 0.514105 0
    outer loop
      vertex -3.22194 2.15283 1.5
      vertex -3.41744 1.82666 0
      vertex -3.41744 1.82666 1.5
    endloop
  endfacet
  facet normal -0.803207 0.5957 0
    outer loop
      vertex -3.22194 2.15283 0
      vertex -2.99541 2.45827 1.5
      vertex -2.99541 2.45827 0
    endloop
  endfacet
  facet normal -0.803207 0.5957 0
    outer loop
      vertex -2.99541 2.45827 1.5
      vertex -3.22194 2.15283 0
      vertex -3.22194 2.15283 1.5
    endloop
  endfacet
  facet normal 0.903986 -0.427563 0
    outer loop
      vertex 3.41744 -1.82666 1.5
      vertex 3.58003 -1.4829 0
      vertex 3.58003 -1.4829 1.5
    endloop
  endfacet
  facet normal 0.903986 -0.427563 0
    outer loop
      vertex 3.58003 -1.4829 0
      vertex 3.41744 -1.82666 1.5
      vertex 3.41744 -1.82666 0
    endloop
  endfacet
  facet normal 0.242984 -0.97003 0
    outer loop
      vertex 0.755975 -3.80054 0
      vertex 1.12485 -3.70814 1.5
      vertex 0.755975 -3.80054 1.5
    endloop
  endfacet
  facet normal 0.242984 -0.97003 0
    outer loop
      vertex 1.12485 -3.70814 1.5
      vertex 0.755975 -3.80054 0
      vertex 1.12485 -3.70814 0
    endloop
  endfacet
  facet normal 0.740966 -0.671542 0
    outer loop
      vertex 2.74004 -2.74004 1.5
      vertex 2.99541 -2.45827 0
      vertex 2.99541 -2.45827 1.5
    endloop
  endfacet
  facet normal 0.740966 -0.671542 0
    outer loop
      vertex 2.99541 -2.45827 0
      vertex 2.74004 -2.74004 1.5
      vertex 2.74004 -2.74004 0
    endloop
  endfacet
  facet normal 0.97003 -0.242984 0
    outer loop
      vertex 3.70814 -1.12485 1.5
      vertex 3.80054 -0.755975 0
      vertex 3.80054 -0.755975 1.5
    endloop
  endfacet
  facet normal 0.97003 -0.242984 0
    outer loop
      vertex 3.80054 -0.755975 0
      vertex 3.70814 -1.12485 1.5
      vertex 3.70814 -1.12485 0
    endloop
  endfacet
  facet normal -0.336884 -0.941546 0
    outer loop
      vertex -1.4829 -3.58003 0
      vertex -1.12485 -3.70814 1.5
      vertex -1.4829 -3.58003 1.5
    endloop
  endfacet
  facet normal -0.336884 -0.941546 -0
    outer loop
      vertex -1.12485 -3.70814 1.5
      vertex -1.4829 -3.58003 0
      vertex -1.12485 -3.70814 0
    endloop
  endfacet
  facet normal -0.514105 -0.857727 0
    outer loop
      vertex -2.15283 -3.22194 0
      vertex -1.82666 -3.41744 1.5
      vertex -2.15283 -3.22194 1.5
    endloop
  endfacet
  facet normal -0.514105 -0.857727 -0
    outer loop
      vertex -1.82666 -3.41744 1.5
      vertex -2.15283 -3.22194 0
      vertex -1.82666 -3.41744 0
    endloop
  endfacet
  facet normal 0.989176 0.146736 0
    outer loop
      vertex 3.85634 0.379816 1.5
      vertex 3.80054 0.755975 0
      vertex 3.80054 0.755975 1.5
    endloop
  endfacet
  facet normal 0.989176 0.146736 0
    outer loop
      vertex 3.80054 0.755975 0
      vertex 3.85634 0.379816 1.5
      vertex 3.85634 0.379816 0
    endloop
  endfacet
  facet normal 0.903986 0.427563 0
    outer loop
      vertex 3.58003 1.4829 1.5
      vertex 3.41744 1.82666 0
      vertex 3.41744 1.82666 1.5
    endloop
  endfacet
  facet normal 0.903986 0.427563 0
    outer loop
      vertex 3.41744 1.82666 0
      vertex 3.58003 1.4829 1.5
      vertex 3.58003 1.4829 0
    endloop
  endfacet
  facet normal 0.857727 0.514105 0
    outer loop
      vertex 3.41744 1.82666 1.5
      vertex 3.22194 2.15283 0
      vertex 3.22194 2.15283 1.5
    endloop
  endfacet
  facet normal 0.857727 0.514105 0
    outer loop
      vertex 3.22194 2.15283 0
      vertex 3.41744 1.82666 1.5
      vertex 3.41744 1.82666 0
    endloop
  endfacet
  facet normal 0.803207 0.5957 0
    outer loop
      vertex 3.22194 2.15283 1.5
      vertex 2.99541 2.45827 0
      vertex 2.99541 2.45827 1.5
    endloop
  endfacet
  facet normal 0.803207 0.5957 0
    outer loop
      vertex 2.99541 2.45827 0
      vertex 3.22194 2.15283 1.5
      vertex 3.22194 2.15283 0
    endloop
  endfacet
  facet normal 0.5957 0.803207 -0
    outer loop
      vertex 2.45827 2.99541 0
      vertex 2.15283 3.22194 1.5
      vertex 2.45827 2.99541 1.5
    endloop
  endfacet
  facet normal 0.5957 0.803207 0
    outer loop
      vertex 2.15283 3.22194 1.5
      vertex 2.45827 2.99541 0
      vertex 2.15283 3.22194 0
    endloop
  endfacet
  facet normal 0.514105 0.857727 -0
    outer loop
      vertex 2.15283 3.22194 0
      vertex 1.82666 3.41744 1.5
      vertex 2.15283 3.22194 1.5
    endloop
  endfacet
  facet normal 0.514105 0.857727 0
    outer loop
      vertex 1.82666 3.41744 1.5
      vertex 2.15283 3.22194 0
      vertex 1.82666 3.41744 0
    endloop
  endfacet
  facet normal -0.903986 0.427563 0
    outer loop
      vertex -3.58003 1.4829 0
      vertex -3.41744 1.82666 1.5
      vertex -3.41744 1.82666 0
    endloop
  endfacet
  facet normal -0.903986 0.427563 0
    outer loop
      vertex -3.41744 1.82666 1.5
      vertex -3.58003 1.4829 0
      vertex -3.58003 1.4829 1.5
    endloop
  endfacet
  facet normal -0.97003 0.242984 0
    outer loop
      vertex -3.80054 0.755975 0
      vertex -3.70814 1.12485 1.5
      vertex -3.70814 1.12485 0
    endloop
  endfacet
  facet normal -0.97003 0.242984 0
    outer loop
      vertex -3.70814 1.12485 1.5
      vertex -3.80054 0.755975 0
      vertex -3.80054 0.755975 1.5
    endloop
  endfacet
  facet normal -0.514105 0.857727 0
    outer loop
      vertex -1.82666 3.41744 0
      vertex -2.15283 3.22194 1.5
      vertex -1.82666 3.41744 1.5
    endloop
  endfacet
  facet normal -0.514105 0.857727 0
    outer loop
      vertex -2.15283 3.22194 1.5
      vertex -1.82666 3.41744 0
      vertex -2.15283 3.22194 0
    endloop
  endfacet
  facet normal -0.0490699 0.998795 0
    outer loop
      vertex 0 3.875 0
      vertex -0.379816 3.85634 1.5
      vertex 0 3.875 1.5
    endloop
  endfacet
  facet normal -0.0490699 0.998795 0
    outer loop
      vertex -0.379816 3.85634 1.5
      vertex 0 3.875 0
      vertex -0.379816 3.85634 0
    endloop
  endfacet
  facet normal -0.146736 0.989176 0
    outer loop
      vertex -0.379816 3.85634 0
      vertex -0.755975 3.80054 1.5
      vertex -0.379816 3.85634 1.5
    endloop
  endfacet
  facet normal -0.146736 0.989176 0
    outer loop
      vertex -0.755975 3.80054 1.5
      vertex -0.379816 3.85634 0
      vertex -0.755975 3.80054 0
    endloop
  endfacet
  facet normal 0.0490699 -0.998795 0
    outer loop
      vertex 0 -3.875 0
      vertex 0.379816 -3.85634 1.5
      vertex 0 -3.875 1.5
    endloop
  endfacet
  facet normal 0.0490699 -0.998795 0
    outer loop
      vertex 0.379816 -3.85634 1.5
      vertex 0 -3.875 0
      vertex 0.379816 -3.85634 0
    endloop
  endfacet
  facet normal 0.146736 -0.989176 0
    outer loop
      vertex 0.379816 -3.85634 0
      vertex 0.755975 -3.80054 1.5
      vertex 0.379816 -3.85634 1.5
    endloop
  endfacet
  facet normal 0.146736 -0.989176 0
    outer loop
      vertex 0.755975 -3.80054 1.5
      vertex 0.379816 -3.85634 0
      vertex 0.755975 -3.80054 0
    endloop
  endfacet
  facet normal 0.514105 -0.857727 0
    outer loop
      vertex 1.82666 -3.41744 0
      vertex 2.15283 -3.22194 1.5
      vertex 1.82666 -3.41744 1.5
    endloop
  endfacet
  facet normal 0.514105 -0.857727 0
    outer loop
      vertex 2.15283 -3.22194 1.5
      vertex 1.82666 -3.41744 0
      vertex 2.15283 -3.22194 0
    endloop
  endfacet
  facet normal 0.671542 -0.740966 0
    outer loop
      vertex 2.45827 -2.99541 0
      vertex 2.74004 -2.74004 1.5
      vertex 2.45827 -2.99541 1.5
    endloop
  endfacet
  facet normal 0.671542 -0.740966 0
    outer loop
      vertex 2.74004 -2.74004 1.5
      vertex 2.45827 -2.99541 0
      vertex 2.74004 -2.74004 0
    endloop
  endfacet
  facet normal 0.5957 -0.803207 0
    outer loop
      vertex 2.15283 -3.22194 0
      vertex 2.45827 -2.99541 1.5
      vertex 2.15283 -3.22194 1.5
    endloop
  endfacet
  facet normal 0.5957 -0.803207 0
    outer loop
      vertex 2.45827 -2.99541 1.5
      vertex 2.15283 -3.22194 0
      vertex 2.45827 -2.99541 0
    endloop
  endfacet
  facet normal 0.803207 -0.5957 0
    outer loop
      vertex 2.99541 -2.45827 1.5
      vertex 3.22194 -2.15283 0
      vertex 3.22194 -2.15283 1.5
    endloop
  endfacet
  facet normal 0.803207 -0.5957 0
    outer loop
      vertex 3.22194 -2.15283 0
      vertex 2.99541 -2.45827 1.5
      vertex 2.99541 -2.45827 0
    endloop
  endfacet
  facet normal 0.857727 -0.514105 0
    outer loop
      vertex 3.22194 -2.15283 1.5
      vertex 3.41744 -1.82666 0
      vertex 3.41744 -1.82666 1.5
    endloop
  endfacet
  facet normal 0.857727 -0.514105 0
    outer loop
      vertex 3.41744 -1.82666 0
      vertex 3.22194 -2.15283 1.5
      vertex 3.22194 -2.15283 0
    endloop
  endfacet
  facet normal -0.146736 -0.989176 0
    outer loop
      vertex -0.755975 -3.80054 0
      vertex -0.379816 -3.85634 1.5
      vertex -0.755975 -3.80054 1.5
    endloop
  endfacet
  facet normal -0.146736 -0.989176 -0
    outer loop
      vertex -0.379816 -3.85634 1.5
      vertex -0.755975 -3.80054 0
      vertex -0.379816 -3.85634 0
    endloop
  endfacet
  facet normal -0.671542 -0.740966 0
    outer loop
      vertex -2.74004 -2.74004 0
      vertex -2.45827 -2.99541 1.5
      vertex -2.74004 -2.74004 1.5
    endloop
  endfacet
  facet normal -0.671542 -0.740966 -0
    outer loop
      vertex -2.45827 -2.99541 1.5
      vertex -2.74004 -2.74004 0
      vertex -2.45827 -2.99541 0
    endloop
  endfacet
  facet normal -0.0490699 -0.998795 0
    outer loop
      vertex -0.379816 -3.85634 0
      vertex 0 -3.875 1.5
      vertex -0.379816 -3.85634 1.5
    endloop
  endfacet
  facet normal -0.0490699 -0.998795 -0
    outer loop
      vertex 0 -3.875 1.5
      vertex -0.379816 -3.85634 0
      vertex 0 -3.875 0
    endloop
  endfacet
  facet normal -0.5957 -0.803207 0
    outer loop
      vertex -2.45827 -2.99541 0
      vertex -2.15283 -3.22194 1.5
      vertex -2.45827 -2.99541 1.5
    endloop
  endfacet
  facet normal -0.5957 -0.803207 -0
    outer loop
      vertex -2.15283 -3.22194 1.5
      vertex -2.45827 -2.99541 0
      vertex -2.15283 -3.22194 0
    endloop
  endfacet
  facet normal -0.740966 -0.671542 0
    outer loop
      vertex -2.74004 -2.74004 0
      vertex -2.99541 -2.45827 1.5
      vertex -2.99541 -2.45827 0
    endloop
  endfacet
  facet normal -0.740966 -0.671542 0
    outer loop
      vertex -2.99541 -2.45827 1.5
      vertex -2.74004 -2.74004 0
      vertex -2.74004 -2.74004 1.5
    endloop
  endfacet
  facet normal -0.903986 -0.427563 0
    outer loop
      vertex -3.41744 -1.82666 0
      vertex -3.58003 -1.4829 1.5
      vertex -3.58003 -1.4829 0
    endloop
  endfacet
  facet normal -0.903986 -0.427563 0
    outer loop
      vertex -3.58003 -1.4829 1.5
      vertex -3.41744 -1.82666 0
      vertex -3.41744 -1.82666 1.5
    endloop
  endfacet
  facet normal -0.97003 -0.242984 0
    outer loop
      vertex -3.70814 -1.12485 0
      vertex -3.80054 -0.755975 1.5
      vertex -3.80054 -0.755975 0
    endloop
  endfacet
  facet normal -0.97003 -0.242984 0
    outer loop
      vertex -3.80054 -0.755975 1.5
      vertex -3.70814 -1.12485 0
      vertex -3.70814 -1.12485 1.5
    endloop
  endfacet
  facet normal -0.998795 -0.0490699 0
    outer loop
      vertex -3.85634 -0.379816 0
      vertex -3.875 0 1.5
      vertex -3.875 0 0
    endloop
  endfacet
  facet normal -0.998795 -0.0490699 0
    outer loop
      vertex -3.875 0 1.5
      vertex -3.85634 -0.379816 0
      vertex -3.85634 -0.379816 1.5
    endloop
  endfacet
  facet normal 0 0 1
    outer loop
      vertex 7 6 0
      vertex 3.875 0 0
      vertex 7 -6 0
    endloop
  endfacet
  facet normal 0 0 1
    outer loop
      vertex 7 6 0
      vertex 3.85634 0.379816 0
      vertex 3.875 0 0
    endloop
  endfacet
  facet normal 0 0 1
    outer loop
      vertex 7 6 0
      vertex 3.80054 0.755975 0
      vertex 3.85634 0.379816 0
    endloop
  endfacet
  facet normal 0 0 1
    outer loop
      vertex 7 6 0
      vertex 3.70814 1.12485 0
      vertex 3.80054 0.755975 0
    endloop
  endfacet
  facet normal 0 0 1
    outer loop
      vertex 7 6 0
      vertex 3.58003 1.4829 0
      vertex 3.70814 1.12485 0
    endloop
  endfacet
  facet normal 0 0 1
    outer loop
      vertex 7 6 0
      vertex 3.41744 1.82666 0
      vertex 3.58003 1.4829 0
    endloop
  endfacet
  facet normal 0 0 1
    outer loop
      vertex 7 6 0
      vertex 3.22194 2.15283 0
      vertex 3.41744 1.82666 0
    endloop
  endfacet
  facet normal 0 0 1
    outer loop
      vertex 7 6 0
      vertex 2.99541 2.45827 0
      vertex 3.22194 2.15283 0
    endloop
  endfacet
  facet normal 0 0 1
    outer loop
      vertex 7 6 0
      vertex 2.74004 2.74004 0
      vertex 2.99541 2.45827 0
    endloop
  endfacet
  facet normal 0 0 1
    outer loop
      vertex 7 6 0
      vertex 2.45827 2.99541 0
      vertex 2.74004 2.74004 0
    endloop
  endfacet
  facet normal 0 0 1
    outer loop
      vertex 7 6 0
      vertex 2.15283 3.22194 0
      vertex 2.45827 2.99541 0
    endloop
  endfacet
  facet normal 0 0 1
    outer loop
      vertex 7 6 0
      vertex 1.82666 3.41744 0
      vertex 2.15283 3.22194 0
    endloop
  endfacet
  facet normal 0 0 1
    outer loop
      vertex 7 6 0
      vertex 1.4829 3.58003 0
      vertex 1.82666 3.41744 0
    endloop
  endfacet
  facet normal 0 0 1
    outer loop
      vertex 7 6 0
      vertex 1.12485 3.70814 0
      vertex 1.4829 3.58003 0
    endloop
  endfacet
  facet normal 0 0 1
    outer loop
      vertex 7 6 0
      vertex 0.755975 3.80054 0
      vertex 1.12485 3.70814 0
    endloop
  endfacet
  facet normal 0 0 1
    outer loop
      vertex 7 6 0
      vertex 0.379816 3.85634 0
      vertex 0.755975 3.80054 0
    endloop
  endfacet
  facet normal -0 0 1
    outer loop
      vertex -5 6 0
      vertex 0.379816 3.85634 0
      vertex 7 6 0
    endloop
  endfacet
  facet normal 0 0 1
    outer loop
      vertex 0.379816 3.85634 0
      vertex -5 6 0
      vertex 0 3.875 0
    endloop
  endfacet
  facet normal 0 0 1
    outer loop
      vertex 0 3.875 0
      vertex -5 6 0
      vertex -0.379816 3.85634 0
    endloop
  endfacet
  facet normal 0 0 1
    outer loop
      vertex -0.379816 3.85634 0
      vertex -5 6 0
      vertex -0.755975 3.80054 0
    endloop
  endfacet
  facet normal 0 0 1
    outer loop
      vertex -3.85634 0.379816 0
      vertex -5 6 0
      vertex -3.875 0 0
    endloop
  endfacet
  facet normal 0 0 1
    outer loop
      vertex -3.80054 0.755975 0
      vertex -5 6 0
      vertex -3.85634 0.379816 0
    endloop
  endfacet
  facet normal 0 0 1
    outer loop
      vertex -3.70814 1.12485 0
      vertex -5 6 0
      vertex -3.80054 0.755975 0
    endloop
  endfacet
  facet normal 0 0 1
    outer loop
      vertex -3.58003 1.4829 0
      vertex -5 6 0
      vertex -3.70814 1.12485 0
    endloop
  endfacet
  facet normal 0 0 1
    outer loop
      vertex -3.41744 1.82666 0
      vertex -5 6 0
      vertex -3.58003 1.4829 0
    endloop
  endfacet
  facet normal 0 0 1
    outer loop
      vertex -3.22194 2.15283 0
      vertex -5 6 0
      vertex -3.41744 1.82666 0
    endloop
  endfacet
  facet normal 0 0 1
    outer loop
      vertex -2.99541 2.45827 0
      vertex -5 6 0
      vertex -3.22194 2.15283 0
    endloop
  endfacet
  facet normal 0 0 1
    outer loop
      vertex -2.74004 2.74004 0
      vertex -5 6 0
      vertex -2.99541 2.45827 0
    endloop
  endfacet
  facet normal 0 0 1
    outer loop
      vertex -2.45827 2.99541 0
      vertex -5 6 0
      vertex -2.74004 2.74004 0
    endloop
  endfacet
  facet normal 0 0 1
    outer loop
      vertex -2.15283 3.22194 0
      vertex -5 6 0
      vertex -2.45827 2.99541 0
    endloop
  endfacet
  facet normal 0 0 1
    outer loop
      vertex -1.82666 3.41744 0
      vertex -5 6 0
      vertex -2.15283 3.22194 0
    endloop
  endfacet
  facet normal 0 0 1
    outer loop
      vertex -1.4829 3.58003 0
      vertex -5 6 0
      vertex -1.82666 3.41744 0
    endloop
  endfacet
  facet normal 0 0 1
    outer loop
      vertex -1.12485 3.70814 0
      vertex -5 6 0
      vertex -1.4829 3.58003 0
    endloop
  endfacet
  facet normal 0 0 1
    outer loop
      vertex -0.755975 3.80054 0
      vertex -5 6 0
      vertex -1.12485 3.70814 0
    endloop
  endfacet
  facet normal -0 0 1
    outer loop
      vertex 3.85634 -0.379816 0
      vertex 7 -6 0
      vertex 3.875 0 0
    endloop
  endfacet
  facet normal -0 0 1
    outer loop
      vertex 3.80054 -0.755975 0
      vertex 7 -6 0
      vertex 3.85634 -0.379816 0
    endloop
  endfacet
  facet normal -0 0 1
    outer loop
      vertex 3.70814 -1.12485 0
      vertex 7 -6 0
      vertex 3.80054 -0.755975 0
    endloop
  endfacet
  facet normal -0 0 1
    outer loop
      vertex 3.58003 -1.4829 0
      vertex 7 -6 0
      vertex 3.70814 -1.12485 0
    endloop
  endfacet
  facet normal -0 0 1
    outer loop
      vertex 3.41744 -1.82666 0
      vertex 7 -6 0
      vertex 3.58003 -1.4829 0
    endloop
  endfacet
  facet normal -0 0 1
    outer loop
      vertex 3.22194 -2.15283 0
      vertex 7 -6 0
      vertex 3.41744 -1.82666 0
    endloop
  endfacet
  facet normal -0 0 1
    outer loop
      vertex 2.99541 -2.45827 0
      vertex 7 -6 0
      vertex 3.22194 -2.15283 0
    endloop
  endfacet
  facet normal -0 0 1
    outer loop
      vertex 2.74004 -2.74004 0
      vertex 7 -6 0
      vertex 2.99541 -2.45827 0
    endloop
  endfacet
  facet normal -0 0 1
    outer loop
      vertex 2.45827 -2.99541 0
      vertex 7 -6 0
      vertex 2.74004 -2.74004 0
    endloop
  endfacet
  facet normal -0 0 1
    outer loop
      vertex 2.15283 -3.22194 0
      vertex 7 -6 0
      vertex 2.45827 -2.99541 0
    endloop
  endfacet
  facet normal -0 0 1
    outer loop
      vertex 1.82666 -3.41744 0
      vertex 7 -6 0
      vertex 2.15283 -3.22194 0
    endloop
  endfacet
  facet normal -0 0 1
    outer loop
      vertex 1.4829 -3.58003 0
      vertex 7 -6 0
      vertex 1.82666 -3.41744 0
    endloop
  endfacet
  facet normal -0 0 1
    outer loop
      vertex 1.12485 -3.70814 0
      vertex 7 -6 0
      vertex 1.4829 -3.58003 0
    endloop
  endfacet
  facet normal -0 0 1
    outer loop
      vertex 0.755975 -3.80054 0
      vertex 7 -6 0
      vertex 1.12485 -3.70814 0
    endloop
  endfacet
  facet normal -0 0 1
    outer loop
      vertex 0.379816 -3.85634 0
      vertex 7 -6 0
      vertex 0.755975 -3.80054 0
    endloop
  endfacet
  facet normal 0 0 1
    outer loop
      vertex -5 -6 0
      vertex 0.379816 -3.85634 0
      vertex 0 -3.875 0
    endloop
  endfacet
  facet normal 0 0 1
    outer loop
      vertex -5 -6 0
      vertex 0 -3.875 0
      vertex -0.379816 -3.85634 0
    endloop
  endfacet
  facet normal 0 0 1
    outer loop
      vertex -5 -6 0
      vertex -0.379816 -3.85634 0
      vertex -0.755975 -3.80054 0
    endloop
  endfacet
  facet normal 0 0 1
    outer loop
      vertex -5 -6 0
      vertex -0.755975 -3.80054 0
      vertex -1.12485 -3.70814 0
    endloop
  endfacet
  facet normal 0 0 1
    outer loop
      vertex -5 -6 0
      vertex -3.875 0 0
      vertex -5 6 0
    endloop
  endfacet
  facet normal 0 0 1
    outer loop
      vertex -3.875 0 0
      vertex -5 -6 0
      vertex -3.85634 -0.379816 0
    endloop
  endfacet
  facet normal 0 0 1
    outer loop
      vertex 0.379816 -3.85634 0
      vertex -5 -6 0
      vertex 7 -6 0
    endloop
  endfacet
  facet normal 0 0 1
    outer loop
      vertex -1.4829 -3.58003 0
      vertex -5 -6 0
      vertex -1.12485 -3.70814 0
    endloop
  endfacet
  facet normal 0 0 1
    outer loop
      vertex -1.82666 -3.41744 0
      vertex -5 -6 0
      vertex -1.4829 -3.58003 0
    endloop
  endfacet
  facet normal 0 0 1
    outer loop
      vertex -2.15283 -3.22194 0
      vertex -5 -6 0
      vertex -1.82666 -3.41744 0
    endloop
  endfacet
  facet normal 0 0 1
    outer loop
      vertex -2.45827 -2.99541 0
      vertex -5 -6 0
      vertex -2.15283 -3.22194 0
    endloop
  endfacet
  facet normal 0 0 1
    outer loop
      vertex -2.74004 -2.74004 0
      vertex -5 -6 0
      vertex -2.45827 -2.99541 0
    endloop
  endfacet
  facet normal 0 0 1
    outer loop
      vertex -2.99541 -2.45827 0
      vertex -5 -6 0
      vertex -2.74004 -2.74004 0
    endloop
  endfacet
  facet normal 0 0 1
    outer loop
      vertex -3.22194 -2.15283 0
      vertex -5 -6 0
      vertex -2.99541 -2.45827 0
    endloop
  endfacet
  facet normal 0 0 1
    outer loop
      vertex -3.41744 -1.82666 0
      vertex -5 -6 0
      vertex -3.22194 -2.15283 0
    endloop
  endfacet
  facet normal 0 0 1
    outer loop
      vertex -3.58003 -1.4829 0
      vertex -5 -6 0
      vertex -3.41744 -1.82666 0
    endloop
  endfacet
  facet normal 0 0 1
    outer loop
      vertex -3.70814 -1.12485 0
      vertex -5 -6 0
      vertex -3.58003 -1.4829 0
    endloop
  endfacet
  facet normal 0 0 1
    outer loop
      vertex -3.80054 -0.755975 0
      vertex -5 -6 0
      vertex -3.70814 -1.12485 0
    endloop
  endfacet
  facet normal 0 0 1
    outer loop
      vertex -3.85634 -0.379816 0
      vertex -5 -6 0
      vertex -3.80054 -0.755975 0
    endloop
  endfacet
  facet normal -0.941546 -0.336884 0
    outer loop
      vertex -3.58003 -1.4829 0
      vertex -3.70814 -1.12485 1.5
      vertex -3.70814 -1.12485 0
    endloop
  endfacet
  facet normal -0.941546 -0.336884 0
    outer loop
      vertex -3.70814 -1.12485 1.5
      vertex -3.58003 -1.4829 0
      vertex -3.58003 -1.4829 1.5
    endloop
  endfacet
  facet normal 0.740966 0.671542 0
    outer loop
      vertex 2.99541 2.45827 1.5
      vertex 2.74004 2.74004 0
      vertex 2.74004 2.74004 1.5
    endloop
  endfacet
  facet normal 0.740966 0.671542 0
    outer loop
      vertex 2.74004 2.74004 0
      vertex 2.99541 2.45827 1.5
      vertex 2.99541 2.45827 0
    endloop
  endfacet
  facet normal 0.146736 0.989176 -0
    outer loop
      vertex 0.755975 3.80054 0
      vertex 0.379816 3.85634 1.5
      vertex 0.755975 3.80054 1.5
    endloop
  endfacet
  facet normal 0.146736 0.989176 0
    outer loop
      vertex 0.379816 3.85634 1.5
      vertex 0.755975 3.80054 0
      vertex 0.379816 3.85634 0
    endloop
  endfacet
  facet normal 0.427563 0.903986 -0
    outer loop
      vertex 1.82666 3.41744 0
      vertex 1.4829 3.58003 1.5
      vertex 1.82666 3.41744 1.5
    endloop
  endfacet
  facet normal 0.427563 0.903986 0
    outer loop
      vertex 1.4829 3.58003 1.5
      vertex 1.82666 3.41744 0
      vertex 1.4829 3.58003 0
    endloop
  endfacet
  facet normal -0.740966 0.671542 0
    outer loop
      vertex -2.99541 2.45827 0
      vertex -2.74004 2.74004 1.5
      vertex -2.74004 2.74004 0
    endloop
  endfacet
  facet normal -0.740966 0.671542 0
    outer loop
      vertex -2.74004 2.74004 1.5
      vertex -2.99541 2.45827 0
      vertex -2.99541 2.45827 1.5
    endloop
  endfacet
  facet normal 0 0 1
    outer loop
      vertex 3.85634 0.379816 1.5
      vertex 3.85634 -0.379816 1.5
      vertex 3.875 0 1.5
    endloop
  endfacet
  facet normal 0 0 1
    outer loop
      vertex 3.80054 0.755975 1.5
      vertex 3.85634 -0.379816 1.5
      vertex 3.85634 0.379816 1.5
    endloop
  endfacet
  facet normal 0 0 1
    outer loop
      vertex 3.80054 0.755975 1.5
      vertex 3.80054 -0.755975 1.5
      vertex 3.85634 -0.379816 1.5
    endloop
  endfacet
  facet normal 0 0 1
    outer loop
      vertex 3.70814 1.12485 1.5
      vertex 3.80054 -0.755975 1.5
      vertex 3.80054 0.755975 1.5
    endloop
  endfacet
  facet normal 0 0 1
    outer loop
      vertex 3.70814 1.12485 1.5
      vertex 3.70814 -1.12485 1.5
      vertex 3.80054 -0.755975 1.5
    endloop
  endfacet
  facet normal 0 0 1
    outer loop
      vertex 3.58003 1.4829 1.5
      vertex 3.70814 -1.12485 1.5
      vertex 3.70814 1.12485 1.5
    endloop
  endfacet
  facet normal 0 0 1
    outer loop
      vertex 3.58003 1.4829 1.5
      vertex 3.58003 -1.4829 1.5
      vertex 3.70814 -1.12485 1.5
    endloop
  endfacet
  facet normal 0 0 1
    outer loop
      vertex 3.41744 1.82666 1.5
      vertex 3.58003 -1.4829 1.5
      vertex 3.58003 1.4829 1.5
    endloop
  endfacet
  facet normal 0 0 1
    outer loop
      vertex 3.41744 1.82666 1.5
      vertex 3.41744 -1.82666 1.5
      vertex 3.58003 -1.4829 1.5
    endloop
  endfacet
  facet normal 0 0 1
    outer loop
      vertex 3.22194 2.15283 1.5
      vertex 3.41744 -1.82666 1.5
      vertex 3.41744 1.82666 1.5
    endloop
  endfacet
  facet normal 0 0 1
    outer loop
      vertex 3.22194 2.15283 1.5
      vertex 3.22194 -2.15283 1.5
      vertex 3.41744 -1.82666 1.5
    endloop
  endfacet
  facet normal 0 0 1
    outer loop
      vertex 2.99541 2.45827 1.5
      vertex 3.22194 -2.15283 1.5
      vertex 3.22194 2.15283 1.5
    endloop
  endfacet
  facet normal 0 0 1
    outer loop
      vertex 2.99541 2.45827 1.5
      vertex 2.99541 -2.45827 1.5
      vertex 3.22194 -2.15283 1.5
    endloop
  endfacet
  facet normal 0 0 1
    outer loop
      vertex 2.74004 2.74004 1.5
      vertex 2.99541 -2.45827 1.5
      vertex 2.99541 2.45827 1.5
    endloop
  endfacet
  facet normal 0 0 1
    outer loop
      vertex 2.74004 2.74004 1.5
      vertex 2.74004 -2.74004 1.5
      vertex 2.99541 -2.45827 1.5
    endloop
  endfacet
  facet normal 0 0 1
    outer loop
      vertex 2.45827 2.99541 1.5
      vertex 2.74004 -2.74004 1.5
      vertex 2.74004 2.74004 1.5
    endloop
  endfacet
  facet normal 0 0 1
    outer loop
      vertex 2.45827 2.99541 1.5
      vertex 2.45827 -2.99541 1.5
      vertex 2.74004 -2.74004 1.5
    endloop
  endfacet
  facet normal 0 0 1
    outer loop
      vertex 2.15283 3.22194 1.5
      vertex 2.45827 -2.99541 1.5
      vertex 2.45827 2.99541 1.5
    endloop
  endfacet
  facet normal 0 0 1
    outer loop
      vertex 2.15283 3.22194 1.5
      vertex 2.15283 -3.22194 1.5
      vertex 2.45827 -2.99541 1.5
    endloop
  endfacet
  facet normal 0 0 1
    outer loop
      vertex 1.82666 3.41744 1.5
      vertex 2.15283 -3.22194 1.5
      vertex 2.15283 3.22194 1.5
    endloop
  endfacet
  facet normal 0 0 1
    outer loop
      vertex 1.82666 3.41744 1.5
      vertex 1.82666 -3.41744 1.5
      vertex 2.15283 -3.22194 1.5
    endloop
  endfacet
  facet normal 0 0 1
    outer loop
      vertex 1.4829 3.58003 1.5
      vertex 1.82666 -3.41744 1.5
      vertex 1.82666 3.41744 1.5
    endloop
  endfacet
  facet normal 0 0 1
    outer loop
      vertex 1.4829 3.58003 1.5
      vertex 1.4829 -3.58003 1.5
      vertex 1.82666 -3.41744 1.5
    endloop
  endfacet
  facet normal 0 0 1
    outer loop
      vertex 1.12485 3.70814 1.5
      vertex 1.4829 -3.58003 1.5
      vertex 1.4829 3.58003 1.5
    endloop
  endfacet
  facet normal 0 0 1
    outer loop
      vertex 1.12485 3.70814 1.5
      vertex 1.12485 -3.70814 1.5
      vertex 1.4829 -3.58003 1.5
    endloop
  endfacet
  facet normal 0 0 1
    outer loop
      vertex 0.755975 3.80054 1.5
      vertex 1.12485 -3.70814 1.5
      vertex 1.12485 3.70814 1.5
    endloop
  endfacet
  facet normal 0 0 1
    outer loop
      vertex 0.755975 3.80054 1.5
      vertex 0.755975 -3.80054 1.5
      vertex 1.12485 -3.70814 1.5
    endloop
  endfacet
  facet normal 0 0 1
    outer loop
      vertex 0.379816 3.85634 1.5
      vertex 0.755975 -3.80054 1.5
      vertex 0.755975 3.80054 1.5
    endloop
  endfacet
  facet normal 0 0 1
    outer loop
      vertex 0.379816 3.85634 1.5
      vertex 0.379816 -3.85634 1.5
      vertex 0.755975 -3.80054 1.5
    endloop
  endfacet
  facet normal 0 0 1
    outer loop
      vertex 0 3.875 1.5
      vertex 0.379816 -3.85634 1.5
      vertex 0.379816 3.85634 1.5
    endloop
  endfacet
  facet normal 0 0 1
    outer loop
      vertex 0 3.875 1.5
      vertex 0 -3.875 1.5
      vertex 0.379816 -3.85634 1.5
    endloop
  endfacet
  facet normal -0 0 1
    outer loop
      vertex -0.379816 3.85634 1.5
      vertex 0 -3.875 1.5
      vertex 0 3.875 1.5
    endloop
  endfacet
  facet normal 0 0 1
    outer loop
      vertex -0.379816 3.85634 1.5
      vertex -0.379816 -3.85634 1.5
      vertex 0 -3.875 1.5
    endloop
  endfacet
  facet normal -0 0 1
    outer loop
      vertex -0.755975 3.80054 1.5
      vertex -0.379816 -3.85634 1.5
      vertex -0.379816 3.85634 1.5
    endloop
  endfacet
  facet normal 0 0 1
    outer loop
      vertex -0.755975 3.80054 1.5
      vertex -0.755975 -3.80054 1.5
      vertex -0.379816 -3.85634 1.5
    endloop
  endfacet
  facet normal -0 0 1
    outer loop
      vertex -1.12485 3.70814 1.5
      vertex -0.755975 -3.80054 1.5
      vertex -0.755975 3.80054 1.5
    endloop
  endfacet
  facet normal 0 0 1
    outer loop
      vertex -1.12485 3.70814 1.5
      vertex -1.12485 -3.70814 1.5
      vertex -0.755975 -3.80054 1.5
    endloop
  endfacet
  facet normal -0 0 1
    outer loop
      vertex -1.4829 3.58003 1.5
      vertex -1.12485 -3.70814 1.5
      vertex -1.12485 3.70814 1.5
    endloop
  endfacet
  facet normal 0 0 1
    outer loop
      vertex -1.4829 3.58003 1.5
      vertex -1.4829 -3.58003 1.5
      vertex -1.12485 -3.70814 1.5
    endloop
  endfacet
  facet normal -0 0 1
    outer loop
      vertex -1.82666 3.41744 1.5
      vertex -1.4829 -3.58003 1.5
      vertex -1.4829 3.58003 1.5
    endloop
  endfacet
  facet normal 0 0 1
    outer loop
      vertex -1.82666 3.41744 1.5
      vertex -1.82666 -3.41744 1.5
      vertex -1.4829 -3.58003 1.5
    endloop
  endfacet
  facet normal -0 0 1
    outer loop
      vertex -2.15283 3.22194 1.5
      vertex -1.82666 -3.41744 1.5
      vertex -1.82666 3.41744 1.5
    endloop
  endfacet
  facet normal 0 0 1
    outer loop
      vertex -2.15283 3.22194 1.5
      vertex -2.15283 -3.22194 1.5
      vertex -1.82666 -3.41744 1.5
    endloop
  endfacet
  facet normal -0 0 1
    outer loop
      vertex -2.45827 2.99541 1.5
      vertex -2.15283 -3.22194 1.5
      vertex -2.15283 3.22194 1.5
    endloop
  endfacet
  facet normal 0 0 1
    outer loop
      vertex -2.45827 2.99541 1.5
      vertex -2.45827 -2.99541 1.5
      vertex -2.15283 -3.22194 1.5
    endloop
  endfacet
  facet normal -0 0 1
    outer loop
      vertex -2.74004 2.74004 1.5
      vertex -2.45827 -2.99541 1.5
      vertex -2.45827 2.99541 1.5
    endloop
  endfacet
  facet normal 0 0 1
    outer loop
      vertex -2.74004 2.74004 1.5
      vertex -2.74004 -2.74004 1.5
      vertex -2.45827 -2.99541 1.5
    endloop
  endfacet
  facet normal -0 0 1
    outer loop
      vertex -2.99541 2.45827 1.5
      vertex -2.74004 -2.74004 1.5
      vertex -2.74004 2.74004 1.5
    endloop
  endfacet
  facet normal 0 0 1
    outer loop
      vertex -2.99541 2.45827 1.5
      vertex -2.99541 -2.45827 1.5
      vertex -2.74004 -2.74004 1.5
    endloop
  endfacet
  facet normal -0 0 1
    outer loop
      vertex -3.22194 2.15283 1.5
      vertex -2.99541 -2.45827 1.5
      vertex -2.99541 2.45827 1.5
    endloop
  endfacet
  facet normal 0 0 1
    outer loop
      vertex -3.22194 2.15283 1.5
      vertex -3.22194 -2.15283 1.5
      vertex -2.99541 -2.45827 1.5
    endloop
  endfacet
  facet normal -0 0 1
    outer loop
      vertex -3.41744 1.82666 1.5
      vertex -3.22194 -2.15283 1.5
      vertex -3.22194 2.15283 1.5
    endloop
  endfacet
  facet normal 0 0 1
    outer loop
      vertex -3.41744 1.82666 1.5
      vertex -3.41744 -1.82666 1.5
      vertex -3.22194 -2.15283 1.5
    endloop
  endfacet
  facet normal -0 0 1
    outer loop
      vertex -3.58003 1.4829 1.5
      vertex -3.41744 -1.82666 1.5
      vertex -3.41744 1.82666 1.5
    endloop
  endfacet
  facet normal 0 0 1
    outer loop
      vertex -3.58003 1.4829 1.5
      vertex -3.58003 -1.4829 1.5
      vertex -3.41744 -1.82666 1.5
    endloop
  endfacet
  facet normal -0 0 1
    outer loop
      vertex -3.70814 1.12485 1.5
      vertex -3.58003 -1.4829 1.5
      vertex -3.58003 1.4829 1.5
    endloop
  endfacet
  facet normal 0 0 1
    outer loop
      vertex -3.70814 1.12485 1.5
      vertex -3.70814 -1.12485 1.5
      vertex -3.58003 -1.4829 1.5
    endloop
  endfacet
  facet normal -0 0 1
    outer loop
      vertex -3.80054 0.755975 1.5
      vertex -3.70814 -1.12485 1.5
      vertex -3.70814 1.12485 1.5
    endloop
  endfacet
  facet normal 0 0 1
    outer loop
      vertex -3.80054 0.755975 1.5
      vertex -3.80054 -0.755975 1.5
      vertex -3.70814 -1.12485 1.5
    endloop
  endfacet
  facet normal -0 0 1
    outer loop
      vertex -3.85634 0.379816 1.5
      vertex -3.80054 -0.755975 1.5
      vertex -3.80054 0.755975 1.5
    endloop
  endfacet
  facet normal 0 0 1
    outer loop
      vertex -3.85634 0.379816 1.5
      vertex -3.85634 -0.379816 1.5
      vertex -3.80054 -0.755975 1.5
    endloop
  endfacet
  facet normal 0 -0 1
    outer loop
      vertex -3.85634 -0.379816 1.5
      vertex -3.85634 0.379816 1.5
      vertex -3.875 0 1.5
    endloop
  endfacet
  facet normal -0.989176 0.146736 0
    outer loop
      vertex -3.85634 0.379816 0
      vertex -3.80054 0.755975 1.5
      vertex -3.80054 0.755975 0
    endloop
  endfacet
  facet normal -0.989176 0.146736 0
    outer loop
      vertex -3.80054 0.755975 1.5
      vertex -3.85634 0.379816 0
      vertex -3.85634 0.379816 1.5
    endloop
  endfacet
  facet normal -0.941546 0.336884 0
    outer loop
      vertex -3.70814 1.12485 0
      vertex -3.58003 1.4829 1.5
      vertex -3.58003 1.4829 0
    endloop
  endfacet
  facet normal -0.941546 0.336884 0
    outer loop
      vertex -3.58003 1.4829 1.5
      vertex -3.70814 1.12485 0
      vertex -3.70814 1.12485 1.5
    endloop
  endfacet
  facet normal -0.5957 0.803207 0
    outer loop
      vertex -2.15283 3.22194 0
      vertex -2.45827 2.99541 1.5
      vertex -2.15283 3.22194 1.5
    endloop
  endfacet
  facet normal -0.5957 0.803207 0
    outer loop
      vertex -2.45827 2.99541 1.5
      vertex -2.15283 3.22194 0
      vertex -2.45827 2.99541 0
    endloop
  endfacet
  facet normal -0.427563 0.903986 0
    outer loop
      vertex -1.4829 3.58003 0
      vertex -1.82666 3.41744 1.5
      vertex -1.4829 3.58003 1.5
    endloop
  endfacet
  facet normal -0.427563 0.903986 0
    outer loop
      vertex -1.82666 3.41744 1.5
      vertex -1.4829 3.58003 0
      vertex -1.82666 3.41744 0
    endloop
  endfacet
  facet normal -0.242984 0.97003 0
    outer loop
      vertex -0.755975 3.80054 0
      vertex -1.12485 3.70814 1.5
      vertex -0.755975 3.80054 1.5
    endloop
  endfacet
  facet normal -0.242984 0.97003 0
    outer loop
      vertex -1.12485 3.70814 1.5
      vertex -0.755975 3.80054 0
      vertex -1.12485 3.70814 0
    endloop
  endfacet
  facet normal 0.427563 -0.903986 0
    outer loop
      vertex 1.4829 -3.58003 0
      vertex 1.82666 -3.41744 1.5
      vertex 1.4829 -3.58003 1.5
    endloop
  endfacet
  facet normal 0.427563 -0.903986 0
    outer loop
      vertex 1.82666 -3.41744 1.5
      vertex 1.4829 -3.58003 0
      vertex 1.82666 -3.41744 0
    endloop
  endfacet
  facet normal 0.941546 -0.336884 0
    outer loop
      vertex 3.58003 -1.4829 1.5
      vertex 3.70814 -1.12485 0
      vertex 3.70814 -1.12485 1.5
    endloop
  endfacet
  facet normal 0.941546 -0.336884 0
    outer loop
      vertex 3.70814 -1.12485 0
      vertex 3.58003 -1.4829 1.5
      vertex 3.58003 -1.4829 0
    endloop
  endfacet
  facet normal 0.989176 -0.146736 0
    outer loop
      vertex 3.80054 -0.755975 1.5
      vertex 3.85634 -0.379816 0
      vertex 3.85634 -0.379816 1.5
    endloop
  endfacet
  facet normal 0.989176 -0.146736 0
    outer loop
      vertex 3.85634 -0.379816 0
      vertex 3.80054 -0.755975 1.5
      vertex 3.80054 -0.755975 0
    endloop
  endfacet
  facet normal 0.998795 -0.0490699 0
    outer loop
      vertex 3.85634 -0.379816 1.5
      vertex 3.875 0 0
      vertex 3.875 0 1.5
    endloop
  endfacet
  facet normal 0.998795 -0.0490699 0
    outer loop
      vertex 3.875 0 0
      vertex 3.85634 -0.379816 1.5
      vertex 3.85634 -0.379816 0
    endloop
  endfacet
  facet normal -0.242984 -0.97003 0
    outer loop
      vertex -1.12485 -3.70814 0
      vertex -0.755975 -3.80054 1.5
      vertex -1.12485 -3.70814 1.5
    endloop
  endfacet
  facet normal -0.242984 -0.97003 -0
    outer loop
      vertex -0.755975 -3.80054 1.5
      vertex -1.12485 -3.70814 0
      vertex -0.755975 -3.80054 0
    endloop
  endfacet
  facet normal -0.427563 -0.903986 0
    outer loop
      vertex -1.82666 -3.41744 0
      vertex -1.4829 -3.58003 1.5
      vertex -1.82666 -3.41744 1.5
    endloop
  endfacet
  facet normal -0.427563 -0.903986 -0
    outer loop
      vertex -1.4829 -3.58003 1.5
      vertex -1.82666 -3.41744 0
      vertex -1.4829 -3.58003 0
    endloop
  endfacet
  facet normal -0.857727 -0.514105 0
    outer loop
      vertex -3.22194 -2.15283 0
      vertex -3.41744 -1.82666 1.5
      vertex -3.41744 -1.82666 0
    endloop
  endfacet
  facet normal -0.857727 -0.514105 0
    outer loop
      vertex -3.41744 -1.82666 1.5
      vertex -3.22194 -2.15283 0
      vertex -3.22194 -2.15283 1.5
    endloop
  endfacet
  facet normal -0.989176 -0.146736 0
    outer loop
      vertex -3.80054 -0.755975 0
      vertex -3.85634 -0.379816 1.5
      vertex -3.85634 -0.379816 0
    endloop
  endfacet
  facet normal -0.989176 -0.146736 0
    outer loop
      vertex -3.85634 -0.379816 1.5
      vertex -3.80054 -0.755975 0
      vertex -3.80054 -0.755975 1.5
    endloop
  endfacet
  facet normal 0.336884 -0.941546 0
    outer loop
      vertex 1.12485 -3.70814 0
      vertex 1.4829 -3.58003 1.5
      vertex 1.12485 -3.70814 1.5
    endloop
  endfacet
  facet normal 0.336884 -0.941546 0
    outer loop
      vertex 1.4829 -3.58003 1.5
      vertex 1.12485 -3.70814 0
      vertex 1.4829 -3.58003 0
    endloop
  endfacet
  facet normal -1 0 0
    outer loop
      vertex -5 -6 -1
      vertex -5 6 0
      vertex -5 6 -1
    endloop
  endfacet
  facet normal -1 -0 0
    outer loop
      vertex -5 6 0
      vertex -5 -6 -1
      vertex -5 -6 0
    endloop
  endfacet
  facet normal 1 -0 0
    outer loop
      vertex 7 -6 0
      vertex 7 6 -1
      vertex 7 6 0
    endloop
  endfacet
  facet normal 1 0 0
    outer loop
      vertex 7 6 -1
      vertex 7 -6 0
      vertex 7 -6 -1
    endloop
  endfacet
  facet normal 0 1 -0
    outer loop
      vertex 7 6 -1
      vertex -5 6 0
      vertex 7 6 0
    endloop
  endfacet
  facet normal 0 1 0
    outer loop
      vertex -5 6 0
      vertex 7 6 -1
      vertex -5 6 -1
    endloop
  endfacet
  facet normal 0 0 -1
    outer loop
      vertex -5 -6 -1
      vertex 7 6 -1
      vertex 7 -6 -1
    endloop
  endfacet
  facet normal -0 0 -1
    outer loop
      vertex 7 6 -1
      vertex -5 -6 -1
      vertex -5 6 -1
    endloop
  endfacet
  facet normal 0 -1 0
    outer loop
      vertex -5 -6 -1
      vertex 7 -6 0
      vertex -5 -6 0
    endloop
  endfacet
  facet normal 0 -1 -0
    outer loop
      vertex 7 -6 0
      vertex -5 -6 -1
      vertex 7 -6 -1
    endloop
  endfacet
endsolid OpenSCAD_Model
