solid OpenSCAD_Model
  facet normal -1 0 0
    outer loop
      vertex -2 0 0
      vertex -2 29.5 1
      vertex -2 29.5 0
    endloop
  endfacet
  facet normal -1 -0 0
    outer loop
      vertex -2 29.5 1
      vertex -2 0 0
      vertex -2 0 1
    endloop
  endfacet
  facet normal -0 0 1
    outer loop
      vertex 33 29.5 1
      vertex 35 0 1
      vertex 35 29.5 1
    endloop
  endfacet
  facet normal 0 0 1
    outer loop
      vertex 35 0 1
      vertex 33 29.5 1
      vertex 33 0 1
    endloop
  endfacet
  facet normal -0 0 1
    outer loop
      vertex -2 29.5 1
      vertex 0 0 1
      vertex 0 29.5 1
    endloop
  endfacet
  facet normal 0 0 1
    outer loop
      vertex 0 0 1
      vertex -2 29.5 1
      vertex -2 0 1
    endloop
  endfacet
  facet normal 1 -0 0
    outer loop
      vertex 35 0 1
      vertex 35 29.5 0
      vertex 35 29.5 1
    endloop
  endfacet
  facet normal 1 0 0
    outer loop
      vertex 35 29.5 0
      vertex 35 0 1
      vertex 35 0 0
    endloop
  endfacet
  facet normal 0 1 -0
    outer loop
      vertex 35 29.5 0
      vertex 33 29.5 1
      vertex 35 29.5 1
    endloop
  endfacet
  facet normal 0 1 0
    outer loop
      vertex 33 29.5 1
      vertex 35 29.5 0
      vertex 0 29.5 1
    endloop
  endfacet
  facet normal 0 1 0
    outer loop
      vertex -2 29.5 0
      vertex 0 29.5 1
      vertex 35 29.5 0
    endloop
  endfacet
  facet normal 0 1 0
    outer loop
      vertex 0 29.5 1
      vertex -2 29.5 0
      vertex -2 29.5 1
    endloop
  endfacet
  facet normal 0 1 -0
    outer loop
      vertex 33 29.5 1
      vertex 0 29.5 2
      vertex 33 29.5 2
    endloop
  endfacet
  facet normal 0 1 0
    outer loop
      vertex 0 29.5 2
      vertex 33 29.5 1
      vertex 0 29.5 1
    endloop
  endfacet
  facet normal 0 0 -1
    outer loop
      vertex 3 21.25 0
      vertex 9 22.75 0
      vertex 9 21.25 0
    endloop
  endfacet
  facet normal -0 0 -1
    outer loop
      vertex 9 22.75 0
      vertex 3 21.25 0
      vertex 3 22.75 0
    endloop
  endfacet
  facet normal 0 0 -1
    outer loop
      vertex 3 14.5 0
      vertex 9 16 0
      vertex 9 14.5 0
    endloop
  endfacet
  facet normal -0 0 -1
    outer loop
      vertex 9 16 0
      vertex 3 14.5 0
      vertex 3 16 0
    endloop
  endfacet
  facet normal 0 0 -1
    outer loop
      vertex 3 7.75 0
      vertex 9 9.25 0
      vertex 9 7.75 0
    endloop
  endfacet
  facet normal -0 0 -1
    outer loop
      vertex 9 9.25 0
      vertex 3 7.75 0
      vertex 3 9.25 0
    endloop
  endfacet
  facet normal 0 0 -1
    outer loop
      vertex 10.5 21.25 0
      vertex 15.75 22.75 0
      vertex 15.75 21.25 0
    endloop
  endfacet
  facet normal -0 0 -1
    outer loop
      vertex 15.75 22.75 0
      vertex 10.5 21.25 0
      vertex 10.5 22.75 0
    endloop
  endfacet
  facet normal 0 0 -1
    outer loop
      vertex 10.5 14.5 0
      vertex 15.75 16 0
      vertex 15.75 14.5 0
    endloop
  endfacet
  facet normal -0 0 -1
    outer loop
      vertex 15.75 16 0
      vertex 10.5 14.5 0
      vertex 10.5 16 0
    endloop
  endfacet
  facet normal 0 0 -1
    outer loop
      vertex 10.5 7.75 0
      vertex 15.75 9.25 0
      vertex 15.75 7.75 0
    endloop
  endfacet
  facet normal -0 0 -1
    outer loop
      vertex 15.75 9.25 0
      vertex 10.5 7.75 0
      vertex 10.5 9.25 0
    endloop
  endfacet
  facet normal 0 0 -1
    outer loop
      vertex 17.25 21.25 0
      vertex 22.5 22.75 0
      vertex 22.5 21.25 0
    endloop
  endfacet
  facet normal -0 0 -1
    outer loop
      vertex 22.5 22.75 0
      vertex 17.25 21.25 0
      vertex 17.25 22.75 0
    endloop
  endfacet
  facet normal 0 0 -1
    outer loop
      vertex 17.25 14.5 0
      vertex 22.5 16 0
      vertex 22.5 14.5 0
    endloop
  endfacet
  facet normal -0 0 -1
    outer loop
      vertex 22.5 16 0
      vertex 17.25 14.5 0
      vertex 17.25 16 0
    endloop
  endfacet
  facet normal 0 0 -1
    outer loop
      vertex 17.25 7.75 0
      vertex 22.5 9.25 0
      vertex 22.5 7.75 0
    endloop
  endfacet
  facet normal -0 0 -1
    outer loop
      vertex 22.5 9.25 0
      vertex 17.25 7.75 0
      vertex 17.25 9.25 0
    endloop
  endfacet
  facet normal 0 0 -1
    outer loop
      vertex 24 21.25 0
      vertex 30 22.75 0
      vertex 30 21.25 0
    endloop
  endfacet
  facet normal -0 0 -1
    outer loop
      vertex 30 22.75 0
      vertex 24 21.25 0
      vertex 24 22.75 0
    endloop
  endfacet
  facet normal 0 0 -1
    outer loop
      vertex 24 14.5 0
      vertex 30 16 0
      vertex 30 14.5 0
    endloop
  endfacet
  facet normal -0 0 -1
    outer loop
      vertex 30 16 0
      vertex 24 14.5 0
      vertex 24 16 0
    endloop
  endfacet
  facet normal 0 0 -1
    outer loop
      vertex 24 7.75 0
      vertex 30 9.25 0
      vertex 30 7.75 0
    endloop
  endfacet
  facet normal -0 0 -1
    outer loop
      vertex 30 9.25 0
      vertex 24 7.75 0
      vertex 24 9.25 0
    endloop
  endfacet
  facet normal 0 0 -1
    outer loop
      vertex 30 7.75 0
      vertex 35 0 0
      vertex 30 2.5 0
    endloop
  endfacet
  facet normal 0 0 -1
    outer loop
      vertex 35 0 0
      vertex 24 2.5 0
      vertex 30 2.5 0
    endloop
  endfacet
  facet normal 0 0 -1
    outer loop
      vertex 22.5 7.75 0
      vertex 24 7.75 0
      vertex 24 2.5 0
    endloop
  endfacet
  facet normal 0 0 -1
    outer loop
      vertex 24 7.75 0
      vertex 22.5 7.75 0
      vertex 24 9.25 0
    endloop
  endfacet
  facet normal 0 0 -1
    outer loop
      vertex 24 9.25 0
      vertex 22.5 9.25 0
      vertex 24 14.5 0
    endloop
  endfacet
  facet normal 0 0 -1
    outer loop
      vertex 22.5 14.5 0
      vertex 24 14.5 0
      vertex 22.5 9.25 0
    endloop
  endfacet
  facet normal 0 0 -1
    outer loop
      vertex 22.5 16 0
      vertex 24 16 0
      vertex 22.5 14.5 0
    endloop
  endfacet
  facet normal 0 0 -1
    outer loop
      vertex 24 16 0
      vertex 22.5 16 0
      vertex 24 21.25 0
    endloop
  endfacet
  facet normal 0 0 -1
    outer loop
      vertex 22.5 7.75 0
      vertex 24 2.5 0
      vertex 22.5 2.5 0
    endloop
  endfacet
  facet normal 0 0 -1
    outer loop
      vertex 35 0 0
      vertex 22.5 2.5 0
      vertex 24 2.5 0
    endloop
  endfacet
  facet normal 0 0 -1
    outer loop
      vertex 35 0 0
      vertex 17.25 2.5 0
      vertex 22.5 2.5 0
    endloop
  endfacet
  facet normal 0 0 -1
    outer loop
      vertex 15.75 7.75 0
      vertex 17.25 7.75 0
      vertex 17.25 2.5 0
    endloop
  endfacet
  facet normal 0 0 -1
    outer loop
      vertex 17.25 7.75 0
      vertex 15.75 7.75 0
      vertex 17.25 9.25 0
    endloop
  endfacet
  facet normal 0 0 -1
    outer loop
      vertex 17.25 9.25 0
      vertex 15.75 9.25 0
      vertex 17.25 14.5 0
    endloop
  endfacet
  facet normal 0 0 -1
    outer loop
      vertex 15.75 14.5 0
      vertex 17.25 14.5 0
      vertex 15.75 9.25 0
    endloop
  endfacet
  facet normal 0 0 -1
    outer loop
      vertex 15.75 16 0
      vertex 17.25 16 0
      vertex 15.75 14.5 0
    endloop
  endfacet
  facet normal 0 0 -1
    outer loop
      vertex 17.25 16 0
      vertex 15.75 16 0
      vertex 17.25 21.25 0
    endloop
  endfacet
  facet normal 0 0 -1
    outer loop
      vertex 15.75 7.75 0
      vertex 17.25 2.5 0
      vertex 15.75 2.5 0
    endloop
  endfacet
  facet normal 0 0 -1
    outer loop
      vertex 35 0 0
      vertex 15.75 2.5 0
      vertex 17.25 2.5 0
    endloop
  endfacet
  facet normal 0 0 -1
    outer loop
      vertex -2 0 0
      vertex 15.75 2.5 0
      vertex 35 0 0
    endloop
  endfacet
  facet normal 0 0 -1
    outer loop
      vertex 9 7.75 0
      vertex 10.5 7.75 0
      vertex 10.5 2.5 0
    endloop
  endfacet
  facet normal 0 0 -1
    outer loop
      vertex 10.5 7.75 0
      vertex 9 7.75 0
      vertex 10.5 9.25 0
    endloop
  endfacet
  facet normal 0 0 -1
    outer loop
      vertex 10.5 9.25 0
      vertex 9 9.25 0
      vertex 10.5 14.5 0
    endloop
  endfacet
  facet normal 0 0 -1
    outer loop
      vertex 9 14.5 0
      vertex 10.5 14.5 0
      vertex 9 9.25 0
    endloop
  endfacet
  facet normal 0 0 -1
    outer loop
      vertex 9 16 0
      vertex 10.5 16 0
      vertex 9 14.5 0
    endloop
  endfacet
  facet normal 0 0 -1
    outer loop
      vertex 10.5 16 0
      vertex 9 16 0
      vertex 10.5 21.25 0
    endloop
  endfacet
  facet normal 0 0 -1
    outer loop
      vertex 9 7.75 0
      vertex 10.5 2.5 0
      vertex 9 2.5 0
    endloop
  endfacet
  facet normal -0 0 -1
    outer loop
      vertex 15.75 2.5 0
      vertex -2 0 0
      vertex 10.5 2.5 0
    endloop
  endfacet
  facet normal -0 0 -1
    outer loop
      vertex 10.5 2.5 0
      vertex -2 0 0
      vertex 9 2.5 0
    endloop
  endfacet
  facet normal 0 0 -1
    outer loop
      vertex -2 0 0
      vertex 3 7.75 0
      vertex 3 2.5 0
    endloop
  endfacet
  facet normal -0 0 -1
    outer loop
      vertex 3 7.75 0
      vertex -2 0 0
      vertex 3 9.25 0
    endloop
  endfacet
  facet normal -0 0 -1
    outer loop
      vertex 3 9.25 0
      vertex -2 0 0
      vertex 3 14.5 0
    endloop
  endfacet
  facet normal 0 0 -1
    outer loop
      vertex -2 29.5 0
      vertex 3 14.5 0
      vertex -2 0 0
    endloop
  endfacet
  facet normal 0 0 -1
    outer loop
      vertex 3 14.5 0
      vertex -2 29.5 0
      vertex 3 16 0
    endloop
  endfacet
  facet normal 0 0 -1
    outer loop
      vertex 3 16 0
      vertex -2 29.5 0
      vertex 3 21.25 0
    endloop
  endfacet
  facet normal 0 0 -1
    outer loop
      vertex 3 21.25 0
      vertex -2 29.5 0
      vertex 3 22.75 0
    endloop
  endfacet
  facet normal -0 0 -1
    outer loop
      vertex 9 2.5 0
      vertex -2 0 0
      vertex 3 2.5 0
    endloop
  endfacet
  facet normal 0 0 -1
    outer loop
      vertex 30 9.25 0
      vertex 35 0 0
      vertex 30 7.75 0
    endloop
  endfacet
  facet normal 0 0 -1
    outer loop
      vertex 30 14.5 0
      vertex 35 0 0
      vertex 30 9.25 0
    endloop
  endfacet
  facet normal 0 0 -1
    outer loop
      vertex 35 0 0
      vertex 30 14.5 0
      vertex 35 29.5 0
    endloop
  endfacet
  facet normal 0 0 -1
    outer loop
      vertex 30 16 0
      vertex 35 29.5 0
      vertex 30 14.5 0
    endloop
  endfacet
  facet normal 0 0 -1
    outer loop
      vertex 30 21.25 0
      vertex 35 29.5 0
      vertex 30 16 0
    endloop
  endfacet
  facet normal 0 0 -1
    outer loop
      vertex 30 22.75 0
      vertex 35 29.5 0
      vertex 30 21.25 0
    endloop
  endfacet
  facet normal 0 0 -1
    outer loop
      vertex 30 28 0
      vertex 35 29.5 0
      vertex 30 22.75 0
    endloop
  endfacet
  facet normal 0 0 -1
    outer loop
      vertex 24 28 0
      vertex 35 29.5 0
      vertex 30 28 0
    endloop
  endfacet
  facet normal -0 0 -1
    outer loop
      vertex 24 9.25 0
      vertex 22.5 7.75 0
      vertex 22.5 9.25 0
    endloop
  endfacet
  facet normal 0 0 -1
    outer loop
      vertex 24 14.5 0
      vertex 22.5 14.5 0
      vertex 24 16 0
    endloop
  endfacet
  facet normal 0 0 -1
    outer loop
      vertex 22.5 21.25 0
      vertex 24 21.25 0
      vertex 22.5 16 0
    endloop
  endfacet
  facet normal 0 0 -1
    outer loop
      vertex 24 21.25 0
      vertex 22.5 21.25 0
      vertex 24 22.75 0
    endloop
  endfacet
  facet normal 0 0 -1
    outer loop
      vertex 22.5 22.75 0
      vertex 24 22.75 0
      vertex 22.5 21.25 0
    endloop
  endfacet
  facet normal 0 0 -1
    outer loop
      vertex 24 22.75 0
      vertex 22.5 22.75 0
      vertex 24 28 0
    endloop
  endfacet
  facet normal 0 0 -1
    outer loop
      vertex 22.5 28 0
      vertex 24 28 0
      vertex 22.5 22.75 0
    endloop
  endfacet
  facet normal 0 0 -1
    outer loop
      vertex 22.5 28 0
      vertex 35 29.5 0
      vertex 24 28 0
    endloop
  endfacet
  facet normal 0 0 -1
    outer loop
      vertex 17.25 28 0
      vertex 35 29.5 0
      vertex 22.5 28 0
    endloop
  endfacet
  facet normal -0 0 -1
    outer loop
      vertex 17.25 9.25 0
      vertex 15.75 7.75 0
      vertex 15.75 9.25 0
    endloop
  endfacet
  facet normal 0 0 -1
    outer loop
      vertex 17.25 14.5 0
      vertex 15.75 14.5 0
      vertex 17.25 16 0
    endloop
  endfacet
  facet normal 0 0 -1
    outer loop
      vertex 15.75 21.25 0
      vertex 17.25 21.25 0
      vertex 15.75 16 0
    endloop
  endfacet
  facet normal 0 0 -1
    outer loop
      vertex 17.25 21.25 0
      vertex 15.75 21.25 0
      vertex 17.25 22.75 0
    endloop
  endfacet
  facet normal 0 0 -1
    outer loop
      vertex 15.75 22.75 0
      vertex 17.25 22.75 0
      vertex 15.75 21.25 0
    endloop
  endfacet
  facet normal 0 0 -1
    outer loop
      vertex 17.25 22.75 0
      vertex 15.75 22.75 0
      vertex 17.25 28 0
    endloop
  endfacet
  facet normal 0 0 -1
    outer loop
      vertex 15.75 28 0
      vertex 17.25 28 0
      vertex 15.75 22.75 0
    endloop
  endfacet
  facet normal 0 0 -1
    outer loop
      vertex 15.75 28 0
      vertex 35 29.5 0
      vertex 17.25 28 0
    endloop
  endfacet
  facet normal 0 0 -1
    outer loop
      vertex -2 29.5 0
      vertex 15.75 28 0
      vertex 10.5 28 0
    endloop
  endfacet
  facet normal -0 0 -1
    outer loop
      vertex 10.5 9.25 0
      vertex 9 7.75 0
      vertex 9 9.25 0
    endloop
  endfacet
  facet normal 0 0 -1
    outer loop
      vertex 10.5 14.5 0
      vertex 9 14.5 0
      vertex 10.5 16 0
    endloop
  endfacet
  facet normal 0 0 -1
    outer loop
      vertex 9 21.25 0
      vertex 10.5 21.25 0
      vertex 9 16 0
    endloop
  endfacet
  facet normal 0 0 -1
    outer loop
      vertex 10.5 21.25 0
      vertex 9 21.25 0
      vertex 10.5 22.75 0
    endloop
  endfacet
  facet normal 0 0 -1
    outer loop
      vertex 9 22.75 0
      vertex 10.5 22.75 0
      vertex 9 21.25 0
    endloop
  endfacet
  facet normal 0 0 -1
    outer loop
      vertex 10.5 22.75 0
      vertex 9 22.75 0
      vertex 10.5 28 0
    endloop
  endfacet
  facet normal 0 0 -1
    outer loop
      vertex 9 28 0
      vertex 10.5 28 0
      vertex 9 22.75 0
    endloop
  endfacet
  facet normal 0 0 -1
    outer loop
      vertex -2 29.5 0
      vertex 10.5 28 0
      vertex 9 28 0
    endloop
  endfacet
  facet normal 0 0 -1
    outer loop
      vertex -2 29.5 0
      vertex 9 28 0
      vertex 3 28 0
    endloop
  endfacet
  facet normal 0 0 -1
    outer loop
      vertex 15.75 28 0
      vertex -2 29.5 0
      vertex 35 29.5 0
    endloop
  endfacet
  facet normal 0 0 -1
    outer loop
      vertex 3 22.75 0
      vertex -2 29.5 0
      vertex 3 28 0
    endloop
  endfacet
  facet normal 0 -1 0
    outer loop
      vertex -2 0 0
      vertex 0 0 1
      vertex -2 0 1
    endloop
  endfacet
  facet normal 0 -1 -0
    outer loop
      vertex 0 0 1
      vertex -2 0 0
      vertex 33 0 1
    endloop
  endfacet
  facet normal 0 -1 0
    outer loop
      vertex 35 0 0
      vertex 33 0 1
      vertex -2 0 0
    endloop
  endfacet
  facet normal 0 -1 0
    outer loop
      vertex 33 0 1
      vertex 35 0 0
      vertex 35 0 1
    endloop
  endfacet
  facet normal 0 -1 0
    outer loop
      vertex 0 0 1
      vertex 0.229669 0 2
      vertex 0 0 2
    endloop
  endfacet
  facet normal 0 -1 -0
    outer loop
      vertex 0.229669 0 2
      vertex 0 0 1
      vertex 32.7703 0 2
    endloop
  endfacet
  facet normal 0 -1 0
    outer loop
      vertex 33 0 1
      vertex 32.7703 0 2
      vertex 0 0 1
    endloop
  endfacet
  facet normal 0 -1 0
    outer loop
      vertex 32.7703 0 2
      vertex 33 0 1
      vertex 33 0 2
    endloop
  endfacet
  facet normal 0 -1 0
    outer loop
      vertex 15.4529 0 4.24086
      vertex 17.5471 0 4.24086
      vertex 16.5 0 4.25
    endloop
  endfacet
  facet normal 0 -1 0
    outer loop
      vertex 14.406 0 4.21345
      vertex 17.5471 0 4.24086
      vertex 15.4529 0 4.24086
    endloop
  endfacet
  facet normal 0 -1 0
    outer loop
      vertex 14.406 0 4.21345
      vertex 18.594 0 4.21345
      vertex 17.5471 0 4.24086
    endloop
  endfacet
  facet normal 0 -1 0
    outer loop
      vertex 13.3598 0 4.16777
      vertex 18.594 0 4.21345
      vertex 14.406 0 4.21345
    endloop
  endfacet
  facet normal 0 -1 0
    outer loop
      vertex 13.3598 0 4.16777
      vertex 19.6402 0 4.16777
      vertex 18.594 0 4.21345
    endloop
  endfacet
  facet normal 0 -1 0
    outer loop
      vertex 12.3146 0 4.10384
      vertex 19.6402 0 4.16777
      vertex 13.3598 0 4.16777
    endloop
  endfacet
  facet normal 0 -1 0
    outer loop
      vertex 12.3146 0 4.10384
      vertex 20.6854 0 4.10384
      vertex 19.6402 0 4.16777
    endloop
  endfacet
  facet normal 0 -1 0
    outer loop
      vertex 11.2707 0 4.02168
      vertex 20.6854 0 4.10384
      vertex 12.3146 0 4.10384
    endloop
  endfacet
  facet normal 0 -1 0
    outer loop
      vertex 11.2707 0 4.02168
      vertex 21.7293 0 4.02168
      vertex 20.6854 0 4.10384
    endloop
  endfacet
  facet normal 0 -1 0
    outer loop
      vertex 10.2283 0 3.92131
      vertex 21.7293 0 4.02168
      vertex 11.2707 0 4.02168
    endloop
  endfacet
  facet normal 0 -1 0
    outer loop
      vertex 10.2283 0 3.92131
      vertex 22.7717 0 3.92131
      vertex 21.7293 0 4.02168
    endloop
  endfacet
  facet normal 0 -1 0
    outer loop
      vertex 9.18784 0 3.80277
      vertex 22.7717 0 3.92131
      vertex 10.2283 0 3.92131
    endloop
  endfacet
  facet normal 0 -1 0
    outer loop
      vertex 9.18784 0 3.80277
      vertex 23.8122 0 3.80277
      vertex 22.7717 0 3.92131
    endloop
  endfacet
  facet normal 0 -1 0
    outer loop
      vertex 8.14961 0 3.66608
      vertex 23.8122 0 3.80277
      vertex 9.18784 0 3.80277
    endloop
  endfacet
  facet normal 0 -1 0
    outer loop
      vertex 8.14961 0 3.66608
      vertex 24.8504 0 3.66608
      vertex 23.8122 0 3.80277
    endloop
  endfacet
  facet normal 0 -1 0
    outer loop
      vertex 7.11393 0 3.5113
      vertex 24.8504 0 3.66608
      vertex 8.14961 0 3.66608
    endloop
  endfacet
  facet normal 0 -1 0
    outer loop
      vertex 7.11393 0 3.5113
      vertex 25.8861 0 3.5113
      vertex 24.8504 0 3.66608
    endloop
  endfacet
  facet normal 0 -1 0
    outer loop
      vertex 6.08111 0 3.33846
      vertex 25.8861 0 3.5113
      vertex 7.11393 0 3.5113
    endloop
  endfacet
  facet normal 0 -1 0
    outer loop
      vertex 6.08111 0 3.33846
      vertex 26.9189 0 3.33846
      vertex 25.8861 0 3.5113
    endloop
  endfacet
  facet normal 0 -1 0
    outer loop
      vertex 5.05146 0 3.14763
      vertex 26.9189 0 3.33846
      vertex 6.08111 0 3.33846
    endloop
  endfacet
  facet normal 0 -1 0
    outer loop
      vertex 5.05146 0 3.14763
      vertex 27.9485 0 3.14763
      vertex 26.9189 0 3.33846
    endloop
  endfacet
  facet normal 0 -1 0
    outer loop
      vertex 4.0253 0 2.93886
      vertex 27.9485 0 3.14763
      vertex 5.05146 0 3.14763
    endloop
  endfacet
  facet normal 0 -1 0
    outer loop
      vertex 4.0253 0 2.93886
      vertex 28.9747 0 2.93886
      vertex 27.9485 0 3.14763
    endloop
  endfacet
  facet normal 0 -1 0
    outer loop
      vertex 3.00294 0 2.7122
      vertex 28.9747 0 2.93886
      vertex 4.0253 0 2.93886
    endloop
  endfacet
  facet normal 0 -1 0
    outer loop
      vertex 3.00294 0 2.7122
      vertex 29.9971 0 2.7122
      vertex 28.9747 0 2.93886
    endloop
  endfacet
  facet normal 0 -1 0
    outer loop
      vertex 1.98469 0 2.46774
      vertex 29.9971 0 2.7122
      vertex 3.00294 0 2.7122
    endloop
  endfacet
  facet normal 0 -1 0
    outer loop
      vertex 1.98469 0 2.46774
      vertex 31.0153 0 2.46774
      vertex 29.9971 0 2.7122
    endloop
  endfacet
  facet normal 0 -1 0
    outer loop
      vertex 0.970857 0 2.20555
      vertex 31.0153 0 2.46774
      vertex 1.98469 0 2.46774
    endloop
  endfacet
  facet normal 0 -1 0
    outer loop
      vertex 0.970857 0 2.20555
      vertex 32.0291 0 2.20555
      vertex 31.0153 0 2.46774
    endloop
  endfacet
  facet normal 0 -1 0
    outer loop
      vertex 0.229669 0 2
      vertex 32.0291 0 2.20555
      vertex 0.970857 0 2.20555
    endloop
  endfacet
  facet normal 0 -1 -0
    outer loop
      vertex 32.0291 0 2.20555
      vertex 0.229669 0 2
      vertex 32.7703 0 2
    endloop
  endfacet
  facet normal -1 0 0
    outer loop
      vertex 0 0 1
      vertex 0 29.5 2
      vertex 0 29.5 1
    endloop
  endfacet
  facet normal -1 -0 0
    outer loop
      vertex 0 29.5 2
      vertex 0 0 1
      vertex 0 0 2
    endloop
  endfacet
  facet normal -0 0 1
    outer loop
      vertex 3 9.25 2
      vertex 9 7.75 2
      vertex 9 9.25 2
    endloop
  endfacet
  facet normal 0 0 1
    outer loop
      vertex 9 7.75 2
      vertex 3 9.25 2
      vertex 3 7.75 2
    endloop
  endfacet
  facet normal -0 0 1
    outer loop
      vertex 3 16 2
      vertex 9 14.5 2
      vertex 9 16 2
    endloop
  endfacet
  facet normal 0 0 1
    outer loop
      vertex 9 14.5 2
      vertex 3 16 2
      vertex 3 14.5 2
    endloop
  endfacet
  facet normal -0 0 1
    outer loop
      vertex 3 22.75 2
      vertex 9 21.25 2
      vertex 9 22.75 2
    endloop
  endfacet
  facet normal 0 0 1
    outer loop
      vertex 9 21.25 2
      vertex 3 22.75 2
      vertex 3 21.25 2
    endloop
  endfacet
  facet normal -0 0 1
    outer loop
      vertex 10.5 9.25 2
      vertex 15.75 7.75 2
      vertex 15.75 9.25 2
    endloop
  endfacet
  facet normal 0 0 1
    outer loop
      vertex 15.75 7.75 2
      vertex 10.5 9.25 2
      vertex 10.5 7.75 2
    endloop
  endfacet
  facet normal -0 0 1
    outer loop
      vertex 10.5 16 2
      vertex 15.75 14.5 2
      vertex 15.75 16 2
    endloop
  endfacet
  facet normal 0 0 1
    outer loop
      vertex 15.75 14.5 2
      vertex 10.5 16 2
      vertex 10.5 14.5 2
    endloop
  endfacet
  facet normal -0 0 1
    outer loop
      vertex 10.5 22.75 2
      vertex 15.75 21.25 2
      vertex 15.75 22.75 2
    endloop
  endfacet
  facet normal 0 0 1
    outer loop
      vertex 15.75 21.25 2
      vertex 10.5 22.75 2
      vertex 10.5 21.25 2
    endloop
  endfacet
  facet normal -0 0 1
    outer loop
      vertex 17.25 9.25 2
      vertex 22.5 7.75 2
      vertex 22.5 9.25 2
    endloop
  endfacet
  facet normal 0 0 1
    outer loop
      vertex 22.5 7.75 2
      vertex 17.25 9.25 2
      vertex 17.25 7.75 2
    endloop
  endfacet
  facet normal -0 0 1
    outer loop
      vertex 17.25 16 2
      vertex 22.5 14.5 2
      vertex 22.5 16 2
    endloop
  endfacet
  facet normal 0 0 1
    outer loop
      vertex 22.5 14.5 2
      vertex 17.25 16 2
      vertex 17.25 14.5 2
    endloop
  endfacet
  facet normal -0 0 1
    outer loop
      vertex 17.25 22.75 2
      vertex 22.5 21.25 2
      vertex 22.5 22.75 2
    endloop
  endfacet
  facet normal 0 0 1
    outer loop
      vertex 22.5 21.25 2
      vertex 17.25 22.75 2
      vertex 17.25 21.25 2
    endloop
  endfacet
  facet normal -0 0 1
    outer loop
      vertex 24 9.25 2
      vertex 30 7.75 2
      vertex 30 9.25 2
    endloop
  endfacet
  facet normal 0 0 1
    outer loop
      vertex 30 7.75 2
      vertex 24 9.25 2
      vertex 24 7.75 2
    endloop
  endfacet
  facet normal -0 0 1
    outer loop
      vertex 24 16 2
      vertex 30 14.5 2
      vertex 30 16 2
    endloop
  endfacet
  facet normal 0 0 1
    outer loop
      vertex 30 14.5 2
      vertex 24 16 2
      vertex 24 14.5 2
    endloop
  endfacet
  facet normal -0 0 1
    outer loop
      vertex 24 22.75 2
      vertex 30 21.25 2
      vertex 30 22.75 2
    endloop
  endfacet
  facet normal 0 0 1
    outer loop
      vertex 30 21.25 2
      vertex 24 22.75 2
      vertex 24 21.25 2
    endloop
  endfacet
  facet normal 0 0 1
    outer loop
      vertex 33 29.5 2
      vertex 32.7703 2.25 2
      vertex 33 0 2
    endloop
  endfacet
  facet normal 0 0 1
    outer loop
      vertex 30 22.75 2
      vertex 33 29.5 2
      vertex 30 28 2
    endloop
  endfacet
  facet normal 0 0 1
    outer loop
      vertex 33 29.5 2
      vertex 24 28 2
      vertex 30 28 2
    endloop
  endfacet
  facet normal 0 0 1
    outer loop
      vertex 22.5 22.75 2
      vertex 24 22.75 2
      vertex 24 28 2
    endloop
  endfacet
  facet normal 0 0 1
    outer loop
      vertex 24 22.75 2
      vertex 22.5 22.75 2
      vertex 24 21.25 2
    endloop
  endfacet
  facet normal 0 0 1
    outer loop
      vertex 24 21.25 2
      vertex 22.5 21.25 2
      vertex 24 16 2
    endloop
  endfacet
  facet normal 0 0 1
    outer loop
      vertex 22.5 16 2
      vertex 24 16 2
      vertex 22.5 21.25 2
    endloop
  endfacet
  facet normal 0 0 1
    outer loop
      vertex 22.5 14.5 2
      vertex 24 14.5 2
      vertex 22.5 16 2
    endloop
  endfacet
  facet normal 0 0 1
    outer loop
      vertex 24 14.5 2
      vertex 22.5 14.5 2
      vertex 24 9.25 2
    endloop
  endfacet
  facet normal 0 0 1
    outer loop
      vertex 22.5 22.75 2
      vertex 24 28 2
      vertex 22.5 28 2
    endloop
  endfacet
  facet normal 0 0 1
    outer loop
      vertex 33 29.5 2
      vertex 22.5 28 2
      vertex 24 28 2
    endloop
  endfacet
  facet normal 0 0 1
    outer loop
      vertex 33 29.5 2
      vertex 17.25 28 2
      vertex 22.5 28 2
    endloop
  endfacet
  facet normal 0 0 1
    outer loop
      vertex 15.75 22.75 2
      vertex 17.25 22.75 2
      vertex 17.25 28 2
    endloop
  endfacet
  facet normal 0 0 1
    outer loop
      vertex 17.25 22.75 2
      vertex 15.75 22.75 2
      vertex 17.25 21.25 2
    endloop
  endfacet
  facet normal 0 0 1
    outer loop
      vertex 17.25 21.25 2
      vertex 15.75 21.25 2
      vertex 17.25 16 2
    endloop
  endfacet
  facet normal 0 0 1
    outer loop
      vertex 15.75 16 2
      vertex 17.25 16 2
      vertex 15.75 21.25 2
    endloop
  endfacet
  facet normal 0 0 1
    outer loop
      vertex 15.75 14.5 2
      vertex 17.25 14.5 2
      vertex 15.75 16 2
    endloop
  endfacet
  facet normal 0 0 1
    outer loop
      vertex 17.25 14.5 2
      vertex 15.75 14.5 2
      vertex 17.25 9.25 2
    endloop
  endfacet
  facet normal 0 0 1
    outer loop
      vertex 15.75 22.75 2
      vertex 17.25 28 2
      vertex 15.75 28 2
    endloop
  endfacet
  facet normal 0 0 1
    outer loop
      vertex 33 29.5 2
      vertex 15.75 28 2
      vertex 17.25 28 2
    endloop
  endfacet
  facet normal -0 0 1
    outer loop
      vertex 0 29.5 2
      vertex 15.75 28 2
      vertex 33 29.5 2
    endloop
  endfacet
  facet normal 0 0 1
    outer loop
      vertex 9 22.75 2
      vertex 10.5 22.75 2
      vertex 10.5 28 2
    endloop
  endfacet
  facet normal 0 0 1
    outer loop
      vertex 10.5 22.75 2
      vertex 9 22.75 2
      vertex 10.5 21.25 2
    endloop
  endfacet
  facet normal 0 0 1
    outer loop
      vertex 10.5 21.25 2
      vertex 9 21.25 2
      vertex 10.5 16 2
    endloop
  endfacet
  facet normal 0 0 1
    outer loop
      vertex 9 16 2
      vertex 10.5 16 2
      vertex 9 21.25 2
    endloop
  endfacet
  facet normal 0 0 1
    outer loop
      vertex 9 14.5 2
      vertex 10.5 14.5 2
      vertex 9 16 2
    endloop
  endfacet
  facet normal 0 0 1
    outer loop
      vertex 10.5 14.5 2
      vertex 9 14.5 2
      vertex 10.5 9.25 2
    endloop
  endfacet
  facet normal 0 0 1
    outer loop
      vertex 9 22.75 2
      vertex 10.5 28 2
      vertex 9 28 2
    endloop
  endfacet
  facet normal 0 0 1
    outer loop
      vertex 15.75 28 2
      vertex 0 29.5 2
      vertex 10.5 28 2
    endloop
  endfacet
  facet normal 0 0 1
    outer loop
      vertex 10.5 28 2
      vertex 0 29.5 2
      vertex 9 28 2
    endloop
  endfacet
  facet normal 0 0 1
    outer loop
      vertex 0 29.5 2
      vertex 3 22.75 2
      vertex 3 28 2
    endloop
  endfacet
  facet normal 0 0 1
    outer loop
      vertex 3 22.75 2
      vertex 0 29.5 2
      vertex 3 21.25 2
    endloop
  endfacet
  facet normal 0 0 1
    outer loop
      vertex 3 21.25 2
      vertex 0 29.5 2
      vertex 3 16 2
    endloop
  endfacet
  facet normal 0 -0 1
    outer loop
      vertex 0.229669 2.25 2
      vertex 3 16 2
      vertex 0 29.5 2
    endloop
  endfacet
  facet normal 0 0 1
    outer loop
      vertex 3 16 2
      vertex 0.229669 2.25 2
      vertex 3 14.5 2
    endloop
  endfacet
  facet normal 0 0 1
    outer loop
      vertex 3 14.5 2
      vertex 0.229669 2.25 2
      vertex 3 9.25 2
    endloop
  endfacet
  facet normal 0 0 1
    outer loop
      vertex 3 7.75 2
      vertex 0.229669 2.25 2
      vertex 3 2.5 2
    endloop
  endfacet
  facet normal 0 0 1
    outer loop
      vertex 9 28 2
      vertex 0 29.5 2
      vertex 3 28 2
    endloop
  endfacet
  facet normal 0 0 1
    outer loop
      vertex 3 9.25 2
      vertex 0.229669 2.25 2
      vertex 3 7.75 2
    endloop
  endfacet
  facet normal 0 0 1
    outer loop
      vertex 0 0 2
      vertex 0.229669 2.25 2
      vertex 0 29.5 2
    endloop
  endfacet
  facet normal 0 0 1
    outer loop
      vertex 0.229669 2.25 2
      vertex 0 0 2
      vertex 0.229669 0 2
    endloop
  endfacet
  facet normal 0 0 1
    outer loop
      vertex 33 0 2
      vertex 32.7703 2.25 2
      vertex 32.7703 0 2
    endloop
  endfacet
  facet normal 0 0 1
    outer loop
      vertex 30 21.25 2
      vertex 33 29.5 2
      vertex 30 22.75 2
    endloop
  endfacet
  facet normal 0 0 1
    outer loop
      vertex 30 16 2
      vertex 33 29.5 2
      vertex 30 21.25 2
    endloop
  endfacet
  facet normal 0 0 1
    outer loop
      vertex 33 29.5 2
      vertex 30 16 2
      vertex 32.7703 2.25 2
    endloop
  endfacet
  facet normal -0 0 1
    outer loop
      vertex 30 14.5 2
      vertex 32.7703 2.25 2
      vertex 30 16 2
    endloop
  endfacet
  facet normal -0 0 1
    outer loop
      vertex 30 9.25 2
      vertex 32.7703 2.25 2
      vertex 30 14.5 2
    endloop
  endfacet
  facet normal -0 0 1
    outer loop
      vertex 30 7.75 2
      vertex 32.7703 2.25 2
      vertex 30 9.25 2
    endloop
  endfacet
  facet normal -0 0 1
    outer loop
      vertex 30 2.5 2
      vertex 32.7703 2.25 2
      vertex 30 7.75 2
    endloop
  endfacet
  facet normal -0 0 1
    outer loop
      vertex 24 2.5 2
      vertex 32.7703 2.25 2
      vertex 30 2.5 2
    endloop
  endfacet
  facet normal 0 0 1
    outer loop
      vertex 24 21.25 2
      vertex 22.5 22.75 2
      vertex 22.5 21.25 2
    endloop
  endfacet
  facet normal 0 0 1
    outer loop
      vertex 24 16 2
      vertex 22.5 16 2
      vertex 24 14.5 2
    endloop
  endfacet
  facet normal 0 0 1
    outer loop
      vertex 22.5 9.25 2
      vertex 24 9.25 2
      vertex 22.5 14.5 2
    endloop
  endfacet
  facet normal 0 0 1
    outer loop
      vertex 24 9.25 2
      vertex 22.5 9.25 2
      vertex 24 7.75 2
    endloop
  endfacet
  facet normal 0 0 1
    outer loop
      vertex 22.5 7.75 2
      vertex 24 7.75 2
      vertex 22.5 9.25 2
    endloop
  endfacet
  facet normal 0 0 1
    outer loop
      vertex 24 7.75 2
      vertex 22.5 7.75 2
      vertex 24 2.5 2
    endloop
  endfacet
  facet normal 0 0 1
    outer loop
      vertex 22.5 2.5 2
      vertex 24 2.5 2
      vertex 22.5 7.75 2
    endloop
  endfacet
  facet normal -0 0 1
    outer loop
      vertex 22.5 2.5 2
      vertex 32.7703 2.25 2
      vertex 24 2.5 2
    endloop
  endfacet
  facet normal -0 0 1
    outer loop
      vertex 17.25 2.5 2
      vertex 32.7703 2.25 2
      vertex 22.5 2.5 2
    endloop
  endfacet
  facet normal 0 0 1
    outer loop
      vertex 17.25 21.25 2
      vertex 15.75 22.75 2
      vertex 15.75 21.25 2
    endloop
  endfacet
  facet normal 0 0 1
    outer loop
      vertex 17.25 16 2
      vertex 15.75 16 2
      vertex 17.25 14.5 2
    endloop
  endfacet
  facet normal 0 0 1
    outer loop
      vertex 15.75 9.25 2
      vertex 17.25 9.25 2
      vertex 15.75 14.5 2
    endloop
  endfacet
  facet normal 0 0 1
    outer loop
      vertex 17.25 9.25 2
      vertex 15.75 9.25 2
      vertex 17.25 7.75 2
    endloop
  endfacet
  facet normal 0 0 1
    outer loop
      vertex 15.75 7.75 2
      vertex 17.25 7.75 2
      vertex 15.75 9.25 2
    endloop
  endfacet
  facet normal 0 0 1
    outer loop
      vertex 17.25 7.75 2
      vertex 15.75 7.75 2
      vertex 17.25 2.5 2
    endloop
  endfacet
  facet normal 0 0 1
    outer loop
      vertex 15.75 2.5 2
      vertex 17.25 2.5 2
      vertex 15.75 7.75 2
    endloop
  endfacet
  facet normal -0 0 1
    outer loop
      vertex 15.75 2.5 2
      vertex 32.7703 2.25 2
      vertex 17.25 2.5 2
    endloop
  endfacet
  facet normal -0 0 1
    outer loop
      vertex 10.5 2.5 2
      vertex 32.7703 2.25 2
      vertex 15.75 2.5 2
    endloop
  endfacet
  facet normal 0 0 1
    outer loop
      vertex 10.5 21.25 2
      vertex 9 22.75 2
      vertex 9 21.25 2
    endloop
  endfacet
  facet normal 0 0 1
    outer loop
      vertex 10.5 16 2
      vertex 9 16 2
      vertex 10.5 14.5 2
    endloop
  endfacet
  facet normal 0 0 1
    outer loop
      vertex 9 9.25 2
      vertex 10.5 9.25 2
      vertex 9 14.5 2
    endloop
  endfacet
  facet normal 0 0 1
    outer loop
      vertex 10.5 9.25 2
      vertex 9 9.25 2
      vertex 10.5 7.75 2
    endloop
  endfacet
  facet normal 0 0 1
    outer loop
      vertex 9 7.75 2
      vertex 10.5 7.75 2
      vertex 9 9.25 2
    endloop
  endfacet
  facet normal 0 0 1
    outer loop
      vertex 10.5 7.75 2
      vertex 9 7.75 2
      vertex 10.5 2.5 2
    endloop
  endfacet
  facet normal 0 0 1
    outer loop
      vertex 9 2.5 2
      vertex 10.5 2.5 2
      vertex 9 7.75 2
    endloop
  endfacet
  facet normal 0 0 1
    outer loop
      vertex 0.229669 2.25 2
      vertex 10.5 2.5 2
      vertex 9 2.5 2
    endloop
  endfacet
  facet normal 0 0 1
    outer loop
      vertex 0.229669 2.25 2
      vertex 9 2.5 2
      vertex 3 2.5 2
    endloop
  endfacet
  facet normal 0 0 1
    outer loop
      vertex 10.5 2.5 2
      vertex 0.229669 2.25 2
      vertex 32.7703 2.25 2
    endloop
  endfacet
  facet normal 1 -0 0
    outer loop
      vertex 33 0 2
      vertex 33 29.5 1
      vertex 33 29.5 2
    endloop
  endfacet
  facet normal 1 0 0
    outer loop
      vertex 33 29.5 1
      vertex 33 0 2
      vertex 33 0 1
    endloop
  endfacet
  facet normal 1 -0 0
    outer loop
      vertex 3 16 2
      vertex 3 21.25 0
      vertex 3 21.25 2
    endloop
  endfacet
  facet normal 1 0 0
    outer loop
      vertex 3 21.25 0
      vertex 3 16 2
      vertex 3 16 0
    endloop
  endfacet
  facet normal 1 -0 0
    outer loop
      vertex 3 22.75 2
      vertex 3 28 0
      vertex 3 28 2
    endloop
  endfacet
  facet normal 1 0 0
    outer loop
      vertex 3 28 0
      vertex 3 22.75 2
      vertex 3 22.75 0
    endloop
  endfacet
  facet normal 1 -0 0
    outer loop
      vertex 3 9.25 2
      vertex 3 14.5 0
      vertex 3 14.5 2
    endloop
  endfacet
  facet normal 1 0 0
    outer loop
      vertex 3 14.5 0
      vertex 3 9.25 2
      vertex 3 9.25 0
    endloop
  endfacet
  facet normal 1 -0 0
    outer loop
      vertex 3 2.5 2
      vertex 3 7.75 0
      vertex 3 7.75 2
    endloop
  endfacet
  facet normal 1 0 0
    outer loop
      vertex 3 7.75 0
      vertex 3 2.5 2
      vertex 3 2.5 0
    endloop
  endfacet
  facet normal -1 0 0
    outer loop
      vertex 30 16 0
      vertex 30 21.25 2
      vertex 30 21.25 0
    endloop
  endfacet
  facet normal -1 -0 0
    outer loop
      vertex 30 21.25 2
      vertex 30 16 0
      vertex 30 16 2
    endloop
  endfacet
  facet normal -1 0 0
    outer loop
      vertex 30 22.75 0
      vertex 30 28 2
      vertex 30 28 0
    endloop
  endfacet
  facet normal -1 -0 0
    outer loop
      vertex 30 28 2
      vertex 30 22.75 0
      vertex 30 22.75 2
    endloop
  endfacet
  facet normal -1 0 0
    outer loop
      vertex 30 9.25 0
      vertex 30 14.5 2
      vertex 30 14.5 0
    endloop
  endfacet
  facet normal -1 -0 0
    outer loop
      vertex 30 14.5 2
      vertex 30 9.25 0
      vertex 30 9.25 2
    endloop
  endfacet
  facet normal -1 0 0
    outer loop
      vertex 30 2.5 0
      vertex 30 7.75 2
      vertex 30 7.75 0
    endloop
  endfacet
  facet normal -1 -0 0
    outer loop
      vertex 30 7.75 2
      vertex 30 2.5 0
      vertex 30 2.5 2
    endloop
  endfacet
  facet normal 0 -1 0
    outer loop
      vertex 3 28 0
      vertex 9 28 2
      vertex 3 28 2
    endloop
  endfacet
  facet normal 0 -1 -0
    outer loop
      vertex 9 28 2
      vertex 3 28 0
      vertex 9 28 0
    endloop
  endfacet
  facet normal 0 -1 0
    outer loop
      vertex 24 28 0
      vertex 30 28 2
      vertex 24 28 2
    endloop
  endfacet
  facet normal 0 -1 -0
    outer loop
      vertex 30 28 2
      vertex 24 28 0
      vertex 30 28 0
    endloop
  endfacet
  facet normal 0 -1 0
    outer loop
      vertex 10.5 28 0
      vertex 15.75 28 2
      vertex 10.5 28 2
    endloop
  endfacet
  facet normal 0 -1 -0
    outer loop
      vertex 15.75 28 2
      vertex 10.5 28 0
      vertex 15.75 28 0
    endloop
  endfacet
  facet normal 0 -1 0
    outer loop
      vertex 17.25 28 0
      vertex 22.5 28 2
      vertex 17.25 28 2
    endloop
  endfacet
  facet normal 0 -1 -0
    outer loop
      vertex 22.5 28 2
      vertex 17.25 28 0
      vertex 22.5 28 0
    endloop
  endfacet
  facet normal 0 1 -0
    outer loop
      vertex 30 2.5 0
      vertex 24 2.5 2
      vertex 30 2.5 2
    endloop
  endfacet
  facet normal 0 1 0
    outer loop
      vertex 24 2.5 2
      vertex 30 2.5 0
      vertex 24 2.5 0
    endloop
  endfacet
  facet normal 0 1 -0
    outer loop
      vertex 22.5 2.5 0
      vertex 17.25 2.5 2
      vertex 22.5 2.5 2
    endloop
  endfacet
  facet normal 0 1 0
    outer loop
      vertex 17.25 2.5 2
      vertex 22.5 2.5 0
      vertex 17.25 2.5 0
    endloop
  endfacet
  facet normal 0 1 -0
    outer loop
      vertex 15.75 2.5 0
      vertex 10.5 2.5 2
      vertex 15.75 2.5 2
    endloop
  endfacet
  facet normal 0 1 0
    outer loop
      vertex 10.5 2.5 2
      vertex 15.75 2.5 0
      vertex 10.5 2.5 0
    endloop
  endfacet
  facet normal 0 1 -0
    outer loop
      vertex 9 2.5 0
      vertex 3 2.5 2
      vertex 9 2.5 2
    endloop
  endfacet
  facet normal 0 1 0
    outer loop
      vertex 3 2.5 2
      vertex 9 2.5 0
      vertex 3 2.5 0
    endloop
  endfacet
  facet normal 0 1 0
    outer loop
      vertex 17.5471 2.25 4.24086
      vertex 15.4529 2.25 4.24086
      vertex 16.5 2.25 4.25
    endloop
  endfacet
  facet normal 0 1 0
    outer loop
      vertex 18.594 2.25 4.21345
      vertex 15.4529 2.25 4.24086
      vertex 17.5471 2.25 4.24086
    endloop
  endfacet
  facet normal 0 1 0
    outer loop
      vertex 18.594 2.25 4.21345
      vertex 14.406 2.25 4.21345
      vertex 15.4529 2.25 4.24086
    endloop
  endfacet
  facet normal 0 1 0
    outer loop
      vertex 19.6402 2.25 4.16777
      vertex 14.406 2.25 4.21345
      vertex 18.594 2.25 4.21345
    endloop
  endfacet
  facet normal 0 1 0
    outer loop
      vertex 19.6402 2.25 4.16777
      vertex 13.3598 2.25 4.16777
      vertex 14.406 2.25 4.21345
    endloop
  endfacet
  facet normal 0 1 0
    outer loop
      vertex 20.6854 2.25 4.10384
      vertex 13.3598 2.25 4.16777
      vertex 19.6402 2.25 4.16777
    endloop
  endfacet
  facet normal 0 1 0
    outer loop
      vertex 20.6854 2.25 4.10384
      vertex 12.3146 2.25 4.10384
      vertex 13.3598 2.25 4.16777
    endloop
  endfacet
  facet normal 0 1 0
    outer loop
      vertex 21.7293 2.25 4.02168
      vertex 12.3146 2.25 4.10384
      vertex 20.6854 2.25 4.10384
    endloop
  endfacet
  facet normal 0 1 0
    outer loop
      vertex 21.7293 2.25 4.02168
      vertex 11.2707 2.25 4.02168
      vertex 12.3146 2.25 4.10384
    endloop
  endfacet
  facet normal 0 1 0
    outer loop
      vertex 22.7717 2.25 3.92131
      vertex 11.2707 2.25 4.02168
      vertex 21.7293 2.25 4.02168
    endloop
  endfacet
  facet normal 0 1 0
    outer loop
      vertex 22.7717 2.25 3.92131
      vertex 10.2283 2.25 3.92131
      vertex 11.2707 2.25 4.02168
    endloop
  endfacet
  facet normal 0 1 0
    outer loop
      vertex 23.8122 2.25 3.80277
      vertex 10.2283 2.25 3.92131
      vertex 22.7717 2.25 3.92131
    endloop
  endfacet
  facet normal 0 1 0
    outer loop
      vertex 23.8122 2.25 3.80277
      vertex 9.18784 2.25 3.80277
      vertex 10.2283 2.25 3.92131
    endloop
  endfacet
  facet normal 0 1 0
    outer loop
      vertex 24.8504 2.25 3.66608
      vertex 9.18784 2.25 3.80277
      vertex 23.8122 2.25 3.80277
    endloop
  endfacet
  facet normal 0 1 0
    outer loop
      vertex 24.8504 2.25 3.66608
      vertex 8.14961 2.25 3.66608
      vertex 9.18784 2.25 3.80277
    endloop
  endfacet
  facet normal 0 1 0
    outer loop
      vertex 25.8861 2.25 3.5113
      vertex 8.14961 2.25 3.66608
      vertex 24.8504 2.25 3.66608
    endloop
  endfacet
  facet normal 0 1 0
    outer loop
      vertex 25.8861 2.25 3.5113
      vertex 7.11393 2.25 3.5113
      vertex 8.14961 2.25 3.66608
    endloop
  endfacet
  facet normal 0 1 0
    outer loop
      vertex 26.9189 2.25 3.33846
      vertex 7.11393 2.25 3.5113
      vertex 25.8861 2.25 3.5113
    endloop
  endfacet
  facet normal 0 1 0
    outer loop
      vertex 26.9189 2.25 3.33846
      vertex 6.08111 2.25 3.33846
      vertex 7.11393 2.25 3.5113
    endloop
  endfacet
  facet normal 0 1 0
    outer loop
      vertex 27.9485 2.25 3.14763
      vertex 6.08111 2.25 3.33846
      vertex 26.9189 2.25 3.33846
    endloop
  endfacet
  facet normal 0 1 0
    outer loop
      vertex 27.9485 2.25 3.14763
      vertex 5.05146 2.25 3.14763
      vertex 6.08111 2.25 3.33846
    endloop
  endfacet
  facet normal 0 1 0
    outer loop
      vertex 28.9747 2.25 2.93886
      vertex 5.05146 2.25 3.14763
      vertex 27.9485 2.25 3.14763
    endloop
  endfacet
  facet normal 0 1 0
    outer loop
      vertex 28.9747 2.25 2.93886
      vertex 4.0253 2.25 2.93886
      vertex 5.05146 2.25 3.14763
    endloop
  endfacet
  facet normal 0 1 0
    outer loop
      vertex 29.9971 2.25 2.7122
      vertex 4.0253 2.25 2.93886
      vertex 28.9747 2.25 2.93886
    endloop
  endfacet
  facet normal 0 1 0
    outer loop
      vertex 29.9971 2.25 2.7122
      vertex 3.00294 2.25 2.7122
      vertex 4.0253 2.25 2.93886
    endloop
  endfacet
  facet normal 0 1 0
    outer loop
      vertex 31.0153 2.25 2.46774
      vertex 3.00294 2.25 2.7122
      vertex 29.9971 2.25 2.7122
    endloop
  endfacet
  facet normal 0 1 0
    outer loop
      vertex 31.0153 2.25 2.46774
      vertex 1.98469 2.25 2.46774
      vertex 3.00294 2.25 2.7122
    endloop
  endfacet
  facet normal 0 1 0
    outer loop
      vertex 32.0291 2.25 2.20555
      vertex 1.98469 2.25 2.46774
      vertex 31.0153 2.25 2.46774
    endloop
  endfacet
  facet normal 0 1 0
    outer loop
      vertex 32.0291 2.25 2.20555
      vertex 0.970857 2.25 2.20555
      vertex 1.98469 2.25 2.46774
    endloop
  endfacet
  facet normal 0 1 0
    outer loop
      vertex 32.7703 2.25 2
      vertex 0.970857 2.25 2.20555
      vertex 32.0291 2.25 2.20555
    endloop
  endfacet
  facet normal 0 1 0
    outer loop
      vertex 0.970857 2.25 2.20555
      vertex 32.7703 2.25 2
      vertex 0.229669 2.25 2
    endloop
  endfacet
  facet normal 0.130534 0 0.991444
    outer loop
      vertex 23.8122 2.25 3.80277
      vertex 24.8504 0 3.66608
      vertex 24.8504 2.25 3.66608
    endloop
  endfacet
  facet normal 0.130534 0 0.991444
    outer loop
      vertex 24.8504 0 3.66608
      vertex 23.8122 2.25 3.80277
      vertex 23.8122 0 3.80277
    endloop
  endfacet
  facet normal 0.0261731 0 0.999657
    outer loop
      vertex 17.5471 2.25 4.24086
      vertex 18.594 0 4.21345
      vertex 18.594 2.25 4.21345
    endloop
  endfacet
  facet normal 0.0261731 0 0.999657
    outer loop
      vertex 18.594 0 4.21345
      vertex 17.5471 2.25 4.24086
      vertex 17.5471 0 4.24086
    endloop
  endfacet
  facet normal -0.267239 0 0.96363
    outer loop
      vertex 0.229669 2.25 2
      vertex 0.970857 0 2.20555
      vertex 0.970857 2.25 2.20555
    endloop
  endfacet
  facet normal -0.267239 0 0.96363
    outer loop
      vertex 0.970857 0 2.20555
      vertex 0.229669 2.25 2
      vertex 0.229669 0 2
    endloop
  endfacet
  facet normal -0.00872854 0 0.999962
    outer loop
      vertex 15.4529 2.25 4.24086
      vertex 16.5 0 4.25
      vertex 16.5 2.25 4.25
    endloop
  endfacet
  facet normal -0.00872854 0 0.999962
    outer loop
      vertex 16.5 0 4.25
      vertex 15.4529 2.25 4.24086
      vertex 15.4529 0 4.24086
    endloop
  endfacet
  facet normal 0.233456 0 0.972367
    outer loop
      vertex 29.9971 2.25 2.7122
      vertex 31.0153 0 2.46774
      vertex 31.0153 2.25 2.46774
    endloop
  endfacet
  facet normal 0.233456 0 0.972367
    outer loop
      vertex 31.0153 0 2.46774
      vertex 29.9971 2.25 2.7122
      vertex 29.9971 0 2.7122
    endloop
  endfacet
  facet normal 0.00872854 0 0.999962
    outer loop
      vertex 16.5 2.25 4.25
      vertex 17.5471 0 4.24086
      vertex 17.5471 2.25 4.24086
    endloop
  endfacet
  facet normal 0.00872854 0 0.999962
    outer loop
      vertex 17.5471 0 4.24086
      vertex 16.5 2.25 4.25
      vertex 16.5 0 4.25
    endloop
  endfacet
  facet normal -0.233445 0 0.97237
    outer loop
      vertex 1.98469 2.25 2.46774
      vertex 3.00294 0 2.7122
      vertex 3.00294 2.25 2.7122
    endloop
  endfacet
  facet normal -0.233445 0 0.97237
    outer loop
      vertex 3.00294 0 2.7122
      vertex 1.98469 2.25 2.46774
      vertex 1.98469 0 2.46774
    endloop
  endfacet
  facet normal -0.182232 0 0.983256
    outer loop
      vertex 5.05146 2.25 3.14763
      vertex 6.08111 0 3.33846
      vertex 6.08111 2.25 3.33846
    endloop
  endfacet
  facet normal -0.182232 0 0.983256
    outer loop
      vertex 6.08111 0 3.33846
      vertex 5.05146 2.25 3.14763
      vertex 5.05146 0 3.14763
    endloop
  endfacet
  facet normal -0.13053 0 0.991444
    outer loop
      vertex 8.14961 2.25 3.66608
      vertex 9.18784 0 3.80277
      vertex 9.18784 2.25 3.80277
    endloop
  endfacet
  facet normal -0.13053 0 0.991444
    outer loop
      vertex 9.18784 0 3.80277
      vertex 8.14961 2.25 3.66608
      vertex 8.14961 0 3.66608
    endloop
  endfacet
  facet normal -0.0784622 0 0.996917
    outer loop
      vertex 11.2707 2.25 4.02168
      vertex 12.3146 0 4.10384
      vertex 12.3146 2.25 4.10384
    endloop
  endfacet
  facet normal -0.0784622 0 0.996917
    outer loop
      vertex 12.3146 0 4.10384
      vertex 11.2707 2.25 4.02168
      vertex 11.2707 0 4.02168
    endloop
  endfacet
  facet normal 0.147803 0 0.989017
    outer loop
      vertex 24.8504 2.25 3.66608
      vertex 25.8861 0 3.5113
      vertex 25.8861 2.25 3.5113
    endloop
  endfacet
  facet normal 0.147803 0 0.989017
    outer loop
      vertex 25.8861 0 3.5113
      vertex 24.8504 2.25 3.66608
      vertex 24.8504 0 3.66608
    endloop
  endfacet
  facet normal -0.0261731 0 0.999657
    outer loop
      vertex 14.406 2.25 4.21345
      vertex 15.4529 0 4.24086
      vertex 15.4529 2.25 4.24086
    endloop
  endfacet
  facet normal -0.0261731 0 0.999657
    outer loop
      vertex 15.4529 0 4.24086
      vertex 14.406 2.25 4.21345
      vertex 14.406 0 4.21345
    endloop
  endfacet
  facet normal -0.250375 0 0.968149
    outer loop
      vertex 0.970857 2.25 2.20555
      vertex 1.98469 0 2.46774
      vertex 1.98469 2.25 2.46774
    endloop
  endfacet
  facet normal -0.250375 0 0.968149
    outer loop
      vertex 1.98469 0 2.46774
      vertex 0.970857 2.25 2.20555
      vertex 0.970857 0 2.20555
    endloop
  endfacet
  facet normal -0.216447 0 0.976294
    outer loop
      vertex 3.00294 2.25 2.7122
      vertex 4.0253 0 2.93886
      vertex 4.0253 2.25 2.93886
    endloop
  endfacet
  facet normal -0.216447 0 0.976294
    outer loop
      vertex 4.0253 0 2.93886
      vertex 3.00294 2.25 2.7122
      vertex 3.00294 0 2.7122
    endloop
  endfacet
  facet normal -0.147806 0 0.989016
    outer loop
      vertex 7.11393 2.25 3.5113
      vertex 8.14961 0 3.66608
      vertex 8.14961 2.25 3.66608
    endloop
  endfacet
  facet normal -0.147806 0 0.989016
    outer loop
      vertex 8.14961 0 3.66608
      vertex 7.11393 2.25 3.5113
      vertex 7.11393 0 3.5113
    endloop
  endfacet
  facet normal -0.0958441 0 0.995396
    outer loop
      vertex 10.2283 2.25 3.92131
      vertex 11.2707 0 4.02168
      vertex 11.2707 2.25 4.02168
    endloop
  endfacet
  facet normal -0.0958441 0 0.995396
    outer loop
      vertex 11.2707 0 4.02168
      vertex 10.2283 2.25 3.92131
      vertex 10.2283 0 3.92131
    endloop
  endfacet
  facet normal -0.113198 0 0.993572
    outer loop
      vertex 9.18784 2.25 3.80277
      vertex 10.2283 0 3.92131
      vertex 10.2283 2.25 3.92131
    endloop
  endfacet
  facet normal -0.113198 0 0.993572
    outer loop
      vertex 10.2283 0 3.92131
      vertex 9.18784 2.25 3.80277
      vertex 9.18784 0 3.80277
    endloop
  endfacet
  facet normal -0.0610512 0 0.998135
    outer loop
      vertex 12.3146 2.25 4.10384
      vertex 13.3598 0 4.16777
      vertex 13.3598 2.25 4.16777
    endloop
  endfacet
  facet normal -0.0610512 0 0.998135
    outer loop
      vertex 13.3598 0 4.16777
      vertex 12.3146 2.25 4.10384
      vertex 12.3146 0 4.10384
    endloop
  endfacet
  facet normal -0.0436212 0 0.999048
    outer loop
      vertex 13.3598 2.25 4.16777
      vertex 14.406 0 4.21345
      vertex 14.406 2.25 4.21345
    endloop
  endfacet
  facet normal -0.0436212 0 0.999048
    outer loop
      vertex 14.406 0 4.21345
      vertex 13.3598 2.25 4.16777
      vertex 13.3598 0 4.16777
    endloop
  endfacet
  facet normal 0.0958441 0 0.995396
    outer loop
      vertex 21.7293 2.25 4.02168
      vertex 22.7717 0 3.92131
      vertex 22.7717 2.25 3.92131
    endloop
  endfacet
  facet normal 0.0958441 0 0.995396
    outer loop
      vertex 22.7717 0 3.92131
      vertex 21.7293 2.25 4.02168
      vertex 21.7293 0 4.02168
    endloop
  endfacet
  facet normal 0.113194 0 0.993573
    outer loop
      vertex 22.7717 2.25 3.92131
      vertex 23.8122 0 3.80277
      vertex 23.8122 2.25 3.80277
    endloop
  endfacet
  facet normal 0.113194 0 0.993573
    outer loop
      vertex 23.8122 0 3.80277
      vertex 22.7717 2.25 3.92131
      vertex 22.7717 0 3.92131
    endloop
  endfacet
  facet normal 0.0610512 0 0.998135
    outer loop
      vertex 19.6402 2.25 4.16777
      vertex 20.6854 0 4.10384
      vertex 20.6854 2.25 4.10384
    endloop
  endfacet
  facet normal 0.0610512 0 0.998135
    outer loop
      vertex 20.6854 0 4.10384
      vertex 19.6402 2.25 4.16777
      vertex 19.6402 0 4.16777
    endloop
  endfacet
  facet normal 0.199356 0 0.979927
    outer loop
      vertex 27.9485 2.25 3.14763
      vertex 28.9747 0 2.93886
      vertex 28.9747 2.25 2.93886
    endloop
  endfacet
  facet normal 0.199356 0 0.979927
    outer loop
      vertex 28.9747 0 2.93886
      vertex 27.9485 2.25 3.14763
      vertex 27.9485 0 3.14763
    endloop
  endfacet
  facet normal 0.216439 0 0.976296
    outer loop
      vertex 28.9747 2.25 2.93886
      vertex 29.9971 0 2.7122
      vertex 29.9971 2.25 2.7122
    endloop
  endfacet
  facet normal 0.216439 0 0.976296
    outer loop
      vertex 29.9971 0 2.7122
      vertex 28.9747 2.25 2.93886
      vertex 28.9747 0 2.93886
    endloop
  endfacet
  facet normal 0.18224 0 0.983254
    outer loop
      vertex 26.9189 2.25 3.33846
      vertex 27.9485 0 3.14763
      vertex 27.9485 2.25 3.14763
    endloop
  endfacet
  facet normal 0.18224 0 0.983254
    outer loop
      vertex 27.9485 0 3.14763
      vertex 26.9189 2.25 3.33846
      vertex 26.9189 0 3.33846
    endloop
  endfacet
  facet normal 0.165056 0 0.986284
    outer loop
      vertex 25.8861 2.25 3.5113
      vertex 26.9189 0 3.33846
      vertex 26.9189 2.25 3.33846
    endloop
  endfacet
  facet normal 0.165056 0 0.986284
    outer loop
      vertex 26.9189 0 3.33846
      vertex 25.8861 2.25 3.5113
      vertex 25.8861 0 3.5113
    endloop
  endfacet
  facet normal 0.267235 0 0.963631
    outer loop
      vertex 32.0291 2.25 2.20555
      vertex 32.7703 0 2
      vertex 32.7703 2.25 2
    endloop
  endfacet
  facet normal 0.267235 0 0.963631
    outer loop
      vertex 32.7703 0 2
      vertex 32.0291 2.25 2.20555
      vertex 32.0291 0 2.20555
    endloop
  endfacet
  facet normal 0.250383 0 0.968147
    outer loop
      vertex 31.0153 2.25 2.46774
      vertex 32.0291 0 2.20555
      vertex 32.0291 2.25 2.20555
    endloop
  endfacet
  facet normal 0.250383 0 0.968147
    outer loop
      vertex 32.0291 0 2.20555
      vertex 31.0153 2.25 2.46774
      vertex 31.0153 0 2.46774
    endloop
  endfacet
  facet normal -0.199364 0 0.979926
    outer loop
      vertex 4.0253 2.25 2.93886
      vertex 5.05146 0 3.14763
      vertex 5.05146 2.25 3.14763
    endloop
  endfacet
  facet normal -0.199364 0 0.979926
    outer loop
      vertex 5.05146 0 3.14763
      vertex 4.0253 2.25 2.93886
      vertex 4.0253 0 2.93886
    endloop
  endfacet
  facet normal -0.165052 0 0.986285
    outer loop
      vertex 6.08111 2.25 3.33846
      vertex 7.11393 0 3.5113
      vertex 7.11393 2.25 3.5113
    endloop
  endfacet
  facet normal -0.165052 0 0.986285
    outer loop
      vertex 7.11393 0 3.5113
      vertex 6.08111 2.25 3.33846
      vertex 6.08111 0 3.33846
    endloop
  endfacet
  facet normal 0.0436212 0 0.999048
    outer loop
      vertex 18.594 2.25 4.21345
      vertex 19.6402 0 4.16777
      vertex 19.6402 2.25 4.16777
    endloop
  endfacet
  facet normal 0.0436212 0 0.999048
    outer loop
      vertex 19.6402 0 4.16777
      vertex 18.594 2.25 4.21345
      vertex 18.594 0 4.21345
    endloop
  endfacet
  facet normal 0.0784622 0 0.996917
    outer loop
      vertex 20.6854 2.25 4.10384
      vertex 21.7293 0 4.02168
      vertex 21.7293 2.25 4.02168
    endloop
  endfacet
  facet normal 0.0784622 0 0.996917
    outer loop
      vertex 21.7293 0 4.02168
      vertex 20.6854 2.25 4.10384
      vertex 20.6854 0 4.10384
    endloop
  endfacet
  facet normal -1 0 0
    outer loop
      vertex 9 2.5 0
      vertex 9 7.75 2
      vertex 9 7.75 0
    endloop
  endfacet
  facet normal -1 -0 0
    outer loop
      vertex 9 7.75 2
      vertex 9 2.5 0
      vertex 9 2.5 2
    endloop
  endfacet
  facet normal -1 0 0
    outer loop
      vertex 9 22.75 0
      vertex 9 28 2
      vertex 9 28 0
    endloop
  endfacet
  facet normal -1 -0 0
    outer loop
      vertex 9 28 2
      vertex 9 22.75 0
      vertex 9 22.75 2
    endloop
  endfacet
  facet normal -1 0 0
    outer loop
      vertex 9 9.25 0
      vertex 9 14.5 2
      vertex 9 14.5 0
    endloop
  endfacet
  facet normal -1 -0 0
    outer loop
      vertex 9 14.5 2
      vertex 9 9.25 0
      vertex 9 9.25 2
    endloop
  endfacet
  facet normal -1 0 0
    outer loop
      vertex 9 16 0
      vertex 9 21.25 2
      vertex 9 21.25 0
    endloop
  endfacet
  facet normal -1 -0 0
    outer loop
      vertex 9 21.25 2
      vertex 9 16 0
      vertex 9 16 2
    endloop
  endfacet
  facet normal 1 -0 0
    outer loop
      vertex 10.5 2.5 2
      vertex 10.5 7.75 0
      vertex 10.5 7.75 2
    endloop
  endfacet
  facet normal 1 0 0
    outer loop
      vertex 10.5 7.75 0
      vertex 10.5 2.5 2
      vertex 10.5 2.5 0
    endloop
  endfacet
  facet normal 1 -0 0
    outer loop
      vertex 10.5 22.75 2
      vertex 10.5 28 0
      vertex 10.5 28 2
    endloop
  endfacet
  facet normal 1 0 0
    outer loop
      vertex 10.5 28 0
      vertex 10.5 22.75 2
      vertex 10.5 22.75 0
    endloop
  endfacet
  facet normal 1 -0 0
    outer loop
      vertex 10.5 9.25 2
      vertex 10.5 14.5 0
      vertex 10.5 14.5 2
    endloop
  endfacet
  facet normal 1 0 0
    outer loop
      vertex 10.5 14.5 0
      vertex 10.5 9.25 2
      vertex 10.5 9.25 0
    endloop
  endfacet
  facet normal 1 -0 0
    outer loop
      vertex 10.5 16 2
      vertex 10.5 21.25 0
      vertex 10.5 21.25 2
    endloop
  endfacet
  facet normal 1 0 0
    outer loop
      vertex 10.5 21.25 0
      vertex 10.5 16 2
      vertex 10.5 16 0
    endloop
  endfacet
  facet normal 0 1 -0
    outer loop
      vertex 30 9.25 0
      vertex 24 9.25 2
      vertex 30 9.25 2
    endloop
  endfacet
  facet normal 0 1 0
    outer loop
      vertex 24 9.25 2
      vertex 30 9.25 0
      vertex 24 9.25 0
    endloop
  endfacet
  facet normal 0 1 -0
    outer loop
      vertex 9 9.25 0
      vertex 3 9.25 2
      vertex 9 9.25 2
    endloop
  endfacet
  facet normal 0 1 0
    outer loop
      vertex 3 9.25 2
      vertex 9 9.25 0
      vertex 3 9.25 0
    endloop
  endfacet
  facet normal 0 1 -0
    outer loop
      vertex 15.75 9.25 0
      vertex 10.5 9.25 2
      vertex 15.75 9.25 2
    endloop
  endfacet
  facet normal 0 1 0
    outer loop
      vertex 10.5 9.25 2
      vertex 15.75 9.25 0
      vertex 10.5 9.25 0
    endloop
  endfacet
  facet normal 0 1 -0
    outer loop
      vertex 22.5 9.25 0
      vertex 17.25 9.25 2
      vertex 22.5 9.25 2
    endloop
  endfacet
  facet normal 0 1 0
    outer loop
      vertex 17.25 9.25 2
      vertex 22.5 9.25 0
      vertex 17.25 9.25 0
    endloop
  endfacet
  facet normal 0 -1 0
    outer loop
      vertex 24 7.75 0
      vertex 30 7.75 2
      vertex 24 7.75 2
    endloop
  endfacet
  facet normal 0 -1 -0
    outer loop
      vertex 30 7.75 2
      vertex 24 7.75 0
      vertex 30 7.75 0
    endloop
  endfacet
  facet normal 0 -1 0
    outer loop
      vertex 3 7.75 0
      vertex 9 7.75 2
      vertex 3 7.75 2
    endloop
  endfacet
  facet normal 0 -1 -0
    outer loop
      vertex 9 7.75 2
      vertex 3 7.75 0
      vertex 9 7.75 0
    endloop
  endfacet
  facet normal 0 -1 0
    outer loop
      vertex 10.5 7.75 0
      vertex 15.75 7.75 2
      vertex 10.5 7.75 2
    endloop
  endfacet
  facet normal 0 -1 -0
    outer loop
      vertex 15.75 7.75 2
      vertex 10.5 7.75 0
      vertex 15.75 7.75 0
    endloop
  endfacet
  facet normal 0 -1 0
    outer loop
      vertex 17.25 7.75 0
      vertex 22.5 7.75 2
      vertex 17.25 7.75 2
    endloop
  endfacet
  facet normal 0 -1 -0
    outer loop
      vertex 22.5 7.75 2
      vertex 17.25 7.75 0
      vertex 22.5 7.75 0
    endloop
  endfacet
  facet normal -1 0 0
    outer loop
      vertex 15.75 2.5 0
      vertex 15.75 7.75 2
      vertex 15.75 7.75 0
    endloop
  endfacet
  facet normal -1 -0 0
    outer loop
      vertex 15.75 7.75 2
      vertex 15.75 2.5 0
      vertex 15.75 2.5 2
    endloop
  endfacet
  facet normal -1 0 0
    outer loop
      vertex 15.75 22.75 0
      vertex 15.75 28 2
      vertex 15.75 28 0
    endloop
  endfacet
  facet normal -1 -0 0
    outer loop
      vertex 15.75 28 2
      vertex 15.75 22.75 0
      vertex 15.75 22.75 2
    endloop
  endfacet
  facet normal -1 0 0
    outer loop
      vertex 15.75 9.25 0
      vertex 15.75 14.5 2
      vertex 15.75 14.5 0
    endloop
  endfacet
  facet normal -1 -0 0
    outer loop
      vertex 15.75 14.5 2
      vertex 15.75 9.25 0
      vertex 15.75 9.25 2
    endloop
  endfacet
  facet normal -1 0 0
    outer loop
      vertex 15.75 16 0
      vertex 15.75 21.25 2
      vertex 15.75 21.25 0
    endloop
  endfacet
  facet normal -1 -0 0
    outer loop
      vertex 15.75 21.25 2
      vertex 15.75 16 0
      vertex 15.75 16 2
    endloop
  endfacet
  facet normal 1 -0 0
    outer loop
      vertex 17.25 2.5 2
      vertex 17.25 7.75 0
      vertex 17.25 7.75 2
    endloop
  endfacet
  facet normal 1 0 0
    outer loop
      vertex 17.25 7.75 0
      vertex 17.25 2.5 2
      vertex 17.25 2.5 0
    endloop
  endfacet
  facet normal 1 -0 0
    outer loop
      vertex 17.25 22.75 2
      vertex 17.25 28 0
      vertex 17.25 28 2
    endloop
  endfacet
  facet normal 1 0 0
    outer loop
      vertex 17.25 28 0
      vertex 17.25 22.75 2
      vertex 17.25 22.75 0
    endloop
  endfacet
  facet normal 1 -0 0
    outer loop
      vertex 17.25 9.25 2
      vertex 17.25 14.5 0
      vertex 17.25 14.5 2
    endloop
  endfacet
  facet normal 1 0 0
    outer loop
      vertex 17.25 14.5 0
      vertex 17.25 9.25 2
      vertex 17.25 9.25 0
    endloop
  endfacet
  facet normal 1 -0 0
    outer loop
      vertex 17.25 16 2
      vertex 17.25 21.25 0
      vertex 17.25 21.25 2
    endloop
  endfacet
  facet normal 1 0 0
    outer loop
      vertex 17.25 21.25 0
      vertex 17.25 16 2
      vertex 17.25 16 0
    endloop
  endfacet
  facet normal 0 1 -0
    outer loop
      vertex 30 16 0
      vertex 24 16 2
      vertex 30 16 2
    endloop
  endfacet
  facet normal 0 1 0
    outer loop
      vertex 24 16 2
      vertex 30 16 0
      vertex 24 16 0
    endloop
  endfacet
  facet normal 0 1 -0
    outer loop
      vertex 9 16 0
      vertex 3 16 2
      vertex 9 16 2
    endloop
  endfacet
  facet normal 0 1 0
    outer loop
      vertex 3 16 2
      vertex 9 16 0
      vertex 3 16 0
    endloop
  endfacet
  facet normal 0 1 -0
    outer loop
      vertex 15.75 16 0
      vertex 10.5 16 2
      vertex 15.75 16 2
    endloop
  endfacet
  facet normal 0 1 0
    outer loop
      vertex 10.5 16 2
      vertex 15.75 16 0
      vertex 10.5 16 0
    endloop
  endfacet
  facet normal 0 1 -0
    outer loop
      vertex 22.5 16 0
      vertex 17.25 16 2
      vertex 22.5 16 2
    endloop
  endfacet
  facet normal 0 1 0
    outer loop
      vertex 17.25 16 2
      vertex 22.5 16 0
      vertex 17.25 16 0
    endloop
  endfacet
  facet normal 0 -1 0
    outer loop
      vertex 24 14.5 0
      vertex 30 14.5 2
      vertex 24 14.5 2
    endloop
  endfacet
  facet normal 0 -1 -0
    outer loop
      vertex 30 14.5 2
      vertex 24 14.5 0
      vertex 30 14.5 0
    endloop
  endfacet
  facet normal 0 -1 0
    outer loop
      vertex 3 14.5 0
      vertex 9 14.5 2
      vertex 3 14.5 2
    endloop
  endfacet
  facet normal 0 -1 -0
    outer loop
      vertex 9 14.5 2
      vertex 3 14.5 0
      vertex 9 14.5 0
    endloop
  endfacet
  facet normal 0 -1 0
    outer loop
      vertex 10.5 14.5 0
      vertex 15.75 14.5 2
      vertex 10.5 14.5 2
    endloop
  endfacet
  facet normal 0 -1 -0
    outer loop
      vertex 15.75 14.5 2
      vertex 10.5 14.5 0
      vertex 15.75 14.5 0
    endloop
  endfacet
  facet normal 0 -1 0
    outer loop
      vertex 17.25 14.5 0
      vertex 22.5 14.5 2
      vertex 17.25 14.5 2
    endloop
  endfacet
  facet normal 0 -1 -0
    outer loop
      vertex 22.5 14.5 2
      vertex 17.25 14.5 0
      vertex 22.5 14.5 0
    endloop
  endfacet
  facet normal -1 0 0
    outer loop
      vertex 22.5 2.5 0
      vertex 22.5 7.75 2
      vertex 22.5 7.75 0
    endloop
  endfacet
  facet normal -1 -0 0
    outer loop
      vertex 22.5 7.75 2
      vertex 22.5 2.5 0
      vertex 22.5 2.5 2
    endloop
  endfacet
  facet normal -1 0 0
    outer loop
      vertex 22.5 22.75 0
      vertex 22.5 28 2
      vertex 22.5 28 0
    endloop
  endfacet
  facet normal -1 -0 0
    outer loop
      vertex 22.5 28 2
      vertex 22.5 22.75 0
      vertex 22.5 22.75 2
    endloop
  endfacet
  facet normal -1 0 0
    outer loop
      vertex 22.5 16 0
      vertex 22.5 21.25 2
      vertex 22.5 21.25 0
    endloop
  endfacet
  facet normal -1 -0 0
    outer loop
      vertex 22.5 21.25 2
      vertex 22.5 16 0
      vertex 22.5 16 2
    endloop
  endfacet
  facet normal -1 0 0
    outer loop
      vertex 22.5 9.25 0
      vertex 22.5 14.5 2
      vertex 22.5 14.5 0
    endloop
  endfacet
  facet normal -1 -0 0
    outer loop
      vertex 22.5 14.5 2
      vertex 22.5 9.25 0
      vertex 22.5 9.25 2
    endloop
  endfacet
  facet normal 1 -0 0
    outer loop
      vertex 24 2.5 2
      vertex 24 7.75 0
      vertex 24 7.75 2
    endloop
  endfacet
  facet normal 1 0 0
    outer loop
      vertex 24 7.75 0
      vertex 24 2.5 2
      vertex 24 2.5 0
    endloop
  endfacet
  facet normal 1 -0 0
    outer loop
      vertex 24 22.75 2
      vertex 24 28 0
      vertex 24 28 2
    endloop
  endfacet
  facet normal 1 0 0
    outer loop
      vertex 24 28 0
      vertex 24 22.75 2
      vertex 24 22.75 0
    endloop
  endfacet
  facet normal 1 -0 0
    outer loop
      vertex 24 16 2
      vertex 24 21.25 0
      vertex 24 21.25 2
    endloop
  endfacet
  facet normal 1 0 0
    outer loop
      vertex 24 21.25 0
      vertex 24 16 2
      vertex 24 16 0
    endloop
  endfacet
  facet normal 1 -0 0
    outer loop
      vertex 24 9.25 2
      vertex 24 14.5 0
      vertex 24 14.5 2
    endloop
  endfacet
  facet normal 1 0 0
    outer loop
      vertex 24 14.5 0
      vertex 24 9.25 2
      vertex 24 9.25 0
    endloop
  endfacet
  facet normal 0 1 -0
    outer loop
      vertex 30 22.75 0
      vertex 24 22.75 2
      vertex 30 22.75 2
    endloop
  endfacet
  facet normal 0 1 0
    outer loop
      vertex 24 22.75 2
      vertex 30 22.75 0
      vertex 24 22.75 0
    endloop
  endfacet
  facet normal 0 1 -0
    outer loop
      vertex 9 22.75 0
      vertex 3 22.75 2
      vertex 9 22.75 2
    endloop
  endfacet
  facet normal 0 1 0
    outer loop
      vertex 3 22.75 2
      vertex 9 22.75 0
      vertex 3 22.75 0
    endloop
  endfacet
  facet normal 0 1 -0
    outer loop
      vertex 22.5 22.75 0
      vertex 17.25 22.75 2
      vertex 22.5 22.75 2
    endloop
  endfacet
  facet normal 0 1 0
    outer loop
      vertex 17.25 22.75 2
      vertex 22.5 22.75 0
      vertex 17.25 22.75 0
    endloop
  endfacet
  facet normal 0 1 -0
    outer loop
      vertex 15.75 22.75 0
      vertex 10.5 22.75 2
      vertex 15.75 22.75 2
    endloop
  endfacet
  facet normal 0 1 0
    outer loop
      vertex 10.5 22.75 2
      vertex 15.75 22.75 0
      vertex 10.5 22.75 0
    endloop
  endfacet
  facet normal 0 -1 0
    outer loop
      vertex 24 21.25 0
      vertex 30 21.25 2
      vertex 24 21.25 2
    endloop
  endfacet
  facet normal 0 -1 -0
    outer loop
      vertex 30 21.25 2
      vertex 24 21.25 0
      vertex 30 21.25 0
    endloop
  endfacet
  facet normal 0 -1 0
    outer loop
      vertex 3 21.25 0
      vertex 9 21.25 2
      vertex 3 21.25 2
    endloop
  endfacet
  facet normal 0 -1 -0
    outer loop
      vertex 9 21.25 2
      vertex 3 21.25 0
      vertex 9 21.25 0
    endloop
  endfacet
  facet normal 0 -1 0
    outer loop
      vertex 17.25 21.25 0
      vertex 22.5 21.25 2
      vertex 17.25 21.25 2
    endloop
  endfacet
  facet normal 0 -1 -0
    outer loop
      vertex 22.5 21.25 2
      vertex 17.25 21.25 0
      vertex 22.5 21.25 0
    endloop
  endfacet
  facet normal 0 -1 0
    outer loop
      vertex 10.5 21.25 0
      vertex 15.75 21.25 2
      vertex 10.5 21.25 2
    endloop
  endfacet
  facet normal 0 -1 -0
    outer loop
      vertex 15.75 21.25 2
      vertex 10.5 21.25 0
      vertex 15.75 21.25 0
    endloop
  endfacet
endsolid OpenSCAD_Model
