<?xml version="1.0" encoding="UTF-8" standalone="no"?>
<svg
   xmlns:dc="http://purl.org/dc/elements/1.1/"
   xmlns:cc="http://creativecommons.org/ns#"
   xmlns:rdf="http://www.w3.org/1999/02/22-rdf-syntax-ns#"
   xmlns:svg="http://www.w3.org/2000/svg"
   xmlns="http://www.w3.org/2000/svg"
   xmlns:sodipodi="http://sodipodi.sourceforge.net/DTD/sodipodi-0.dtd"
   xmlns:inkscape="http://www.inkscape.org/namespaces/inkscape"
   width="150mm"
   height="156mm"
   viewBox="0 0 150 156"
   version="1.1"
   id="svg8"
   sodipodi:docname="top.svg"
   inkscape:version="1.0.1 (3bc2e813f5, 2020-09-07)">
  <defs
     id="defs2" />
  <sodipodi:namedview
     id="base"
     pagecolor="#ffffff"
     bordercolor="#666666"
     borderopacity="1.0"
     inkscape:pageopacity="0.0"
     inkscape:pageshadow="2"
     inkscape:zoom="0.7"
     inkscape:cx="168.50137"
     inkscape:cy="381.00308"
     inkscape:document-units="mm"
     inkscape:current-layer="layer1"
     inkscape:document-rotation="0"
     showgrid="true"
     inkscape:window-width="2560"
     inkscape:window-height="1387"
     inkscape:window-x="-8"
     inkscape:window-y="-8"
     inkscape:window-maximized="1">
    <inkscape:grid
       type="xygrid"
       id="grid10"
       empspacing="5"
       spacingx="0.99999998"
       spacingy="0.99999998" />
  </sodipodi:namedview>
  <metadata
     id="metadata5">
    <rdf:RDF>
      <cc:Work
         rdf:about="">
        <dc:format>image/svg+xml</dc:format>
        <dc:type
           rdf:resource="http://purl.org/dc/dcmitype/StillImage" />
        <dc:title></dc:title>
      </cc:Work>
    </rdf:RDF>
  </metadata>
  <g
     inkscape:label="Layer 1"
     inkscape:groupmode="layer"
     id="layer1">
    <path
       id="path873"
       style="color:#000000;font-style:normal;font-variant:normal;font-weight:normal;font-stretch:normal;font-size:medium;line-height:normal;font-family:sans-serif;font-variant-ligatures:normal;font-variant-position:normal;font-variant-caps:normal;font-variant-numeric:normal;font-variant-alternates:normal;font-variant-east-asian:normal;font-feature-settings:normal;font-variation-settings:normal;text-indent:0;text-align:start;text-decoration:none;text-decoration-line:none;text-decoration-style:solid;text-decoration-color:#000000;letter-spacing:normal;word-spacing:normal;text-transform:none;writing-mode:lr-tb;direction:ltr;text-orientation:mixed;dominant-baseline:auto;baseline-shift:baseline;text-anchor:start;white-space:normal;shape-padding:0;shape-margin:0;inline-size:0;clip-rule:nonzero;display:inline;overflow:visible;visibility:visible;opacity:1;isolation:auto;mix-blend-mode:normal;color-interpolation:sRGB;color-interpolation-filters:linearRGB;solid-color:#000000;solid-opacity:1;vector-effect:none;fill:#000000;fill-opacity:1;fill-rule:nonzero;stroke:none;stroke-width:0.377953;stroke-linecap:butt;stroke-linejoin:round;stroke-miterlimit:4;stroke-dasharray:none;stroke-dashoffset:0;stroke-opacity:1;color-rendering:auto;image-rendering:auto;shape-rendering:auto;text-rendering:auto;enable-background:accumulate;stop-color:#000000;stop-opacity:1"
       d="M 62.361328 0 L 62.361328 98.267578 L 62.361328 102.04688 C 62.361434 103.09052 63.208308 103.93739 64.251953 103.9375 C 75.170589 103.9375 84.085979 107.54496 90.318359 113.77734 C 96.550744 120.00972 100.1582 128.92316 100.1582 139.8418 C 100.1582 150.76043 96.550744 159.67582 90.318359 165.9082 C 84.085979 172.14059 75.170589 175.74805 64.251953 175.74805 C 63.208308 175.74815 62.361434 176.59503 62.361328 177.63867 L 62.361328 453.54297 L 62.361328 457.32227 C 62.361434 458.36591 63.208308 459.21278 64.251953 459.21289 C 75.275576 459.21289 84.200131 461.95913 90.369141 467.6875 C 96.538154 473.41587 100.1582 482.2488 100.1582 495.11719 C 100.15918 496.0745 100.87546 496.87994 101.82617 496.99219 C 264.39594 515.89565 321.43918 515.89822 465.125 496.99219 C 466.06693 496.86973 466.7719 496.06706 466.77148 495.11719 C 466.77148 484.19855 470.37892 475.2851 476.61133 469.05273 C 482.84369 462.82033 491.7591 459.21289 502.67773 459.21289 C 503.72138 459.21278 504.56629 458.36591 504.56641 457.32227 L 504.56641 0 L 500.78711 0 L 500.78711 455.76562 C 489.91583 456.19793 480.52622 459.79413 473.93945 466.38086 C 467.31753 473.00282 463.69238 482.44368 463.29492 493.39062 C 321.3362 512.01667 264.31599 512.0211 103.65625 493.38281 C 103.29175 480.7872 99.651593 471.14663 92.9375 464.91211 C 86.29334 458.74275 76.920853 456.02547 66.142578 455.69922 L 66.142578 453.54297 L 66.142578 179.19531 C 77.013864 178.76303 86.403497 175.16681 92.990234 168.58008 C 99.986197 161.58412 103.9375 151.60033 103.9375 139.8418 C 103.9375 128.08326 99.986197 118.10143 92.990234 111.10547 C 86.403497 104.51873 77.013864 100.92253 66.142578 100.49023 L 66.142578 98.267578 L 66.142578 0 L 62.361328 0 z "
       transform="scale(0.26458333)" />
  </g>
</svg>
